<?xml version="1.0" encoding="UTF-8" standalone="no"?>
<!DOCTYPE svg PUBLIC "-//W3C//DTD SVG 1.1//EN" "http://www.w3.org/Graphics/SVG/1.1/DTD/svg11.dtd">
<svg xmlns="http://www.w3.org/2000/svg" version="1.1" viewBox="0.00 0.00 514.00 514.00">
<g stroke-width="2.00" fill="none" stroke-linecap="butt">
<path stroke="#808080" vector-effect="non-scaling-stroke" d="
  M 323.63 70.46
  A 1.14 1.14 0.0 0 0 324.49 72.21
  C 327.86 72.51 338.34 73.31 341.01 70.75
  Q 353.82 58.43 367.23 45.76
  A 1.15 1.15 0.0 0 0 366.46 43.78
  Q 355.93 43.60 344.90 43.77
  C 342.00 43.82 340.25 44.71 338.75 47.03
  Q 331.41 58.32 323.63 70.46"
/>
<path stroke="#808080" vector-effect="non-scaling-stroke" d="
  M 240.73 125.48
  Q 240.72 122.82 242.46 124.82
  L 257.13 141.71
  A 1.66 1.66 0.0 0 0 259.60 141.75
  L 276.33 123.74
  A 0.56 0.56 0.0 0 1 277.30 124.12
  L 277.13 164.53
  A 0.78 0.77 -23.8 0 0 278.48 165.05
  Q 289.59 152.85 300.66 140.95
  C 302.71 138.74 302.94 137.92 302.95 135.00
  Q 303.01 108.37 302.91 80.63
  Q 302.91 79.41 301.69 79.40
  Q 291.63 79.27 280.75 79.25
  Q 277.45 79.25 274.90 82.64
  Q 266.95 93.22 259.33 103.67
  A 1.13 1.13 0.0 0 1 257.49 103.65
  Q 249.92 92.70 242.32 81.95
  Q 240.43 79.28 238.01 79.28
  Q 226.49 79.32 215.76 79.45
  A 1.54 1.54 0.0 0 0 214.24 80.99
  L 214.23 136.51
  A 4.67 4.66 -66.5 0 0 215.47 139.68
  L 239.69 165.89
  Q 240.83 167.12 240.83 165.44
  L 240.73 125.48"
/>
<path stroke="#808080" vector-effect="non-scaling-stroke" d="
  M 372.90 96.99
  L 373.00 82.55
  Q 373.02 79.36 369.83 79.36
  L 307.04 79.37
  Q 306.69 79.37 306.69 79.71
  L 306.76 100.54
  A 0.79 0.78 90.0 0 0 307.54 101.33
  L 370.00 101.29
  A 0.59 0.58 -74.8 0 1 370.50 102.17
  C 367.29 107.75 367.10 112.06 366.96 118.41
  Q 366.92 120.01 369.00 120.05
  Q 379.55 120.27 391.59 120.12
  A 2.94 2.94 0.0 0 0 394.15 118.56
  C 395.69 115.64 397.19 112.66 399.78 110.49
  Q 412.04 100.21 426.54 106.75
  C 431.82 109.13 434.84 113.07 435.37 118.71
  C 435.97 125.13 426.89 129.32 422.09 131.23
  C 412.42 135.08 402.79 139.12 393.06 142.80
  C 380.40 147.59 367.80 156.81 366.93 171.24
  Q 366.28 182.02 370.14 191.21
  Q 370.62 192.36 369.38 192.36
  Q 338.14 192.44 308.50 192.48
  Q 306.59 192.48 304.72 191.95
  Q 304.21 191.81 304.09 191.30
  Q 303.79 190.04 303.78 188.75
  Q 303.62 170.76 303.98 152.96
  A 0.51 0.51 0.0 0 0 303.10 152.60
  L 277.21 180.67
  A 2.72 2.69 66.4 0 0 276.51 182.49
  L 276.56 211.78
  Q 276.56 214.74 279.53 214.74
  L 371.00 214.73
  A 1.84 1.83 -88.3 0 0 372.83 213.00
  Q 373.20 206.75 372.85 200.47
  Q 372.62 196.45 375.01 199.69
  C 382.50 209.83 395.24 213.48 407.25 214.53
  C 433.14 216.80 465.05 205.15 462.15 173.39
  A 1.48 1.48 0.0 0 0 460.68 172.05
  L 437.12 172.01
  A 1.84 1.84 0.0 0 0 435.28 173.94
  Q 435.57 179.43 430.89 183.22
  Q 415.04 196.05 399.97 183.94
  C 394.68 179.68 390.62 170.75 398.16 166.34
  C 400.80 164.80 403.40 163.01 406.32 161.91
  Q 428.93 153.34 437.21 149.71
  C 455.60 141.66 467.31 128.92 460.51 107.45
  C 453.35 84.80 425.16 76.16 404.11 80.76
  Q 386.96 84.50 373.76 97.36
  Q 372.89 98.21 372.90 96.99"
/>
<path stroke="#808080" vector-effect="non-scaling-stroke" d="
  M 213.98 177.82
  L 213.96 212.37
  A 2.36 2.35 90.0 0 0 216.31 214.73
  L 238.45 214.74
  A 2.01 2.01 0.0 0 0 240.46 212.74
  L 240.51 182.51
  A 3.20 3.16 -66.6 0 0 239.67 180.35
  L 210.20 148.38
  A 2.90 2.90 0.0 0 0 208.08 147.46
  L 181.48 147.51
  A 1.75 1.75 0.0 0 1 179.72 145.84
  C 179.42 139.17 178.75 130.78 181.23 124.63
  Q 183.99 117.75 189.38 112.33
  C 197.53 104.13 204.75 110.48 209.81 117.74
  A 0.47 0.47 0.0 0 0 210.66 117.47
  Q 210.39 101.42 210.51 85.56
  C 210.52 84.15 209.84 82.91 208.63 82.35
  Q 198.14 77.49 188.63 80.94
  C 179.25 84.35 168.41 94.88 162.04 103.79
  A 3.37 3.36 -27.3 0 0 161.41 105.75
  Q 161.43 157.09 161.41 208.92
  C 161.41 210.62 160.99 212.38 160.72 214.15
  A 0.53 0.52 4.2 0 0 161.24 214.75
  L 177.45 214.73
  Q 179.68 214.73 179.68 212.50
  L 179.65 177.53
  A 1.57 1.56 -0.2 0 1 181.22 175.96
  L 212.07 175.91
  Q 213.98 175.90 213.98 177.82"
/>
<path stroke="#808080" vector-effect="non-scaling-stroke" d="
  M 133.27 207.60
  C 132.93 210.64 132.54 214.92 137.18 214.98
  Q 144.25 215.08 151.35 214.97
  C 154.96 214.92 157.50 215.38 157.50 211.00
  Q 157.48 147.48 157.54 84.50
  Q 157.54 80.09 153.13 80.01
  Q 145.90 79.90 138.24 80.03
  C 131.61 80.15 133.32 84.78 133.30 89.29
  Q 133.29 91.51 131.44 90.29
  Q 110.51 76.39 87.10 81.38
  C 77.97 83.32 68.49 87.84 62.10 94.36
  C 52.11 104.54 47.86 124.23 57.70 136.29
  Q 64.90 145.11 76.19 149.89
  Q 88.88 155.26 101.89 159.78
  Q 109.23 162.33 115.84 166.33
  Q 121.71 169.88 119.77 176.66
  Q 118.33 181.66 115.45 183.98
  Q 99.74 196.60 83.86 183.58
  Q 81.59 181.72 80.42 179.69
  C 79.35 177.84 79.75 175.10 78.19 172.93
  A 1.11 1.09 -17.3 0 0 77.32 172.48
  Q 67.57 172.43 57.82 172.51
  C 56.03 172.53 54.23 172.30 52.64 173.35
  A 1.15 1.14 75.3 0 0 52.14 174.22
  Q 50.85 196.47 69.75 207.54
  C 83.30 215.47 96.41 215.82 111.01 214.57
  Q 122.63 213.58 132.53 207.14
  A 0.48 0.48 0.0 0 1 133.27 207.60"
/>
<path stroke="#808080" vector-effect="non-scaling-stroke" d="
  M 354.75 126.61
  A 1.17 1.17 0.0 0 0 353.58 125.44
  L 307.84 125.44
  A 1.17 1.17 0.0 0 0 306.67 126.61
  L 306.67 147.51
  A 1.17 1.17 0.0 0 0 307.84 148.68
  L 353.58 148.68
  A 1.17 1.17 0.0 0 0 354.75 147.51
  L 354.75 126.61"
/>
<path stroke="#808080" vector-effect="non-scaling-stroke" d="
  M 352.02 234.60
  A 2.35 2.35 0.0 0 0 349.67 232.25
  L 164.91 232.25
  A 2.35 2.35 0.0 0 0 162.56 234.60
  L 162.56 234.64
  A 2.35 2.35 0.0 0 0 164.91 236.99
  L 349.67 236.99
  A 2.35 2.35 0.0 0 0 352.02 234.64
  L 352.02 234.60"
/>
<path stroke="#808080" vector-effect="non-scaling-stroke" d="
  M 137.2872 278.4172
  A 12.76 11.96 88.8 0 0 148.9774 265.4095
  A 12.76 11.96 88.8 0 0 136.7528 252.9028
  A 12.76 11.96 88.8 0 0 125.0626 265.9105
  A 12.76 11.96 88.8 0 0 137.2872 278.4172"
/>
<path stroke="#808080" vector-effect="non-scaling-stroke" d="
  M 248.10 275.03
  C 234.61 279.20 234.56 253.49 246.53 255.60
  C 249.70 256.16 251.53 259.13 252.67 261.94
  A 0.94 0.93 -57.2 0 0 254.47 261.55
  L 254.16 253.73
  Q 254.14 253.22 253.66 253.39
  Q 251.37 254.17 249.08 253.63
  Q 240.87 251.71 236.33 256.49
  C 231.47 261.61 231.17 270.75 236.95 275.48
  C 242.66 280.16 250.44 278.83 255.01 273.14
  A 0.73 0.73 0.0 0 0 254.17 272.01
  C 252.07 272.87 249.97 274.46 248.10 275.03"
/>
<path stroke="#808080" vector-effect="non-scaling-stroke" d="
  M 412.3252 278.4176
  A 12.77 12.00 88.9 0 0 424.0778 265.4196
  A 12.77 12.00 88.9 0 0 411.8348 252.8824
  A 12.77 12.00 88.9 0 0 400.0822 265.8804
  A 12.77 12.00 88.9 0 0 412.3252 278.4176"
/>
<path stroke="#808080" vector-effect="non-scaling-stroke" d="
  M 108.57 265.14
  A 0.88 0.87 51.5 0 1 108.68 264.11
  C 111.55 260.98 110.97 256.67 107.23 254.71
  Q 105.35 253.72 104.00 253.75
  Q 97.45 253.89 90.92 253.29
  Q 89.79 253.18 90.48 254.08
  L 90.97 254.73
  A 0.55 0.49 -7.6 0 0 91.24 254.91
  Q 92.58 255.24 93.61 256.13
  Q 94.07 256.52 94.07 257.13
  Q 94.09 264.68 94.10 272.26
  Q 94.11 275.90 90.81 276.40
  A 0.73 0.73 0.0 0 0 90.92 277.86
  Q 96.00 277.86 101.21 277.89
  C 104.50 277.92 107.63 277.41 109.83 275.36
  Q 113.29 272.12 111.00 268.10
  C 110.45 267.14 109.23 266.29 108.57 265.14"
/>
<path stroke="#808080" vector-effect="non-scaling-stroke" d="
  M 179.43 257.01
  Q 179.26 263.22 179.21 269.41
  C 179.20 271.82 178.74 273.76 176.55 274.73
  Q 171.81 276.84 169.47 273.80
  Q 168.21 272.17 168.28 268.48
  Q 168.38 262.77 168.18 256.97
  A 0.44 0.43 70.9 0 1 168.34 256.63
  L 171.12 254.32
  A 0.64 0.64 0.0 0 0 170.57 253.21
  Q 165.81 254.25 161.07 253.26
  Q 160.67 253.17 160.48 253.53
  Q 159.91 254.63 160.94 255.11
  Q 162.32 255.75 163.10 256.52
  Q 163.49 256.90 163.45 257.44
  C 163.16 262.04 162.33 271.40 165.12 275.05
  C 168.87 279.95 177.56 279.28 180.88 274.38
  C 183.28 270.83 182.22 261.32 182.20 256.96
  A 1.00 0.98 75.8 0 1 182.71 256.09
  L 185.26 254.70
  A 0.56 0.56 0.0 0 0 185.22 253.69
  L 184.77 253.49
  A 1.63 1.59 -36.3 0 0 183.91 253.37
  Q 180.29 253.91 176.98 253.46
  A 0.80 0.80 0.0 0 0 176.52 254.98
  L 178.91 256.14
  Q 179.45 256.41 179.43 257.01"
/>
<path stroke="#808080" vector-effect="non-scaling-stroke" d="
  M 202.06 263.29
  Q 201.69 259.57 204.02 262.49
  L 216.31 277.92
  A 1.05 1.05 0.0 0 0 218.18 277.26
  L 218.03 257.20
  Q 218.02 256.68 218.46 256.39
  L 221.15 254.62
  A 0.58 0.58 0.0 0 0 221.09 253.61
  L 220.62 253.37
  A 1.15 1.11 -38.7 0 0 219.80 253.29
  Q 216.26 254.20 212.71 253.28
  A 0.74 0.73 67.3 0 0 212.16 254.63
  L 214.77 256.16
  A 0.94 0.91 15.3 0 1 215.24 256.96
  L 215.31 267.54
  A 0.64 0.63 -64.1 0 1 214.17 267.94
  Q 209.60 261.98 205.11 256.39
  C 202.73 253.43 200.19 253.01 196.66 253.44
  A 0.62 0.62 0.0 0 0 196.37 254.55
  L 198.83 256.36
  Q 199.29 256.70 199.30 257.28
  Q 199.41 264.64 199.28 272.00
  Q 199.22 275.38 196.25 276.84
  A 0.59 0.59 0.0 0 0 196.51 277.96
  L 205.02 277.94
  A 0.51 0.50 62.2 0 0 205.30 277.02
  C 200.34 273.58 202.55 268.14 202.06 263.29"
/>
<path stroke="#808080" vector-effect="non-scaling-stroke" d="
  M 274.11 266.43
  Q 279.30 265.28 282.40 269.16
  A 1.15 1.15 0.0 0 0 284.37 268.04
  Q 282.89 264.04 284.89 260.15
  C 285.99 258.01 286.04 256.55 285.78 254.34
  Q 285.71 253.71 285.07 253.70
  L 265.85 253.54
  A 0.41 0.40 82.5 0 0 265.46 254.06
  Q 265.56 254.39 266.13 254.55
  C 268.01 255.08 269.13 256.10 269.13 258.21
  Q 269.13 265.42 269.02 272.66
  C 268.99 274.65 268.08 275.92 266.31 276.58
  A 0.70 0.70 0.0 0 0 266.56 277.94
  L 284.48 277.93
  A 1.79 1.78 -80.7 0 0 286.17 276.71
  Q 287.10 273.94 287.04 271.04
  A 0.90 0.90 0.0 0 0 285.27 270.81
  C 283.80 275.77 278.81 275.36 274.69 275.16
  A 1.47 1.47 0.0 0 1 273.29 273.64
  L 273.49 267.17
  Q 273.51 266.56 274.11 266.43"
/>
<path stroke="#808080" vector-effect="non-scaling-stroke" d="
  M 318.02 256.23
  L 320.59 254.85
  A 0.86 0.86 0.0 0 0 320.01 253.25
  Q 315.38 254.14 310.66 253.41
  Q 310.10 253.33 309.78 253.51
  Q 309.39 253.74 309.30 254.21
  Q 309.21 254.64 309.61 254.82
  L 312.24 256.06
  A 0.89 0.88 -77.3 0 1 312.75 256.88
  Q 312.59 264.55 312.72 272.24
  C 312.76 274.43 311.63 275.86 309.73 276.58
  A 0.67 0.67 0.0 0 0 309.97 277.88
  L 319.58 277.94
  A 1.00 1.00 0.0 0 0 319.88 275.98
  C 316.98 275.08 317.64 273.49 317.57 271.19
  Q 317.34 264.06 317.60 256.92
  A 0.81 0.80 76.7 0 1 318.02 256.23"
/>
<path stroke="#808080" vector-effect="non-scaling-stroke" d="
  M 337.54 261.21
  A 0.47 0.47 0.0 0 1 338.38 260.92
  L 352.12 278.42
  A 0.77 0.77 0.0 0 0 353.50 277.95
  L 353.55 257.02
  Q 353.55 256.46 354.05 256.19
  L 356.25 255.02
  Q 356.76 254.75 356.79 254.17
  L 356.81 253.85
  Q 356.84 253.25 356.24 253.33
  Q 352.33 253.90 348.44 253.41
  Q 347.90 253.35 347.62 253.52
  Q 347.27 253.74 347.21 254.16
  A 0.62 0.62 0.0 0 0 347.60 254.84
  L 350.39 255.89
  A 0.82 0.81 -79.5 0 1 350.91 256.65
  L 350.91 267.97
  A 0.68 0.68 0.0 0 1 349.67 268.36
  Q 345.80 262.81 341.44 257.43
  Q 339.18 254.64 337.27 253.87
  Q 334.62 252.81 331.57 253.67
  A 0.53 0.53 0.0 0 0 331.46 254.64
  L 334.42 256.28
  Q 335.00 256.61 335.00 257.28
  Q 335.00 264.61 334.96 271.97
  C 334.94 274.34 334.20 275.86 331.90 276.45
  Q 330.81 276.74 331.56 277.68
  A 0.87 0.86 70.3 0 0 332.23 278.00
  L 340.16 277.99
  A 0.80 0.80 0.0 0 0 340.55 276.49
  L 338.11 275.12
  A 1.09 1.09 0.0 0 1 337.55 274.17
  L 337.54 261.21"
/>
<path stroke="#808080" vector-effect="non-scaling-stroke" d="
  M 375.60 256.42
  Q 376.38 264.76 375.72 273.15
  C 375.59 274.75 374.75 275.94 373.26 276.36
  A 0.77 0.76 37.1 0 0 373.47 277.86
  L 382.88 277.89
  A 0.73 0.73 0.0 0 0 383.03 276.45
  C 380.97 276.04 380.30 274.33 380.27 272.29
  Q 380.15 264.89 380.30 257.36
  A 1.75 1.75 0.0 0 1 382.56 255.73
  Q 386.01 256.79 387.10 260.36
  A 0.95 0.95 0.0 0 0 388.96 260.02
  L 388.59 254.22
  A 0.68 0.68 0.0 0 0 387.89 253.58
  Q 379.82 253.78 371.75 253.51
  Q 370.19 253.45 367.91 254.08
  Q 367.39 254.22 367.37 254.76
  L 367.22 259.96
  A 1.05 1.04 52.7 0 0 369.28 260.24
  Q 370.31 255.94 374.72 255.67
  A 0.83 0.83 0.0 0 1 375.60 256.42"
/>
<path stroke="#808080" vector-effect="non-scaling-stroke" d="
  M 262.43 310.78
  A 5.15 5.15 0.0 0 0 257.28 305.63
  A 5.15 5.15 0.0 0 0 252.13 310.78
  A 5.15 5.15 0.0 0 0 257.28 315.93
  A 5.15 5.15 0.0 0 0 262.43 310.78"
/>
<path stroke="#808080" vector-effect="non-scaling-stroke" d="
  M 373.92 326.69
  C 365.11 342.01 347.20 318.72 360.66 313.83
  C 363.66 312.73 367.01 315.77 368.60 314.87
  A 0.61 0.61 0.0 0 0 368.76 313.94
  L 364.13 308.64
  Q 363.81 308.27 363.41 308.56
  Q 361.75 309.75 356.48 313.24
  Q 352.63 315.79 351.88 320.45
  C 350.81 327.11 355.60 334.33 362.39 335.53
  C 370.21 336.92 376.44 330.62 377.38 323.06
  Q 377.46 322.48 376.87 322.41
  L 375.37 322.25
  Q 374.75 322.18 374.73 322.81
  Q 374.67 325.38 373.92 326.69"
/>
<path stroke="#808080" vector-effect="non-scaling-stroke" d="
  M 150.22 313.89
  L 152.88 315.30
  A 1.30 1.30 0.0 0 1 153.25 317.30
  Q 148.12 323.26 143.15 329.14
  Q 140.76 331.97 138.21 329.70
  Q 137.86 329.39 137.57 329.76
  Q 137.00 330.49 137.64 331.08
  Q 141.03 334.18 145.34 337.61
  A 0.54 0.53 -79.4 0 0 146.18 337.03
  L 145.32 334.15
  A 1.03 1.02 57.2 0 1 145.53 333.17
  L 156.67 320.37
  Q 157.13 319.85 157.74 320.17
  Q 162.18 322.54 159.56 327.24
  A 0.87 0.87 0.0 0 0 161.00 328.21
  L 164.75 323.61
  A 0.67 0.67 0.0 0 0 164.67 322.69
  L 150.10 309.80
  Q 149.62 309.37 149.14 309.81
  L 144.54 314.04
  A 0.61 0.61 0.0 0 0 144.93 315.09
  Q 147.29 315.18 149.24 313.93
  Q 149.72 313.63 150.22 313.89"
/>
<path stroke="#808080" vector-effect="non-scaling-stroke" d="
  M 339.28 329.23
  L 341.17 327.42
  A 0.62 0.62 0.0 0 0 341.06 326.44
  Q 340.95 326.38 340.83 326.34
  Q 340.44 326.21 339.87 326.48
  Q 335.62 328.49 331.17 331.51
  A 0.50 0.50 0.0 0 0 331.43 332.43
  L 334.60 332.57
  Q 335.32 332.60 335.68 333.22
  L 344.12 347.52
  A 0.93 0.93 0.0 0 1 344.13 348.43
  L 342.28 351.76
  A 0.44 0.44 0.0 0 0 342.87 352.36
  Q 347.10 350.07 351.55 347.58
  Q 352.81 346.88 352.65 345.73
  A 0.71 0.71 0.0 0 0 351.53 345.25
  Q 349.39 346.83 347.94 344.40
  Q 343.64 337.21 339.17 330.13
  Q 338.86 329.64 339.28 329.23"
/>
<path stroke="#808080" vector-effect="non-scaling-stroke" d="
  M 179.13 346.55
  Q 178.30 350.85 174.97 353.65
  A 0.95 0.93 27.9 0 1 174.25 353.86
  L 171.48 353.53
  Q 170.38 353.39 171.33 353.95
  L 181.39 359.83
  A 0.53 0.53 0.0 0 0 182.13 359.13
  L 180.45 355.85
  Q 180.18 355.32 180.47 354.81
  Q 183.92 348.75 187.06 342.49
  C 188.26 340.10 189.55 338.67 192.32 339.29
  A 0.58 0.58 0.0 0 0 192.72 338.22
  L 183.17 333.13
  A 0.54 0.54 0.0 0 0 182.51 333.95
  L 184.31 336.11
  A 1.00 0.98 37.9 0 1 184.45 337.17
  L 181.57 343.35
  Q 181.23 344.07 180.53 343.68
  L 173.21 339.68
  A 0.81 0.80 -59.5 0 1 172.92 338.55
  L 176.32 333.11
  A 0.81 0.79 -74.5 0 1 176.98 332.73
  L 179.63 332.64
  A 0.60 0.60 0.0 0 0 179.90 331.52
  L 171.16 326.73
  A 0.54 0.54 0.0 0 0 170.44 327.50
  L 172.04 330.03
  A 0.72 0.71 -47.2 0 1 172.06 330.75
  L 163.79 346.11
  A 0.86 0.85 5.9 0 1 163.27 346.53
  L 160.37 347.33
  A 0.50 0.49 -38.4 0 0 160.26 348.24
  L 169.45 353.31
  A 0.25 0.25 0.0 0 0 169.76 352.93
  C 166.49 349.27 169.14 345.76 171.21 342.48
  A 1.02 1.01 -58.9 0 1 172.57 342.14
  L 178.72 345.66
  Q 179.24 345.96 179.13 346.55"
/>
<path stroke="#808080" vector-effect="non-scaling-stroke" d="
  M 320.95 352.92
  C 327.38 353.84 323.98 361.38 318.65 360.03
  C 316.79 359.55 314.84 357.54 312.84 356.49
  A 0.51 0.51 0.0 0 0 312.14 357.17
  L 315.56 364.11
  Q 315.81 364.61 316.30 364.37
  C 319.61 362.77 324.07 362.26 326.44 359.98
  Q 329.96 356.58 327.81 351.84
  C 324.80 345.18 312.99 349.96 311.94 343.63
  A 0.97 0.94 61.4 0 1 312.15 342.86
  C 316.04 338.33 319.14 342.71 322.69 344.43
  A 0.60 0.60 0.0 0 0 323.49 343.62
  L 320.34 337.25
  Q 320.06 336.68 319.45 336.86
  C 314.28 338.37 305.21 341.00 309.17 348.35
  C 310.76 351.31 316.64 352.31 320.95 352.92"
/>
<path stroke="#808080" vector-effect="non-scaling-stroke" d="
  M 203.66 355.79
  Q 209.03 355.62 210.58 360.50
  A 0.90 0.89 42.0 0 0 212.31 360.41
  Q 212.99 357.10 214.29 354.36
  C 215.39 352.04 217.61 351.06 218.53 347.84
  A 1.16 1.15 16.7 0 0 217.77 346.43
  L 199.77 340.61
  A 0.21 0.21 0.0 0 0 199.52 340.92
  L 201.61 344.58
  A 1.01 1.00 39.8 0 1 201.69 345.39
  L 196.16 361.64
  A 0.87 0.87 0.0 0 1 195.47 362.22
  L 193.17 362.60
  A 0.72 0.72 0.0 0 0 193.08 364.00
  Q 200.90 366.34 208.67 369.04
  C 211.92 370.17 214.26 366.20 214.77 363.79
  A 0.74 0.74 0.0 0 0 213.57 363.07
  C 211.95 364.42 210.32 365.86 208.05 365.67
  Q 204.55 365.37 201.27 363.61
  A 0.80 0.79 23.5 0 1 200.89 362.66
  L 202.98 356.30
  Q 203.14 355.80 203.66 355.79"
/>
<path stroke="#808080" vector-effect="non-scaling-stroke" d="
  M 295.73 347.38
  L 297.90 345.84
  A 0.63 0.63 0.0 0 0 297.39 344.72
  L 289.28 346.67
  A 0.69 0.69 0.0 0 0 289.17 347.98
  L 291.67 349.03
  Q 292.20 349.26 292.37 349.81
  Q 295.32 359.42 295.44 363.35
  C 295.57 367.84 289.68 370.53 286.59 368.12
  C 283.85 365.99 282.67 357.07 281.82 353.50
  Q 281.43 351.90 283.75 348.66
  A 0.57 0.56 -82.3 0 0 283.10 347.80
  Q 278.56 349.50 273.73 349.84
  A 0.55 0.55 0.0 0 0 273.57 350.90
  C 282.35 354.36 274.81 372.50 288.46 371.64
  C 303.76 370.68 296.84 356.98 295.32 348.37
  Q 295.21 347.75 295.73 347.38"
/>
<path stroke="#808080" vector-effect="non-scaling-stroke" d="
  M 242.99 358.29
  L 249.37 373.39
  A 1.18 1.18 0.0 0 0 251.52 373.45
  L 258.49 359.12
  A 0.77 0.77 0.0 0 1 259.95 359.50
  L 259.27 370.93
  A 0.86 0.85 -15.6 0 1 258.89 371.60
  L 256.23 373.37
  A 0.76 0.76 0.0 0 0 256.62 374.77
  L 265.35 375.15
  A 0.83 0.83 0.0 0 0 265.89 373.66
  C 264.13 372.33 263.76 371.19 263.87 368.89
  Q 264.19 361.94 264.00 354.87
  A 0.91 0.87 -22.2 0 1 264.31 354.18
  L 267.63 351.33
  A 0.35 0.35 0.0 0 0 267.49 350.73
  C 265.98 350.33 263.93 350.54 262.38 350.45
  Q 259.69 350.31 258.58 352.79
  C 256.52 357.37 254.19 361.65 252.37 366.24
  A 0.54 0.54 0.0 0 1 251.37 366.25
  L 244.94 350.87
  A 1.51 1.51 0.0 0 0 243.64 349.94
  L 237.49 349.53
  A 0.47 0.47 0.0 0 0 237.16 350.36
  C 239.10 351.92 239.81 352.47 239.78 355.20
  Q 239.68 362.97 239.43 370.85
  A 0.92 0.91 83.2 0 1 238.76 371.71
  L 235.96 372.48
  A 0.53 0.53 0.0 0 0 235.59 373.13
  Q 235.84 373.99 236.80 373.96
  Q 240.93 373.81 244.54 374.50
  A 0.77 0.76 64.9 0 0 245.05 373.08
  L 242.49 371.63
  A 0.91 0.89 15.0 0 1 242.03 370.85
  L 242.10 358.46
  A 0.46 0.46 0.0 0 1 242.99 358.29"
/>
<path stroke="#808080" vector-effect="non-scaling-stroke" d="
  M 132.18 120.43
  C 129.89 120.82 121.47 121.76 120.25 118.95
  Q 115.63 108.30 105.11 105.67
  C 95.62 103.30 81.86 106.31 79.37 117.73
  C 77.89 124.58 84.93 128.46 90.80 130.93
  Q 103.97 136.45 117.29 141.62
  Q 124.94 144.59 132.38 148.93
  A 0.49 0.49 0.0 0 0 133.11 148.51
  L 133.12 121.22
  A 0.80 0.80 0.0 0 0 132.18 120.43"
/>
<path stroke="#808080" vector-effect="non-scaling-stroke" d="
  M 137.0243 275.8099
  A 10.23 7.10 90.2 0 0 144.1600 265.6048
  A 10.23 7.10 90.2 0 0 137.0957 255.3501
  A 10.23 7.10 90.2 0 0 129.9600 265.5552
  A 10.23 7.10 90.2 0 0 137.0243 275.8099"
/>
<path stroke="#808080" vector-effect="non-scaling-stroke" d="
  M 412.0221 275.8200
  A 10.23 7.06 90.1 0 0 419.1000 265.6023
  A 10.23 7.06 90.1 0 0 412.0579 255.3600
  A 10.23 7.06 90.1 0 0 404.9800 265.5777
  A 10.23 7.06 90.1 0 0 412.0221 275.8200"
/>
<path stroke="#808080" vector-effect="non-scaling-stroke" d="
  M 98.63 256.97
  L 98.42 262.53
  A 1.08 1.08 0.0 0 0 99.45 263.65
  L 100.64 263.69
  A 5.17 3.26 2.2 0 0 105.93 260.63
  L 105.98 259.43
  A 5.17 3.26 2.2 0 0 100.94 255.98
  L 99.75 255.93
  A 1.08 1.08 0.0 0 0 98.63 256.97"
/>
<path stroke="#808080" vector-effect="non-scaling-stroke" d="
  M 98.53 267.88
  L 98.45 273.72
  A 1.46 1.46 0.0 0 0 99.89 275.20
  L 101.64 275.23
  A 5.03 4.08 0.8 0 0 106.73 271.22
  L 106.73 270.62
  A 5.03 4.08 0.8 0 0 101.76 266.47
  L 100.01 266.44
  A 1.46 1.46 0.0 0 0 98.53 267.88"
/>
<path stroke="#808080" vector-effect="non-scaling-stroke" d="
  M 273.46 257.23
  L 273.38 262.17
  A 1.50 1.50 0.0 0 0 274.85 263.69
  L 276.21 263.72
  A 7.58 3.80 1.0 0 0 283.86 260.05
  L 283.86 259.71
  A 7.58 3.80 1.0 0 0 276.35 255.78
  L 274.99 255.76
  A 1.50 1.50 0.0 0 0 273.46 257.23"
/>
<path stroke="#808080" vector-effect="non-scaling-stroke" d="
  M 205.62 347.06
  L 204.62 351.82
  A 1.49 1.49 0.0 0 0 205.77 353.58
  L 208.63 354.19
  A 5.19 3.77 11.9 0 0 214.49 351.57
  L 214.55 351.27
  A 5.19 3.77 11.9 0 0 210.25 346.51
  L 207.39 345.91
  A 1.49 1.49 0.0 0 0 205.62 347.06"
/>
</g>
<path fill="#000000" d="
  M 0.00 0.00
  L 514.00 0.00
  L 514.00 514.00
  L 0.00 514.00
  L 0.00 0.00
  Z
  M 323.63 70.46
  A 1.14 1.14 0.0 0 0 324.49 72.21
  C 327.86 72.51 338.34 73.31 341.01 70.75
  Q 353.82 58.43 367.23 45.76
  A 1.15 1.15 0.0 0 0 366.46 43.78
  Q 355.93 43.60 344.90 43.77
  C 342.00 43.82 340.25 44.71 338.75 47.03
  Q 331.41 58.32 323.63 70.46
  Z
  M 240.73 125.48
  Q 240.72 122.82 242.46 124.82
  L 257.13 141.71
  A 1.66 1.66 0.0 0 0 259.60 141.75
  L 276.33 123.74
  A 0.56 0.56 0.0 0 1 277.30 124.12
  L 277.13 164.53
  A 0.78 0.77 -23.8 0 0 278.48 165.05
  Q 289.59 152.85 300.66 140.95
  C 302.71 138.74 302.94 137.92 302.95 135.00
  Q 303.01 108.37 302.91 80.63
  Q 302.91 79.41 301.69 79.40
  Q 291.63 79.27 280.75 79.25
  Q 277.45 79.25 274.90 82.64
  Q 266.95 93.22 259.33 103.67
  A 1.13 1.13 0.0 0 1 257.49 103.65
  Q 249.92 92.70 242.32 81.95
  Q 240.43 79.28 238.01 79.28
  Q 226.49 79.32 215.76 79.45
  A 1.54 1.54 0.0 0 0 214.24 80.99
  L 214.23 136.51
  A 4.67 4.66 -66.5 0 0 215.47 139.68
  L 239.69 165.89
  Q 240.83 167.12 240.83 165.44
  L 240.73 125.48
  Z
  M 372.90 96.99
  L 373.00 82.55
  Q 373.02 79.36 369.83 79.36
  L 307.04 79.37
  Q 306.69 79.37 306.69 79.71
  L 306.76 100.54
  A 0.79 0.78 90.0 0 0 307.54 101.33
  L 370.00 101.29
  A 0.59 0.58 -74.8 0 1 370.50 102.17
  C 367.29 107.75 367.10 112.06 366.96 118.41
  Q 366.92 120.01 369.00 120.05
  Q 379.55 120.27 391.59 120.12
  A 2.94 2.94 0.0 0 0 394.15 118.56
  C 395.69 115.64 397.19 112.66 399.78 110.49
  Q 412.04 100.21 426.54 106.75
  C 431.82 109.13 434.84 113.07 435.37 118.71
  C 435.97 125.13 426.89 129.32 422.09 131.23
  C 412.42 135.08 402.79 139.12 393.06 142.80
  C 380.40 147.59 367.80 156.81 366.93 171.24
  Q 366.28 182.02 370.14 191.21
  Q 370.62 192.36 369.38 192.36
  Q 338.14 192.44 308.50 192.48
  Q 306.59 192.48 304.72 191.95
  Q 304.21 191.81 304.09 191.30
  Q 303.79 190.04 303.78 188.75
  Q 303.62 170.76 303.98 152.96
  A 0.51 0.51 0.0 0 0 303.10 152.60
  L 277.21 180.67
  A 2.72 2.69 66.4 0 0 276.51 182.49
  L 276.56 211.78
  Q 276.56 214.74 279.53 214.74
  L 371.00 214.73
  A 1.84 1.83 -88.3 0 0 372.83 213.00
  Q 373.20 206.75 372.85 200.47
  Q 372.62 196.45 375.01 199.69
  C 382.50 209.83 395.24 213.48 407.25 214.53
  C 433.14 216.80 465.05 205.15 462.15 173.39
  A 1.48 1.48 0.0 0 0 460.68 172.05
  L 437.12 172.01
  A 1.84 1.84 0.0 0 0 435.28 173.94
  Q 435.57 179.43 430.89 183.22
  Q 415.04 196.05 399.97 183.94
  C 394.68 179.68 390.62 170.75 398.16 166.34
  C 400.80 164.80 403.40 163.01 406.32 161.91
  Q 428.93 153.34 437.21 149.71
  C 455.60 141.66 467.31 128.92 460.51 107.45
  C 453.35 84.80 425.16 76.16 404.11 80.76
  Q 386.96 84.50 373.76 97.36
  Q 372.89 98.21 372.90 96.99
  Z
  M 213.98 177.82
  L 213.96 212.37
  A 2.36 2.35 90.0 0 0 216.31 214.73
  L 238.45 214.74
  A 2.01 2.01 0.0 0 0 240.46 212.74
  L 240.51 182.51
  A 3.20 3.16 -66.6 0 0 239.67 180.35
  L 210.20 148.38
  A 2.90 2.90 0.0 0 0 208.08 147.46
  L 181.48 147.51
  A 1.75 1.75 0.0 0 1 179.72 145.84
  C 179.42 139.17 178.75 130.78 181.23 124.63
  Q 183.99 117.75 189.38 112.33
  C 197.53 104.13 204.75 110.48 209.81 117.74
  A 0.47 0.47 0.0 0 0 210.66 117.47
  Q 210.39 101.42 210.51 85.56
  C 210.52 84.15 209.84 82.91 208.63 82.35
  Q 198.14 77.49 188.63 80.94
  C 179.25 84.35 168.41 94.88 162.04 103.79
  A 3.37 3.36 -27.3 0 0 161.41 105.75
  Q 161.43 157.09 161.41 208.92
  C 161.41 210.62 160.99 212.38 160.72 214.15
  A 0.53 0.52 4.2 0 0 161.24 214.75
  L 177.45 214.73
  Q 179.68 214.73 179.68 212.50
  L 179.65 177.53
  A 1.57 1.56 -0.2 0 1 181.22 175.96
  L 212.07 175.91
  Q 213.98 175.90 213.98 177.82
  Z
  M 133.27 207.60
  C 132.93 210.64 132.54 214.92 137.18 214.98
  Q 144.25 215.08 151.35 214.97
  C 154.96 214.92 157.50 215.38 157.50 211.00
  Q 157.48 147.48 157.54 84.50
  Q 157.54 80.09 153.13 80.01
  Q 145.90 79.90 138.24 80.03
  C 131.61 80.15 133.32 84.78 133.30 89.29
  Q 133.29 91.51 131.44 90.29
  Q 110.51 76.39 87.10 81.38
  C 77.97 83.32 68.49 87.84 62.10 94.36
  C 52.11 104.54 47.86 124.23 57.70 136.29
  Q 64.90 145.11 76.19 149.89
  Q 88.88 155.26 101.89 159.78
  Q 109.23 162.33 115.84 166.33
  Q 121.71 169.88 119.77 176.66
  Q 118.33 181.66 115.45 183.98
  Q 99.74 196.60 83.86 183.58
  Q 81.59 181.72 80.42 179.69
  C 79.35 177.84 79.75 175.10 78.19 172.93
  A 1.11 1.09 -17.3 0 0 77.32 172.48
  Q 67.57 172.43 57.82 172.51
  C 56.03 172.53 54.23 172.30 52.64 173.35
  A 1.15 1.14 75.3 0 0 52.14 174.22
  Q 50.85 196.47 69.75 207.54
  C 83.30 215.47 96.41 215.82 111.01 214.57
  Q 122.63 213.58 132.53 207.14
  A 0.48 0.48 0.0 0 1 133.27 207.60
  Z
  M 354.75 126.61
  A 1.17 1.17 0.0 0 0 353.58 125.44
  L 307.84 125.44
  A 1.17 1.17 0.0 0 0 306.67 126.61
  L 306.67 147.51
  A 1.17 1.17 0.0 0 0 307.84 148.68
  L 353.58 148.68
  A 1.17 1.17 0.0 0 0 354.75 147.51
  L 354.75 126.61
  Z
  M 352.02 234.60
  A 2.35 2.35 0.0 0 0 349.67 232.25
  L 164.91 232.25
  A 2.35 2.35 0.0 0 0 162.56 234.60
  L 162.56 234.64
  A 2.35 2.35 0.0 0 0 164.91 236.99
  L 349.67 236.99
  A 2.35 2.35 0.0 0 0 352.02 234.64
  L 352.02 234.60
  Z
  M 137.2872 278.4172
  A 12.76 11.96 88.8 0 0 148.9774 265.4095
  A 12.76 11.96 88.8 0 0 136.7528 252.9028
  A 12.76 11.96 88.8 0 0 125.0626 265.9105
  A 12.76 11.96 88.8 0 0 137.2872 278.4172
  Z
  M 248.10 275.03
  C 234.61 279.20 234.56 253.49 246.53 255.60
  C 249.70 256.16 251.53 259.13 252.67 261.94
  A 0.94 0.93 -57.2 0 0 254.47 261.55
  L 254.16 253.73
  Q 254.14 253.22 253.66 253.39
  Q 251.37 254.17 249.08 253.63
  Q 240.87 251.71 236.33 256.49
  C 231.47 261.61 231.17 270.75 236.95 275.48
  C 242.66 280.16 250.44 278.83 255.01 273.14
  A 0.73 0.73 0.0 0 0 254.17 272.01
  C 252.07 272.87 249.97 274.46 248.10 275.03
  Z
  M 412.3252 278.4176
  A 12.77 12.00 88.9 0 0 424.0778 265.4196
  A 12.77 12.00 88.9 0 0 411.8348 252.8824
  A 12.77 12.00 88.9 0 0 400.0822 265.8804
  A 12.77 12.00 88.9 0 0 412.3252 278.4176
  Z
  M 108.57 265.14
  A 0.88 0.87 51.5 0 1 108.68 264.11
  C 111.55 260.98 110.97 256.67 107.23 254.71
  Q 105.35 253.72 104.00 253.75
  Q 97.45 253.89 90.92 253.29
  Q 89.79 253.18 90.48 254.08
  L 90.97 254.73
  A 0.55 0.49 -7.6 0 0 91.24 254.91
  Q 92.58 255.24 93.61 256.13
  Q 94.07 256.52 94.07 257.13
  Q 94.09 264.68 94.10 272.26
  Q 94.11 275.90 90.81 276.40
  A 0.73 0.73 0.0 0 0 90.92 277.86
  Q 96.00 277.86 101.21 277.89
  C 104.50 277.92 107.63 277.41 109.83 275.36
  Q 113.29 272.12 111.00 268.10
  C 110.45 267.14 109.23 266.29 108.57 265.14
  Z
  M 179.43 257.01
  Q 179.26 263.22 179.21 269.41
  C 179.20 271.82 178.74 273.76 176.55 274.73
  Q 171.81 276.84 169.47 273.80
  Q 168.21 272.17 168.28 268.48
  Q 168.38 262.77 168.18 256.97
  A 0.44 0.43 70.9 0 1 168.34 256.63
  L 171.12 254.32
  A 0.64 0.64 0.0 0 0 170.57 253.21
  Q 165.81 254.25 161.07 253.26
  Q 160.67 253.17 160.48 253.53
  Q 159.91 254.63 160.94 255.11
  Q 162.32 255.75 163.10 256.52
  Q 163.49 256.90 163.45 257.44
  C 163.16 262.04 162.33 271.40 165.12 275.05
  C 168.87 279.95 177.56 279.28 180.88 274.38
  C 183.28 270.83 182.22 261.32 182.20 256.96
  A 1.00 0.98 75.8 0 1 182.71 256.09
  L 185.26 254.70
  A 0.56 0.56 0.0 0 0 185.22 253.69
  L 184.77 253.49
  A 1.63 1.59 -36.3 0 0 183.91 253.37
  Q 180.29 253.91 176.98 253.46
  A 0.80 0.80 0.0 0 0 176.52 254.98
  L 178.91 256.14
  Q 179.45 256.41 179.43 257.01
  Z
  M 202.06 263.29
  Q 201.69 259.57 204.02 262.49
  L 216.31 277.92
  A 1.05 1.05 0.0 0 0 218.18 277.26
  L 218.03 257.20
  Q 218.02 256.68 218.46 256.39
  L 221.15 254.62
  A 0.58 0.58 0.0 0 0 221.09 253.61
  L 220.62 253.37
  A 1.15 1.11 -38.7 0 0 219.80 253.29
  Q 216.26 254.20 212.71 253.28
  A 0.74 0.73 67.3 0 0 212.16 254.63
  L 214.77 256.16
  A 0.94 0.91 15.3 0 1 215.24 256.96
  L 215.31 267.54
  A 0.64 0.63 -64.1 0 1 214.17 267.94
  Q 209.60 261.98 205.11 256.39
  C 202.73 253.43 200.19 253.01 196.66 253.44
  A 0.62 0.62 0.0 0 0 196.37 254.55
  L 198.83 256.36
  Q 199.29 256.70 199.30 257.28
  Q 199.41 264.64 199.28 272.00
  Q 199.22 275.38 196.25 276.84
  A 0.59 0.59 0.0 0 0 196.51 277.96
  L 205.02 277.94
  A 0.51 0.50 62.2 0 0 205.30 277.02
  C 200.34 273.58 202.55 268.14 202.06 263.29
  Z
  M 274.11 266.43
  Q 279.30 265.28 282.40 269.16
  A 1.15 1.15 0.0 0 0 284.37 268.04
  Q 282.89 264.04 284.89 260.15
  C 285.99 258.01 286.04 256.55 285.78 254.34
  Q 285.71 253.71 285.07 253.70
  L 265.85 253.54
  A 0.41 0.40 82.5 0 0 265.46 254.06
  Q 265.56 254.39 266.13 254.55
  C 268.01 255.08 269.13 256.10 269.13 258.21
  Q 269.13 265.42 269.02 272.66
  C 268.99 274.65 268.08 275.92 266.31 276.58
  A 0.70 0.70 0.0 0 0 266.56 277.94
  L 284.48 277.93
  A 1.79 1.78 -80.7 0 0 286.17 276.71
  Q 287.10 273.94 287.04 271.04
  A 0.90 0.90 0.0 0 0 285.27 270.81
  C 283.80 275.77 278.81 275.36 274.69 275.16
  A 1.47 1.47 0.0 0 1 273.29 273.64
  L 273.49 267.17
  Q 273.51 266.56 274.11 266.43
  Z
  M 318.02 256.23
  L 320.59 254.85
  A 0.86 0.86 0.0 0 0 320.01 253.25
  Q 315.38 254.14 310.66 253.41
  Q 310.10 253.33 309.78 253.51
  Q 309.39 253.74 309.30 254.21
  Q 309.21 254.64 309.61 254.82
  L 312.24 256.06
  A 0.89 0.88 -77.3 0 1 312.75 256.88
  Q 312.59 264.55 312.72 272.24
  C 312.76 274.43 311.63 275.86 309.73 276.58
  A 0.67 0.67 0.0 0 0 309.97 277.88
  L 319.58 277.94
  A 1.00 1.00 0.0 0 0 319.88 275.98
  C 316.98 275.08 317.64 273.49 317.57 271.19
  Q 317.34 264.06 317.60 256.92
  A 0.81 0.80 76.7 0 1 318.02 256.23
  Z
  M 337.54 261.21
  A 0.47 0.47 0.0 0 1 338.38 260.92
  L 352.12 278.42
  A 0.77 0.77 0.0 0 0 353.50 277.95
  L 353.55 257.02
  Q 353.55 256.46 354.05 256.19
  L 356.25 255.02
  Q 356.76 254.75 356.79 254.17
  L 356.81 253.85
  Q 356.84 253.25 356.24 253.33
  Q 352.33 253.90 348.44 253.41
  Q 347.90 253.35 347.62 253.52
  Q 347.27 253.74 347.21 254.16
  A 0.62 0.62 0.0 0 0 347.60 254.84
  L 350.39 255.89
  A 0.82 0.81 -79.5 0 1 350.91 256.65
  L 350.91 267.97
  A 0.68 0.68 0.0 0 1 349.67 268.36
  Q 345.80 262.81 341.44 257.43
  Q 339.18 254.64 337.27 253.87
  Q 334.62 252.81 331.57 253.67
  A 0.53 0.53 0.0 0 0 331.46 254.64
  L 334.42 256.28
  Q 335.00 256.61 335.00 257.28
  Q 335.00 264.61 334.96 271.97
  C 334.94 274.34 334.20 275.86 331.90 276.45
  Q 330.81 276.74 331.56 277.68
  A 0.87 0.86 70.3 0 0 332.23 278.00
  L 340.16 277.99
  A 0.80 0.80 0.0 0 0 340.55 276.49
  L 338.11 275.12
  A 1.09 1.09 0.0 0 1 337.55 274.17
  L 337.54 261.21
  Z
  M 375.60 256.42
  Q 376.38 264.76 375.72 273.15
  C 375.59 274.75 374.75 275.94 373.26 276.36
  A 0.77 0.76 37.1 0 0 373.47 277.86
  L 382.88 277.89
  A 0.73 0.73 0.0 0 0 383.03 276.45
  C 380.97 276.04 380.30 274.33 380.27 272.29
  Q 380.15 264.89 380.30 257.36
  A 1.75 1.75 0.0 0 1 382.56 255.73
  Q 386.01 256.79 387.10 260.36
  A 0.95 0.95 0.0 0 0 388.96 260.02
  L 388.59 254.22
  A 0.68 0.68 0.0 0 0 387.89 253.58
  Q 379.82 253.78 371.75 253.51
  Q 370.19 253.45 367.91 254.08
  Q 367.39 254.22 367.37 254.76
  L 367.22 259.96
  A 1.05 1.04 52.7 0 0 369.28 260.24
  Q 370.31 255.94 374.72 255.67
  A 0.83 0.83 0.0 0 1 375.60 256.42
  Z
  M 262.43 310.78
  A 5.15 5.15 0.0 0 0 257.28 305.63
  A 5.15 5.15 0.0 0 0 252.13 310.78
  A 5.15 5.15 0.0 0 0 257.28 315.93
  A 5.15 5.15 0.0 0 0 262.43 310.78
  Z
  M 373.92 326.69
  C 365.11 342.01 347.20 318.72 360.66 313.83
  C 363.66 312.73 367.01 315.77 368.60 314.87
  A 0.61 0.61 0.0 0 0 368.76 313.94
  L 364.13 308.64
  Q 363.81 308.27 363.41 308.56
  Q 361.75 309.75 356.48 313.24
  Q 352.63 315.79 351.88 320.45
  C 350.81 327.11 355.60 334.33 362.39 335.53
  C 370.21 336.92 376.44 330.62 377.38 323.06
  Q 377.46 322.48 376.87 322.41
  L 375.37 322.25
  Q 374.75 322.18 374.73 322.81
  Q 374.67 325.38 373.92 326.69
  Z
  M 150.22 313.89
  L 152.88 315.30
  A 1.30 1.30 0.0 0 1 153.25 317.30
  Q 148.12 323.26 143.15 329.14
  Q 140.76 331.97 138.21 329.70
  Q 137.86 329.39 137.57 329.76
  Q 137.00 330.49 137.64 331.08
  Q 141.03 334.18 145.34 337.61
  A 0.54 0.53 -79.4 0 0 146.18 337.03
  L 145.32 334.15
  A 1.03 1.02 57.2 0 1 145.53 333.17
  L 156.67 320.37
  Q 157.13 319.85 157.74 320.17
  Q 162.18 322.54 159.56 327.24
  A 0.87 0.87 0.0 0 0 161.00 328.21
  L 164.75 323.61
  A 0.67 0.67 0.0 0 0 164.67 322.69
  L 150.10 309.80
  Q 149.62 309.37 149.14 309.81
  L 144.54 314.04
  A 0.61 0.61 0.0 0 0 144.93 315.09
  Q 147.29 315.18 149.24 313.93
  Q 149.72 313.63 150.22 313.89
  Z
  M 339.28 329.23
  L 341.17 327.42
  A 0.62 0.62 0.0 0 0 341.06 326.44
  Q 340.95 326.38 340.83 326.34
  Q 340.44 326.21 339.87 326.48
  Q 335.62 328.49 331.17 331.51
  A 0.50 0.50 0.0 0 0 331.43 332.43
  L 334.60 332.57
  Q 335.32 332.60 335.68 333.22
  L 344.12 347.52
  A 0.93 0.93 0.0 0 1 344.13 348.43
  L 342.28 351.76
  A 0.44 0.44 0.0 0 0 342.87 352.36
  Q 347.10 350.07 351.55 347.58
  Q 352.81 346.88 352.65 345.73
  A 0.71 0.71 0.0 0 0 351.53 345.25
  Q 349.39 346.83 347.94 344.40
  Q 343.64 337.21 339.17 330.13
  Q 338.86 329.64 339.28 329.23
  Z
  M 179.13 346.55
  Q 178.30 350.85 174.97 353.65
  A 0.95 0.93 27.9 0 1 174.25 353.86
  L 171.48 353.53
  Q 170.38 353.39 171.33 353.95
  L 181.39 359.83
  A 0.53 0.53 0.0 0 0 182.13 359.13
  L 180.45 355.85
  Q 180.18 355.32 180.47 354.81
  Q 183.92 348.75 187.06 342.49
  C 188.26 340.10 189.55 338.67 192.32 339.29
  A 0.58 0.58 0.0 0 0 192.72 338.22
  L 183.17 333.13
  A 0.54 0.54 0.0 0 0 182.51 333.95
  L 184.31 336.11
  A 1.00 0.98 37.9 0 1 184.45 337.17
  L 181.57 343.35
  Q 181.23 344.07 180.53 343.68
  L 173.21 339.68
  A 0.81 0.80 -59.5 0 1 172.92 338.55
  L 176.32 333.11
  A 0.81 0.79 -74.5 0 1 176.98 332.73
  L 179.63 332.64
  A 0.60 0.60 0.0 0 0 179.90 331.52
  L 171.16 326.73
  A 0.54 0.54 0.0 0 0 170.44 327.50
  L 172.04 330.03
  A 0.72 0.71 -47.2 0 1 172.06 330.75
  L 163.79 346.11
  A 0.86 0.85 5.9 0 1 163.27 346.53
  L 160.37 347.33
  A 0.50 0.49 -38.4 0 0 160.26 348.24
  L 169.45 353.31
  A 0.25 0.25 0.0 0 0 169.76 352.93
  C 166.49 349.27 169.14 345.76 171.21 342.48
  A 1.02 1.01 -58.9 0 1 172.57 342.14
  L 178.72 345.66
  Q 179.24 345.96 179.13 346.55
  Z
  M 320.95 352.92
  C 327.38 353.84 323.98 361.38 318.65 360.03
  C 316.79 359.55 314.84 357.54 312.84 356.49
  A 0.51 0.51 0.0 0 0 312.14 357.17
  L 315.56 364.11
  Q 315.81 364.61 316.30 364.37
  C 319.61 362.77 324.07 362.26 326.44 359.98
  Q 329.96 356.58 327.81 351.84
  C 324.80 345.18 312.99 349.96 311.94 343.63
  A 0.97 0.94 61.4 0 1 312.15 342.86
  C 316.04 338.33 319.14 342.71 322.69 344.43
  A 0.60 0.60 0.0 0 0 323.49 343.62
  L 320.34 337.25
  Q 320.06 336.68 319.45 336.86
  C 314.28 338.37 305.21 341.00 309.17 348.35
  C 310.76 351.31 316.64 352.31 320.95 352.92
  Z
  M 203.66 355.79
  Q 209.03 355.62 210.58 360.50
  A 0.90 0.89 42.0 0 0 212.31 360.41
  Q 212.99 357.10 214.29 354.36
  C 215.39 352.04 217.61 351.06 218.53 347.84
  A 1.16 1.15 16.7 0 0 217.77 346.43
  L 199.77 340.61
  A 0.21 0.21 0.0 0 0 199.52 340.92
  L 201.61 344.58
  A 1.01 1.00 39.8 0 1 201.69 345.39
  L 196.16 361.64
  A 0.87 0.87 0.0 0 1 195.47 362.22
  L 193.17 362.60
  A 0.72 0.72 0.0 0 0 193.08 364.00
  Q 200.90 366.34 208.67 369.04
  C 211.92 370.17 214.26 366.20 214.77 363.79
  A 0.74 0.74 0.0 0 0 213.57 363.07
  C 211.95 364.42 210.32 365.86 208.05 365.67
  Q 204.55 365.37 201.27 363.61
  A 0.80 0.79 23.5 0 1 200.89 362.66
  L 202.98 356.30
  Q 203.14 355.80 203.66 355.79
  Z
  M 295.73 347.38
  L 297.90 345.84
  A 0.63 0.63 0.0 0 0 297.39 344.72
  L 289.28 346.67
  A 0.69 0.69 0.0 0 0 289.17 347.98
  L 291.67 349.03
  Q 292.20 349.26 292.37 349.81
  Q 295.32 359.42 295.44 363.35
  C 295.57 367.84 289.68 370.53 286.59 368.12
  C 283.85 365.99 282.67 357.07 281.82 353.50
  Q 281.43 351.90 283.75 348.66
  A 0.57 0.56 -82.3 0 0 283.10 347.80
  Q 278.56 349.50 273.73 349.84
  A 0.55 0.55 0.0 0 0 273.57 350.90
  C 282.35 354.36 274.81 372.50 288.46 371.64
  C 303.76 370.68 296.84 356.98 295.32 348.37
  Q 295.21 347.75 295.73 347.38
  Z
  M 242.99 358.29
  L 249.37 373.39
  A 1.18 1.18 0.0 0 0 251.52 373.45
  L 258.49 359.12
  A 0.77 0.77 0.0 0 1 259.95 359.50
  L 259.27 370.93
  A 0.86 0.85 -15.6 0 1 258.89 371.60
  L 256.23 373.37
  A 0.76 0.76 0.0 0 0 256.62 374.77
  L 265.35 375.15
  A 0.83 0.83 0.0 0 0 265.89 373.66
  C 264.13 372.33 263.76 371.19 263.87 368.89
  Q 264.19 361.94 264.00 354.87
  A 0.91 0.87 -22.2 0 1 264.31 354.18
  L 267.63 351.33
  A 0.35 0.35 0.0 0 0 267.49 350.73
  C 265.98 350.33 263.93 350.54 262.38 350.45
  Q 259.69 350.31 258.58 352.79
  C 256.52 357.37 254.19 361.65 252.37 366.24
  A 0.54 0.54 0.0 0 1 251.37 366.25
  L 244.94 350.87
  A 1.51 1.51 0.0 0 0 243.64 349.94
  L 237.49 349.53
  A 0.47 0.47 0.0 0 0 237.16 350.36
  C 239.10 351.92 239.81 352.47 239.78 355.20
  Q 239.68 362.97 239.43 370.85
  A 0.92 0.91 83.2 0 1 238.76 371.71
  L 235.96 372.48
  A 0.53 0.53 0.0 0 0 235.59 373.13
  Q 235.84 373.99 236.80 373.96
  Q 240.93 373.81 244.54 374.50
  A 0.77 0.76 64.9 0 0 245.05 373.08
  L 242.49 371.63
  A 0.91 0.89 15.0 0 1 242.03 370.85
  L 242.10 358.46
  A 0.46 0.46 0.0 0 1 242.99 358.29
  Z"
/>
<path fill="#ffffff" d="
  M 323.63 70.46
  Q 331.41 58.32 338.75 47.03
  C 340.25 44.71 342.00 43.82 344.90 43.77
  Q 355.93 43.60 366.46 43.78
  A 1.15 1.15 0.0 0 1 367.23 45.76
  Q 353.82 58.43 341.01 70.75
  C 338.34 73.31 327.86 72.51 324.49 72.21
  A 1.14 1.14 0.0 0 1 323.63 70.46
  Z"
/>
<path fill="#ffffff" d="
  M 240.73 125.48
  L 240.83 165.44
  Q 240.83 167.12 239.69 165.89
  L 215.47 139.68
  A 4.67 4.66 -66.5 0 1 214.23 136.51
  L 214.24 80.99
  A 1.54 1.54 0.0 0 1 215.76 79.45
  Q 226.49 79.32 238.01 79.28
  Q 240.43 79.28 242.32 81.95
  Q 249.92 92.70 257.49 103.65
  A 1.13 1.13 0.0 0 0 259.33 103.67
  Q 266.95 93.22 274.90 82.64
  Q 277.45 79.25 280.75 79.25
  Q 291.63 79.27 301.69 79.40
  Q 302.91 79.41 302.91 80.63
  Q 303.01 108.37 302.95 135.00
  C 302.94 137.92 302.71 138.74 300.66 140.95
  Q 289.59 152.85 278.48 165.05
  A 0.78 0.77 -23.8 0 1 277.13 164.53
  L 277.30 124.12
  A 0.56 0.56 0.0 0 0 276.33 123.74
  L 259.60 141.75
  A 1.66 1.66 0.0 0 1 257.13 141.71
  L 242.46 124.82
  Q 240.72 122.82 240.73 125.48
  Z"
/>
<path fill="#ffffff" d="
  M 372.90 96.99
  Q 372.89 98.21 373.76 97.36
  Q 386.96 84.50 404.11 80.76
  C 425.16 76.16 453.35 84.80 460.51 107.45
  C 467.31 128.92 455.60 141.66 437.21 149.71
  Q 428.93 153.34 406.32 161.91
  C 403.40 163.01 400.80 164.80 398.16 166.34
  C 390.62 170.75 394.68 179.68 399.97 183.94
  Q 415.04 196.05 430.89 183.22
  Q 435.57 179.43 435.28 173.94
  A 1.84 1.84 0.0 0 1 437.12 172.01
  L 460.68 172.05
  A 1.48 1.48 0.0 0 1 462.15 173.39
  C 465.05 205.15 433.14 216.80 407.25 214.53
  C 395.24 213.48 382.50 209.83 375.01 199.69
  Q 372.62 196.45 372.85 200.47
  Q 373.20 206.75 372.83 213.00
  A 1.84 1.83 -88.3 0 1 371.00 214.73
  L 279.53 214.74
  Q 276.56 214.74 276.56 211.78
  L 276.51 182.49
  A 2.72 2.69 66.4 0 1 277.21 180.67
  L 303.10 152.60
  A 0.51 0.51 0.0 0 1 303.98 152.96
  Q 303.62 170.76 303.78 188.75
  Q 303.79 190.04 304.09 191.30
  Q 304.21 191.81 304.72 191.95
  Q 306.59 192.48 308.50 192.48
  Q 338.14 192.44 369.38 192.36
  Q 370.62 192.36 370.14 191.21
  Q 366.28 182.02 366.93 171.24
  C 367.80 156.81 380.40 147.59 393.06 142.80
  C 402.79 139.12 412.42 135.08 422.09 131.23
  C 426.89 129.32 435.97 125.13 435.37 118.71
  C 434.84 113.07 431.82 109.13 426.54 106.75
  Q 412.04 100.21 399.78 110.49
  C 397.19 112.66 395.69 115.64 394.15 118.56
  A 2.94 2.94 0.0 0 1 391.59 120.12
  Q 379.55 120.27 369.00 120.05
  Q 366.92 120.01 366.96 118.41
  C 367.10 112.06 367.29 107.75 370.50 102.17
  A 0.59 0.58 -74.8 0 0 370.00 101.29
  L 307.54 101.33
  A 0.79 0.78 -90.0 0 1 306.76 100.54
  L 306.69 79.71
  Q 306.69 79.37 307.04 79.37
  L 369.83 79.36
  Q 373.02 79.36 373.00 82.55
  L 372.90 96.99
  Z"
/>
<path fill="#ffffff" d="
  M 213.98 177.82
  Q 213.98 175.90 212.07 175.91
  L 181.22 175.96
  A 1.57 1.56 -0.2 0 0 179.65 177.53
  L 179.68 212.50
  Q 179.68 214.73 177.45 214.73
  L 161.24 214.75
  A 0.53 0.52 4.2 0 1 160.72 214.15
  C 160.99 212.38 161.41 210.62 161.41 208.92
  Q 161.43 157.09 161.41 105.75
  A 3.37 3.36 -27.3 0 1 162.04 103.79
  C 168.41 94.88 179.25 84.35 188.63 80.94
  Q 198.14 77.49 208.63 82.35
  C 209.84 82.91 210.52 84.15 210.51 85.56
  Q 210.39 101.42 210.66 117.47
  A 0.47 0.47 0.0 0 1 209.81 117.74
  C 204.75 110.48 197.53 104.13 189.38 112.33
  Q 183.99 117.75 181.23 124.63
  C 178.75 130.78 179.42 139.17 179.72 145.84
  A 1.75 1.75 0.0 0 0 181.48 147.51
  L 208.08 147.46
  A 2.90 2.90 0.0 0 1 210.20 148.38
  L 239.67 180.35
  A 3.20 3.16 -66.6 0 1 240.51 182.51
  L 240.46 212.74
  A 2.01 2.01 0.0 0 1 238.45 214.74
  L 216.31 214.73
  A 2.36 2.35 90.0 0 1 213.96 212.37
  L 213.98 177.82
  Z"
/>
<path fill="#ffffff" d="
  M 133.27 207.60
  A 0.48 0.48 0.0 0 0 132.53 207.14
  Q 122.63 213.58 111.01 214.57
  C 96.41 215.82 83.30 215.47 69.75 207.54
  Q 50.85 196.47 52.14 174.22
  A 1.15 1.14 75.3 0 1 52.64 173.35
  C 54.23 172.30 56.03 172.53 57.82 172.51
  Q 67.57 172.43 77.32 172.48
  A 1.11 1.09 -17.3 0 1 78.19 172.93
  C 79.75 175.10 79.35 177.84 80.42 179.69
  Q 81.59 181.72 83.86 183.58
  Q 99.74 196.60 115.45 183.98
  Q 118.33 181.66 119.77 176.66
  Q 121.71 169.88 115.84 166.33
  Q 109.23 162.33 101.89 159.78
  Q 88.88 155.26 76.19 149.89
  Q 64.90 145.11 57.70 136.29
  C 47.86 124.23 52.11 104.54 62.10 94.36
  C 68.49 87.84 77.97 83.32 87.10 81.38
  Q 110.51 76.39 131.44 90.29
  Q 133.29 91.51 133.30 89.29
  C 133.32 84.78 131.61 80.15 138.24 80.03
  Q 145.90 79.90 153.13 80.01
  Q 157.54 80.09 157.54 84.50
  Q 157.48 147.48 157.50 211.00
  C 157.50 215.38 154.96 214.92 151.35 214.97
  Q 144.25 215.08 137.18 214.98
  C 132.54 214.92 132.93 210.64 133.27 207.60
  Z
  M 132.18 120.43
  C 129.89 120.82 121.47 121.76 120.25 118.95
  Q 115.63 108.30 105.11 105.67
  C 95.62 103.30 81.86 106.31 79.37 117.73
  C 77.89 124.58 84.93 128.46 90.80 130.93
  Q 103.97 136.45 117.29 141.62
  Q 124.94 144.59 132.38 148.93
  A 0.49 0.49 0.0 0 0 133.11 148.51
  L 133.12 121.22
  A 0.80 0.80 0.0 0 0 132.18 120.43
  Z"
/>
<path fill="#000000" d="
  M 120.25 118.95
  C 121.47 121.76 129.89 120.82 132.18 120.43
  A 0.80 0.80 0.0 0 1 133.12 121.22
  L 133.11 148.51
  A 0.49 0.49 0.0 0 1 132.38 148.93
  Q 124.94 144.59 117.29 141.62
  Q 103.97 136.45 90.80 130.93
  C 84.93 128.46 77.89 124.58 79.37 117.73
  C 81.86 106.31 95.62 103.30 105.11 105.67
  Q 115.63 108.30 120.25 118.95
  Z"
/>
<rect fill="#ffffff" x="306.67" y="125.44" width="48.08" height="23.24" rx="1.17"/>
<rect fill="#ffffff" x="162.56" y="232.25" width="189.46" height="4.74" rx="2.35"/>
<path fill="#ffffff" d="
  M 137.2872 278.4172
  A 12.76 11.96 88.8 0 1 125.0626 265.9105
  A 12.76 11.96 88.8 0 1 136.7528 252.9028
  A 12.76 11.96 88.8 0 1 148.9774 265.4095
  A 12.76 11.96 88.8 0 1 137.2872 278.4172
  Z
  M 137.0243 275.8099
  A 10.23 7.10 90.2 0 0 144.1600 265.6048
  A 10.23 7.10 90.2 0 0 137.0957 255.3501
  A 10.23 7.10 90.2 0 0 129.9600 265.5552
  A 10.23 7.10 90.2 0 0 137.0243 275.8099
  Z"
/>
<path fill="#ffffff" d="
  M 248.10 275.03
  C 249.97 274.46 252.07 272.87 254.17 272.01
  A 0.73 0.73 0.0 0 1 255.01 273.14
  C 250.44 278.83 242.66 280.16 236.95 275.48
  C 231.17 270.75 231.47 261.61 236.33 256.49
  Q 240.87 251.71 249.08 253.63
  Q 251.37 254.17 253.66 253.39
  Q 254.14 253.22 254.16 253.73
  L 254.47 261.55
  A 0.94 0.93 -57.2 0 1 252.67 261.94
  C 251.53 259.13 249.70 256.16 246.53 255.60
  C 234.56 253.49 234.61 279.20 248.10 275.03
  Z"
/>
<path fill="#ffffff" d="
  M 412.3252 278.4176
  A 12.77 12.00 88.9 0 1 400.0822 265.8804
  A 12.77 12.00 88.9 0 1 411.8348 252.8824
  A 12.77 12.00 88.9 0 1 424.0778 265.4196
  A 12.77 12.00 88.9 0 1 412.3252 278.4176
  Z
  M 412.0221 275.8200
  A 10.23 7.06 90.1 0 0 419.1000 265.6023
  A 10.23 7.06 90.1 0 0 412.0579 255.3600
  A 10.23 7.06 90.1 0 0 404.9800 265.5777
  A 10.23 7.06 90.1 0 0 412.0221 275.8200
  Z"
/>
<path fill="#ffffff" d="
  M 108.57 265.14
  C 109.23 266.29 110.45 267.14 111.00 268.10
  Q 113.29 272.12 109.83 275.36
  C 107.63 277.41 104.50 277.92 101.21 277.89
  Q 96.00 277.86 90.92 277.86
  A 0.73 0.73 0.0 0 1 90.81 276.40
  Q 94.11 275.90 94.10 272.26
  Q 94.09 264.68 94.07 257.13
  Q 94.07 256.52 93.61 256.13
  Q 92.58 255.24 91.24 254.91
  A 0.55 0.49 -7.6 0 1 90.97 254.73
  L 90.48 254.08
  Q 89.79 253.18 90.92 253.29
  Q 97.45 253.89 104.00 253.75
  Q 105.35 253.72 107.23 254.71
  C 110.97 256.67 111.55 260.98 108.68 264.11
  A 0.88 0.87 51.5 0 0 108.57 265.14
  Z
  M 98.63 256.97
  L 98.42 262.53
  A 1.08 1.08 0.0 0 0 99.45 263.65
  L 100.64 263.69
  A 5.17 3.26 2.2 0 0 105.93 260.63
  L 105.98 259.43
  A 5.17 3.26 2.2 0 0 100.94 255.98
  L 99.75 255.93
  A 1.08 1.08 0.0 0 0 98.63 256.97
  Z
  M 98.53 267.88
  L 98.45 273.72
  A 1.46 1.46 0.0 0 0 99.89 275.20
  L 101.64 275.23
  A 5.03 4.08 0.8 0 0 106.73 271.22
  L 106.73 270.62
  A 5.03 4.08 0.8 0 0 101.76 266.47
  L 100.01 266.44
  A 1.46 1.46 0.0 0 0 98.53 267.88
  Z"
/>
<path fill="#ffffff" d="
  M 178.91 256.14
  L 176.52 254.98
  A 0.80 0.80 0.0 0 1 176.98 253.46
  Q 180.29 253.91 183.91 253.37
  A 1.63 1.59 -36.3 0 1 184.77 253.49
  L 185.22 253.69
  A 0.56 0.56 0.0 0 1 185.26 254.70
  L 182.71 256.09
  A 1.00 0.98 75.8 0 0 182.20 256.96
  C 182.22 261.32 183.28 270.83 180.88 274.38
  C 177.56 279.28 168.87 279.95 165.12 275.05
  C 162.33 271.40 163.16 262.04 163.45 257.44
  Q 163.49 256.90 163.10 256.52
  Q 162.32 255.75 160.94 255.11
  Q 159.91 254.63 160.48 253.53
  Q 160.67 253.17 161.07 253.26
  Q 165.81 254.25 170.57 253.21
  A 0.64 0.64 0.0 0 1 171.12 254.32
  L 168.34 256.63
  A 0.44 0.43 70.9 0 0 168.18 256.97
  Q 168.38 262.77 168.28 268.48
  Q 168.21 272.17 169.47 273.80
  Q 171.81 276.84 176.55 274.73
  C 178.74 273.76 179.20 271.82 179.21 269.41
  Q 179.26 263.22 179.43 257.01
  Q 179.45 256.41 178.91 256.14
  Z"
/>
<path fill="#ffffff" d="
  M 202.06 263.29
  C 202.55 268.14 200.34 273.58 205.30 277.02
  A 0.51 0.50 62.2 0 1 205.02 277.94
  L 196.51 277.96
  A 0.59 0.59 0.0 0 1 196.25 276.84
  Q 199.22 275.38 199.28 272.00
  Q 199.41 264.64 199.30 257.28
  Q 199.29 256.70 198.83 256.36
  L 196.37 254.55
  A 0.62 0.62 0.0 0 1 196.66 253.44
  C 200.19 253.01 202.73 253.43 205.11 256.39
  Q 209.60 261.98 214.17 267.94
  A 0.64 0.63 -64.1 0 0 215.31 267.54
  L 215.24 256.96
  A 0.94 0.91 15.3 0 0 214.77 256.16
  L 212.16 254.63
  A 0.74 0.73 67.3 0 1 212.71 253.28
  Q 216.26 254.20 219.80 253.29
  A 1.15 1.11 -38.7 0 1 220.62 253.37
  L 221.09 253.61
  A 0.58 0.58 0.0 0 1 221.15 254.62
  L 218.46 256.39
  Q 218.02 256.68 218.03 257.20
  L 218.18 277.26
  A 1.05 1.05 0.0 0 1 216.31 277.92
  L 204.02 262.49
  Q 201.69 259.57 202.06 263.29
  Z"
/>
<path fill="#ffffff" d="
  M 273.49 267.17
  L 273.29 273.64
  A 1.47 1.47 0.0 0 0 274.69 275.16
  C 278.81 275.36 283.80 275.77 285.27 270.81
  A 0.90 0.90 0.0 0 1 287.04 271.04
  Q 287.10 273.94 286.17 276.71
  A 1.79 1.78 -80.7 0 1 284.48 277.93
  L 266.56 277.94
  A 0.70 0.70 0.0 0 1 266.31 276.58
  C 268.08 275.92 268.99 274.65 269.02 272.66
  Q 269.13 265.42 269.13 258.21
  C 269.13 256.10 268.01 255.08 266.13 254.55
  Q 265.56 254.39 265.46 254.06
  A 0.41 0.40 82.5 0 1 265.85 253.54
  L 285.07 253.70
  Q 285.71 253.71 285.78 254.34
  C 286.04 256.55 285.99 258.01 284.89 260.15
  Q 282.89 264.04 284.37 268.04
  A 1.15 1.15 0.0 0 1 282.40 269.16
  Q 279.30 265.28 274.11 266.43
  Q 273.51 266.56 273.49 267.17
  Z
  M 273.46 257.23
  L 273.38 262.17
  A 1.50 1.50 0.0 0 0 274.85 263.69
  L 276.21 263.72
  A 7.58 3.80 1.0 0 0 283.86 260.05
  L 283.86 259.71
  A 7.58 3.80 1.0 0 0 276.35 255.78
  L 274.99 255.76
  A 1.50 1.50 0.0 0 0 273.46 257.23
  Z"
/>
<path fill="#ffffff" d="
  M 317.60 256.92
  Q 317.34 264.06 317.57 271.19
  C 317.64 273.49 316.98 275.08 319.88 275.98
  A 1.00 1.00 0.0 0 1 319.58 277.94
  L 309.97 277.88
  A 0.67 0.67 0.0 0 1 309.73 276.58
  C 311.63 275.86 312.76 274.43 312.72 272.24
  Q 312.59 264.55 312.75 256.88
  A 0.89 0.88 -77.3 0 0 312.24 256.06
  L 309.61 254.82
  Q 309.21 254.64 309.30 254.21
  Q 309.39 253.74 309.78 253.51
  Q 310.10 253.33 310.66 253.41
  Q 315.38 254.14 320.01 253.25
  A 0.86 0.86 0.0 0 1 320.59 254.85
  L 318.02 256.23
  A 0.81 0.80 76.7 0 0 317.60 256.92
  Z"
/>
<path fill="#ffffff" d="
  M 337.54 261.21
  L 337.55 274.17
  A 1.09 1.09 0.0 0 0 338.11 275.12
  L 340.55 276.49
  A 0.80 0.80 0.0 0 1 340.16 277.99
  L 332.23 278.00
  A 0.87 0.86 70.3 0 1 331.56 277.68
  Q 330.81 276.74 331.90 276.45
  C 334.20 275.86 334.94 274.34 334.96 271.97
  Q 335.00 264.61 335.00 257.28
  Q 335.00 256.61 334.42 256.28
  L 331.46 254.64
  A 0.53 0.53 0.0 0 1 331.57 253.67
  Q 334.62 252.81 337.27 253.87
  Q 339.18 254.64 341.44 257.43
  Q 345.80 262.81 349.67 268.36
  A 0.68 0.68 0.0 0 0 350.91 267.97
  L 350.91 256.65
  A 0.82 0.81 -79.5 0 0 350.39 255.89
  L 347.60 254.84
  A 0.62 0.62 0.0 0 1 347.21 254.16
  Q 347.27 253.74 347.62 253.52
  Q 347.90 253.35 348.44 253.41
  Q 352.33 253.90 356.24 253.33
  Q 356.84 253.25 356.81 253.85
  L 356.79 254.17
  Q 356.76 254.75 356.25 255.02
  L 354.05 256.19
  Q 353.55 256.46 353.55 257.02
  L 353.50 277.95
  A 0.77 0.77 0.0 0 1 352.12 278.42
  L 338.38 260.92
  A 0.47 0.47 0.0 0 0 337.54 261.21
  Z"
/>
<path fill="#ffffff" d="
  M 374.72 255.67
  Q 370.31 255.94 369.28 260.24
  A 1.05 1.04 52.7 0 1 367.22 259.96
  L 367.37 254.76
  Q 367.39 254.22 367.91 254.08
  Q 370.19 253.45 371.75 253.51
  Q 379.82 253.78 387.89 253.58
  A 0.68 0.68 0.0 0 1 388.59 254.22
  L 388.96 260.02
  A 0.95 0.95 0.0 0 1 387.10 260.36
  Q 386.01 256.79 382.56 255.73
  A 1.75 1.75 0.0 0 0 380.30 257.36
  Q 380.15 264.89 380.27 272.29
  C 380.30 274.33 380.97 276.04 383.03 276.45
  A 0.73 0.73 0.0 0 1 382.88 277.89
  L 373.47 277.86
  A 0.77 0.76 37.1 0 1 373.26 276.36
  C 374.75 275.94 375.59 274.75 375.72 273.15
  Q 376.38 264.76 375.60 256.42
  A 0.83 0.83 0.0 0 0 374.72 255.67
  Z"
/>
<ellipse fill="#000000" cx="0.00" cy="0.00" transform="translate(137.06,265.58) rotate(90.2)" rx="10.23" ry="7.10"/>
<ellipse fill="#000000" cx="0.00" cy="0.00" transform="translate(412.04,265.59) rotate(90.1)" rx="10.23" ry="7.06"/>
<path fill="#000000" d="
  M 273.46 257.23
  A 1.50 1.50 0.0 0 1 274.99 255.76
  L 276.35 255.78
  A 7.58 3.80 1.0 0 1 283.86 259.71
  L 283.86 260.05
  A 7.58 3.80 1.0 0 1 276.21 263.72
  L 274.85 263.69
  A 1.50 1.50 0.0 0 1 273.38 262.17
  L 273.46 257.23
  Z"
/>
<path fill="#000000" d="
  M 98.63 256.97
  A 1.08 1.08 0.0 0 1 99.75 255.93
  L 100.94 255.98
  A 5.17 3.26 2.2 0 1 105.98 259.43
  L 105.93 260.63
  A 5.17 3.26 2.2 0 1 100.64 263.69
  L 99.45 263.65
  A 1.08 1.08 0.0 0 1 98.42 262.53
  L 98.63 256.97
  Z"
/>
<path fill="#000000" d="
  M 98.53 267.88
  A 1.46 1.46 0.0 0 1 100.01 266.44
  L 101.76 266.47
  A 5.03 4.08 0.8 0 1 106.73 270.62
  L 106.73 271.22
  A 5.03 4.08 0.8 0 1 101.64 275.23
  L 99.89 275.20
  A 1.46 1.46 0.0 0 1 98.45 273.72
  L 98.53 267.88
  Z"
/>
<circle fill="#ffffff" cx="257.28" cy="310.78" r="5.15"/>
<path fill="#ffffff" d="
  M 373.92 326.69
  Q 374.67 325.38 374.73 322.81
  Q 374.75 322.18 375.37 322.25
  L 376.87 322.41
  Q 377.46 322.48 377.38 323.06
  C 376.44 330.62 370.21 336.92 362.39 335.53
  C 355.60 334.33 350.81 327.11 351.88 320.45
  Q 352.63 315.79 356.48 313.24
  Q 361.75 309.75 363.41 308.56
  Q 363.81 308.27 364.13 308.64
  L 368.76 313.94
  A 0.61 0.61 0.0 0 1 368.60 314.87
  C 367.01 315.77 363.66 312.73 360.66 313.83
  C 347.20 318.72 365.11 342.01 373.92 326.69
  Z"
/>
<path fill="#ffffff" d="
  M 149.24 313.93
  Q 147.29 315.18 144.93 315.09
  A 0.61 0.61 0.0 0 1 144.54 314.04
  L 149.14 309.81
  Q 149.62 309.37 150.10 309.80
  L 164.67 322.69
  A 0.67 0.67 0.0 0 1 164.75 323.61
  L 161.00 328.21
  A 0.87 0.87 0.0 0 1 159.56 327.24
  Q 162.18 322.54 157.74 320.17
  Q 157.13 319.85 156.67 320.37
  L 145.53 333.17
  A 1.03 1.02 57.2 0 0 145.32 334.15
  L 146.18 337.03
  A 0.54 0.53 -79.4 0 1 145.34 337.61
  Q 141.03 334.18 137.64 331.08
  Q 137.00 330.49 137.57 329.76
  Q 137.86 329.39 138.21 329.70
  Q 140.76 331.97 143.15 329.14
  Q 148.12 323.26 153.25 317.30
  A 1.30 1.30 0.0 0 0 152.88 315.30
  L 150.22 313.89
  Q 149.72 313.63 149.24 313.93
  Z"
/>
<path fill="#ffffff" d="
  M 339.17 330.13
  Q 343.64 337.21 347.94 344.40
  Q 349.39 346.83 351.53 345.25
  A 0.71 0.71 0.0 0 1 352.65 345.73
  Q 352.81 346.88 351.55 347.58
  Q 347.10 350.07 342.87 352.36
  A 0.44 0.44 0.0 0 1 342.28 351.76
  L 344.13 348.43
  A 0.93 0.93 0.0 0 0 344.12 347.52
  L 335.68 333.22
  Q 335.32 332.60 334.60 332.57
  L 331.43 332.43
  A 0.50 0.50 0.0 0 1 331.17 331.51
  Q 335.62 328.49 339.87 326.48
  Q 340.44 326.21 340.83 326.34
  Q 340.95 326.38 341.06 326.44
  A 0.62 0.62 0.0 0 1 341.17 327.42
  L 339.28 329.23
  Q 338.86 329.64 339.17 330.13
  Z"
/>
<path fill="#ffffff" d="
  M 178.72 345.66
  L 172.57 342.14
  A 1.02 1.01 -58.9 0 0 171.21 342.48
  C 169.14 345.76 166.49 349.27 169.76 352.93
  A 0.25 0.25 0.0 0 1 169.45 353.31
  L 160.26 348.24
  A 0.50 0.49 -38.4 0 1 160.37 347.33
  L 163.27 346.53
  A 0.86 0.85 5.9 0 0 163.79 346.11
  L 172.06 330.75
  A 0.72 0.71 -47.2 0 0 172.04 330.03
  L 170.44 327.50
  A 0.54 0.54 0.0 0 1 171.16 326.73
  L 179.90 331.52
  A 0.60 0.60 0.0 0 1 179.63 332.64
  L 176.98 332.73
  A 0.81 0.79 -74.5 0 0 176.32 333.11
  L 172.92 338.55
  A 0.81 0.80 -59.5 0 0 173.21 339.68
  L 180.53 343.68
  Q 181.23 344.07 181.57 343.35
  L 184.45 337.17
  A 1.00 0.98 37.9 0 0 184.31 336.11
  L 182.51 333.95
  A 0.54 0.54 0.0 0 1 183.17 333.13
  L 192.72 338.22
  A 0.58 0.58 0.0 0 1 192.32 339.29
  C 189.55 338.67 188.26 340.10 187.06 342.49
  Q 183.92 348.75 180.47 354.81
  Q 180.18 355.32 180.45 355.85
  L 182.13 359.13
  A 0.53 0.53 0.0 0 1 181.39 359.83
  L 171.33 353.95
  Q 170.38 353.39 171.48 353.53
  L 174.25 353.86
  A 0.95 0.93 27.9 0 0 174.97 353.65
  Q 178.30 350.85 179.13 346.55
  Q 179.24 345.96 178.72 345.66
  Z"
/>
<path fill="#ffffff" d="
  M 318.65 360.03
  C 323.98 361.38 327.38 353.84 320.95 352.92
  C 316.64 352.31 310.76 351.31 309.17 348.35
  C 305.21 341.00 314.28 338.37 319.45 336.86
  Q 320.06 336.68 320.34 337.25
  L 323.49 343.62
  A 0.60 0.60 0.0 0 1 322.69 344.43
  C 319.14 342.71 316.04 338.33 312.15 342.86
  A 0.97 0.94 61.4 0 0 311.94 343.63
  C 312.99 349.96 324.80 345.18 327.81 351.84
  Q 329.96 356.58 326.44 359.98
  C 324.07 362.26 319.61 362.77 316.30 364.37
  Q 315.81 364.61 315.56 364.11
  L 312.14 357.17
  A 0.51 0.51 0.0 0 1 312.84 356.49
  C 314.84 357.54 316.79 359.55 318.65 360.03
  Z"
/>
<path fill="#ffffff" d="
  M 202.98 356.30
  L 200.89 362.66
  A 0.80 0.79 23.5 0 0 201.27 363.61
  Q 204.55 365.37 208.05 365.67
  C 210.32 365.86 211.95 364.42 213.57 363.07
  A 0.74 0.74 0.0 0 1 214.77 363.79
  C 214.26 366.20 211.92 370.17 208.67 369.04
  Q 200.90 366.34 193.08 364.00
  A 0.72 0.72 0.0 0 1 193.17 362.60
  L 195.47 362.22
  A 0.87 0.87 0.0 0 0 196.16 361.64
  L 201.69 345.39
  A 1.01 1.00 39.8 0 0 201.61 344.58
  L 199.52 340.92
  A 0.21 0.21 0.0 0 1 199.77 340.61
  L 217.77 346.43
  A 1.16 1.15 16.7 0 1 218.53 347.84
  C 217.61 351.06 215.39 352.04 214.29 354.36
  Q 212.99 357.10 212.31 360.41
  A 0.90 0.89 42.0 0 1 210.58 360.50
  Q 209.03 355.62 203.66 355.79
  Q 203.14 355.80 202.98 356.30
  Z
  M 205.62 347.06
  L 204.62 351.82
  A 1.49 1.49 0.0 0 0 205.77 353.58
  L 208.63 354.19
  A 5.19 3.77 11.9 0 0 214.49 351.57
  L 214.55 351.27
  A 5.19 3.77 11.9 0 0 210.25 346.51
  L 207.39 345.91
  A 1.49 1.49 0.0 0 0 205.62 347.06
  Z"
/>
<path fill="#ffffff" d="
  M 295.32 348.37
  C 296.84 356.98 303.76 370.68 288.46 371.64
  C 274.81 372.50 282.35 354.36 273.57 350.90
  A 0.55 0.55 0.0 0 1 273.73 349.84
  Q 278.56 349.50 283.10 347.80
  A 0.57 0.56 -82.3 0 1 283.75 348.66
  Q 281.43 351.90 281.82 353.50
  C 282.67 357.07 283.85 365.99 286.59 368.12
  C 289.68 370.53 295.57 367.84 295.44 363.35
  Q 295.32 359.42 292.37 349.81
  Q 292.20 349.26 291.67 349.03
  L 289.17 347.98
  A 0.69 0.69 0.0 0 1 289.28 346.67
  L 297.39 344.72
  A 0.63 0.63 0.0 0 1 297.90 345.84
  L 295.73 347.38
  Q 295.21 347.75 295.32 348.37
  Z"
/>
<path fill="#000000" d="
  M 205.62 347.06
  A 1.49 1.49 0.0 0 1 207.39 345.91
  L 210.25 346.51
  A 5.19 3.77 11.9 0 1 214.55 351.27
  L 214.49 351.57
  A 5.19 3.77 11.9 0 1 208.63 354.19
  L 205.77 353.58
  A 1.49 1.49 0.0 0 1 204.62 351.82
  L 205.62 347.06
  Z"
/>
<path fill="#ffffff" d="
  M 242.10 358.46
  L 242.03 370.85
  A 0.91 0.89 15.0 0 0 242.49 371.63
  L 245.05 373.08
  A 0.77 0.76 64.9 0 1 244.54 374.50
  Q 240.93 373.81 236.80 373.96
  Q 235.84 373.99 235.59 373.13
  A 0.53 0.53 0.0 0 1 235.96 372.48
  L 238.76 371.71
  A 0.92 0.91 83.2 0 0 239.43 370.85
  Q 239.68 362.97 239.78 355.20
  C 239.81 352.47 239.10 351.92 237.16 350.36
  A 0.47 0.47 0.0 0 1 237.49 349.53
  L 243.64 349.94
  A 1.51 1.51 0.0 0 1 244.94 350.87
  L 251.37 366.25
  A 0.54 0.54 0.0 0 0 252.37 366.24
  C 254.19 361.65 256.52 357.37 258.58 352.79
  Q 259.69 350.31 262.38 350.45
  C 263.93 350.54 265.98 350.33 267.49 350.73
  A 0.35 0.35 0.0 0 1 267.63 351.33
  L 264.31 354.18
  A 0.91 0.87 -22.2 0 0 264.00 354.87
  Q 264.19 361.94 263.87 368.89
  C 263.76 371.19 264.13 372.33 265.89 373.66
  A 0.83 0.83 0.0 0 1 265.35 375.15
  L 256.62 374.77
  A 0.76 0.76 0.0 0 1 256.23 373.37
  L 258.89 371.60
  A 0.86 0.85 -15.6 0 0 259.27 370.93
  L 259.95 359.50
  A 0.77 0.77 0.0 0 0 258.49 359.12
  L 251.52 373.45
  A 1.18 1.18 0.0 0 1 249.37 373.39
  L 242.99 358.29
  A 0.46 0.46 0.0 0 0 242.10 358.46
  Z"
/>
</svg>
