<?xml version="1.0" encoding="UTF-8" standalone="no"?>
<!DOCTYPE svg PUBLIC "-//W3C//DTD SVG 1.1//EN" "http://www.w3.org/Graphics/SVG/1.1/DTD/svg11.dtd">
<svg xmlns="http://www.w3.org/2000/svg" version="1.1" viewBox="0.00 0.00 1280.00 720.00">
<g stroke-width="2.00" fill="none" stroke-linecap="butt">
<path stroke="#808080" vector-effect="non-scaling-stroke" d="
  M 9.08 0.00
  Q 14.47 4.54 22.65 9.87
  C 52.91 29.60 83.99 48.61 113.42 69.53
  A 1.11 1.11 0.0 0 0 114.85 69.40
  L 118.47 65.70
  A 0.55 0.55 0.0 0 1 119.29 66.42
  Q 107.85 80.85 96.04 94.95
  C 81.05 112.85 67.21 131.75 51.21 148.76
  C 47.86 152.32 46.24 159.59 39.77 154.48
  Q 20.05 138.92 0.00 122.75"
/>
<path stroke="#808080" vector-effect="non-scaling-stroke" d="
  M 0.00 120.47
  Q 20.24 137.05 40.98 153.53
  C 43.95 155.88 45.22 154.64 46.96 151.88
  Q 49.57 147.74 53.26 144.49
  A 0.75 0.74 -51.2 0 0 53.13 143.28
  C 41.15 136.63 31.96 129.96 20.68 119.94
  Q 10.77 111.13 0.00 103.14"
/>
<path stroke="#808080" vector-effect="non-scaling-stroke" d="
  M 100.32 0.00
  Q 115.94 23.66 131.15 47.88
  Q 131.75 48.84 132.39 49.18
  A 0.77 0.76 84.9 0 0 133.35 48.03
  Q 131.13 45.24 129.23 42.28
  Q 115.86 21.37 102.80 0.00"
/>
<path stroke="#808080" vector-effect="non-scaling-stroke" d="
  M 1201.34 0.00
  L 1184.27 78.58
  A 1.21 1.19 -58.4 0 0 1184.49 79.55
  C 1186.85 82.63 1199.01 78.36 1201.19 77.20
  C 1206.75 74.23 1213.78 68.55 1220.43 64.50
  C 1230.26 58.52 1240.63 50.77 1248.99 45.31
  Q 1264.49 35.20 1280.00 24.58"
/>
<path stroke="#808080" vector-effect="non-scaling-stroke" d="
  M 1280.00 94.98
  Q 1272.96 82.88 1266.83 71.43
  C 1265.64 69.21 1262.83 67.17 1260.15 68.91
  A 0.47 0.47 0.0 0 0 1260.36 69.77
  L 1263.64 70.07
  Q 1263.91 70.09 1264.04 70.34
  L 1276.28 92.85
  A 0.97 0.97 0.0 0 1 1275.32 94.27
  Q 1264.85 93.08 1254.73 90.37
  A 1.00 0.96 88.0 0 0 1253.59 91.65
  Q 1253.68 91.95 1254.14 92.34
  Q 1254.44 92.59 1254.90 92.71
  Q 1266.16 95.59 1277.76 96.41
  Q 1279.02 96.49 1280.00 97.81"
/>
<path stroke="#808080" vector-effect="non-scaling-stroke" d="
  M 1280.00 522.81
  Q 1279.79 522.78 1279.73 523.23
  Q 1279.68 523.65 1279.37 523.35
  C 1271.79 515.98 1263.09 506.80 1253.78 501.75
  Q 1234.80 491.44 1215.97 480.84
  C 1213.40 479.39 1211.07 479.87 1208.51 480.76
  Q 1195.90 485.16 1183.00 489.80
  A 1.45 1.44 -31.6 0 0 1182.44 492.15
  L 1261.73 576.59
  A 1.83 1.82 44.4 0 0 1264.41 576.57
  L 1280.00 559.39"
/>
<path stroke="#808080" vector-effect="non-scaling-stroke" d="
  M 1275.55 720.00
  L 1277.32 702.96
  Q 1277.35 702.72 1277.18 702.56
  L 1276.94 702.32
  A 0.23 0.23 0.0 0 0 1276.55 702.45
  Q 1275.15 711.57 1271.30 720.00"
/>
<path stroke="#808080" vector-effect="non-scaling-stroke" d="
  M 1244.93 720.00
  Q 1252.28 708.64 1259.61 697.61
  C 1265.84 688.21 1270.45 678.96 1275.13 669.10
  C 1276.72 665.76 1278.10 662.33 1275.19 659.31
  C 1251.80 635.12 1220.38 601.24 1187.38 567.06
  Q 1187.04 566.70 1186.54 566.63
  C 1182.50 565.99 1178.39 564.27 1178.33 570.37
  C 1178.26 576.41 1176.53 583.63 1175.98 587.96
  Q 1167.53 654.03 1158.50 720.00"
/>
<path stroke="#808080" vector-effect="non-scaling-stroke" d="
  M 352.19 720.00
  Q 348.09 719.26 343.64 720.00"
/>
<path stroke="#808080" vector-effect="non-scaling-stroke" d="
  M 342.46 720.00
  Q 342.27 719.71 341.96 719.54
  A 0.53 0.53 0.0 0 1 342.33 718.55
  C 344.02 718.92 353.13 720.55 351.72 716.52
  Q 347.78 705.27 339.49 687.76
  C 339.10 686.95 338.99 685.45 338.12 684.78
  A 0.31 0.31 0.0 0 0 337.65 685.15
  L 341.68 694.50
  A 0.26 0.26 0.0 0 1 341.29 694.82
  Q 336.71 691.58 332.07 688.39
  C 324.88 683.44 317.34 677.34 309.16 672.65
  Q 308.70 672.38 308.28 672.71
  C 301.74 677.83 304.25 684.91 305.34 691.77
  C 305.57 693.21 306.86 693.72 307.46 694.95
  Q 311.67 703.50 316.18 711.93
  Q 316.40 712.34 315.95 712.48
  L 315.00 712.78
  Q 314.44 712.96 314.29 713.52
  Q 313.84 715.29 315.11 716.25
  A 1.13 1.11 -35.9 0 0 316.14 716.41
  L 317.12 716.08
  A 0.65 0.64 73.8 0 1 317.95 716.54
  C 318.37 718.21 319.50 718.03 319.94 719.11
  Q 320.14 719.59 319.68 720.00"
/>
<path stroke="#808080" vector-effect="non-scaling-stroke" d="
  M 297.60 720.00
  C 298.30 715.41 297.56 713.00 293.36 710.59
  Q 261.54 692.34 226.85 680.42
  C 218.90 677.69 215.17 682.73 214.50 689.87
  C 213.55 699.97 216.41 710.12 218.25 720.00"
/>
<path stroke="#808080" vector-effect="non-scaling-stroke" d="
  M 79.78 720.00
  L 96.96 641.43
  Q 97.08 640.88 96.74 640.44
  C 94.60 637.68 85.45 640.71 82.86 641.67
  Q 79.98 642.74 76.05 645.49
  C 65.72 652.72 54.72 659.18 44.66 666.31
  C 33.75 674.04 22.45 681.00 11.42 688.66
  Q 5.87 692.51 0.00 696.04"
/>
<path stroke="#808080" vector-effect="non-scaling-stroke" d="
  M 0.00 381.46
  Q 17.38 381.39 34.75 381.99
  Q 38.22 382.11 42.93 381.95
  C 49.93 381.72 56.86 382.35 63.82 382.45
  C 67.38 382.51 69.87 380.78 71.90 378.18
  A 1.91 1.91 0.0 0 0 71.90 375.84
  L 0.00 283.73"
/>
<path stroke="#808080" vector-effect="non-scaling-stroke" d="
  M 0.00 232.16
  L 19.10 239.78
  Q 19.69 240.02 19.64 239.38
  C 19.36 235.69 17.98 231.84 17.66 228.66
  Q 15.54 207.66 12.77 186.66
  A 1.06 1.06 0.0 0 0 11.13 185.92
  L 0.00 193.48"
/>
<path stroke="#808080" vector-effect="non-scaling-stroke" d="
  M 0.00 190.43
  L 4.86 186.57
  Q 5.01 186.46 4.89 186.31
  Q 4.80 186.22 4.66 186.21
  Q 4.51 186.20 4.32 186.34
  Q 2.22 187.96 0.00 188.94"
/>
<path stroke="#808080" vector-effect="non-scaling-stroke" d="
  M 302.3913 2.5327
  A 0.95 0.84 68.3 0 0 302.8205 1.3394
  A 0.95 0.84 68.3 0 0 301.6887 0.7673
  A 0.95 0.84 68.3 0 0 301.2595 1.9606
  A 0.95 0.84 68.3 0 0 302.3913 2.5327"
/>
<path stroke="#808080" vector-effect="non-scaling-stroke" d="
  M 293.9790 2.8409
  A 2.19 1.04 -21.4 0 0 291.5605 2.6717
  A 2.19 1.04 -21.4 0 0 289.9010 4.4391
  A 2.19 1.04 -21.4 0 0 292.3195 4.6083
  A 2.19 1.04 -21.4 0 0 293.9790 2.8409"
/>
<path stroke="#808080" vector-effect="non-scaling-stroke" d="
  M 310.96 24.45
  Q 301.84 26.26 291.60 26.20
  Q 291.30 26.20 290.57 25.98
  Q 289.88 25.78 289.47 26.25
  A 1.25 1.25 0.0 0 0 290.43 28.31
  Q 300.82 28.22 310.98 26.36
  Q 313.40 25.92 315.42 26.01
  A 0.72 0.72 0.0 0 0 315.98 24.79
  L 296.12 3.89
  A 0.78 0.78 0.0 0 0 294.78 4.46
  Q 294.81 5.45 295.77 6.48
  Q 303.52 14.74 311.51 22.62
  Q 312.95 24.05 310.96 24.45"
/>
<path stroke="#808080" vector-effect="non-scaling-stroke" d="
  M 288.7712 7.6234
  A 0.88 0.88 0.0 0 0 287.9696 6.6715
  L 287.9098 6.6664
  A 0.88 0.88 0.0 0 0 286.9578 7.4680
  L 285.2888 26.9366
  A 0.88 0.88 0.0 0 0 286.0904 27.8885
  L 286.1502 27.8936
  A 0.88 0.88 0.0 0 0 287.1022 27.0920
  L 288.7712 7.6234"
/>
<path stroke="#808080" vector-effect="non-scaling-stroke" d="
  M 165.71 21.79
  C 161.32 17.96 156.55 14.38 151.75 11.08
  Q 150.51 10.23 150.50 11.73
  Q 150.46 21.10 150.84 29.69
  C 150.94 31.76 151.22 37.01 154.38 35.65
  A 0.52 0.52 0.0 0 0 154.38 34.70
  L 152.96 34.07
  Q 152.50 33.87 152.50 33.36
  L 152.50 14.70
  A 0.75 0.74 19.3 0 1 153.71 14.12
  L 165.79 23.71
  A 0.55 0.55 0.0 0 0 166.67 23.14
  Q 166.49 22.47 165.71 21.79"
/>
<path stroke="#808080" vector-effect="non-scaling-stroke" d="
  M 168.8435 24.5064
  A 8.24 0.84 -42.0 0 0 162.1579 29.3958
  A 8.24 0.84 -42.0 0 0 156.5965 35.5336
  A 8.24 0.84 -42.0 0 0 163.2821 30.6442
  A 8.24 0.84 -42.0 0 0 168.8435 24.5064"
/>
<path stroke="#808080" vector-effect="non-scaling-stroke" d="
  M 146.81 31.69
  Q 146.94 31.73 147.08 31.77
  Q 147.21 31.82 147.22 31.68
  L 147.26 30.77
  A 0.46 0.46 0.0 0 0 146.61 30.33
  Q 146.08 30.57 146.27 31.25
  Q 146.31 31.42 146.44 31.50
  A 0.90 0.10 33.2 0 0 146.81 31.69"
/>
<path stroke="#808080" vector-effect="non-scaling-stroke" d="
  M 1125.61 43.33
  Q 1130.95 49.12 1134.51 54.98
  Q 1135.07 55.89 1136.09 55.72
  A 0.61 0.61 0.0 0 0 1136.47 54.75
  L 1124.74 39.64
  Q 1124.09 38.80 1123.83 39.84
  L 1118.63 60.96
  A 0.58 0.58 0.0 0 0 1119.54 61.56
  C 1119.97 61.23 1120.56 60.63 1120.68 60.04
  Q 1122.42 51.67 1124.87 43.50
  Q 1125.09 42.77 1125.61 43.33"
/>
<path stroke="#808080" vector-effect="non-scaling-stroke" d="
  M 129.23 52.93
  Q 126.21 55.18 125.15 58.78
  Q 124.97 59.41 125.57 59.14
  Q 126.67 58.65 127.10 57.82
  Q 128.96 54.26 131.39 51.07
  Q 131.69 50.67 131.20 50.60
  L 130.66 50.52
  A 0.44 0.43 -75.7 0 0 130.18 50.81
  L 129.71 52.27
  Q 129.57 52.67 129.23 52.93"
/>
<path stroke="#808080" vector-effect="non-scaling-stroke" d="
  M 1114.33 57.61
  L 1114.27 58.24
  A 0.56 0.56 0.0 0 0 1115.26 58.65
  Q 1115.81 57.98 1115.24 57.32
  A 0.52 0.52 0.0 0 0 1114.33 57.61"
/>
<path stroke="#808080" vector-effect="non-scaling-stroke" d="
  M 1137.9362 57.5129
  A 8.05 0.87 -27.1 0 0 1130.3737 60.4055
  A 8.05 0.87 -27.1 0 0 1123.6038 64.8471
  A 8.05 0.87 -27.1 0 0 1131.1663 61.9545
  A 8.05 0.87 -27.1 0 0 1137.9362 57.5129"
/>
<path stroke="#808080" vector-effect="non-scaling-stroke" d="
  M 1121.4281 64.5501
  A 1.79 0.82 42.1 0 0 1120.6497 62.7416
  A 1.79 0.82 42.1 0 0 1118.7719 62.1499
  A 1.79 0.82 42.1 0 0 1119.5503 63.9584
  A 1.79 0.82 42.1 0 0 1121.4281 64.5501"
/>
<path stroke="#808080" vector-effect="non-scaling-stroke" d="
  M 1272.5874 70.8079
  A 1.10 0.77 98.5 0 0 1273.5115 69.8338
  A 1.10 0.77 98.5 0 0 1272.9126 68.6321
  A 1.10 0.77 98.5 0 0 1271.9885 69.6062
  A 1.10 0.77 98.5 0 0 1272.5874 70.8079"
/>
<path stroke="#808080" vector-effect="non-scaling-stroke" d="
  M 1258.3351 71.9955
  A 0.88 0.88 0.0 0 0 1257.8092 70.8676
  L 1257.7716 70.8539
  A 0.88 0.88 0.0 0 0 1256.6437 71.3798
  L 1249.8649 90.0045
  A 0.88 0.88 0.0 0 0 1250.3908 91.1324
  L 1250.4284 91.1461
  A 0.88 0.88 0.0 0 0 1251.5563 90.6202
  L 1258.3351 71.9955"
/>
<path stroke="#808080" vector-effect="non-scaling-stroke" d="
  M 11.47 182.69
  C 13.03 184.05 14.33 184.77 15.91 186.48
  A 0.09 0.09 0.0 0 0 16.06 186.38
  Q 14.62 183.47 11.85 182.12
  A 0.35 0.34 -11.5 0 0 11.47 182.69"
/>
<path stroke="#808080" vector-effect="non-scaling-stroke" d="
  M 6.50 185.49
  L 9.18 183.27
  A 0.27 0.26 7.9 0 0 8.86 182.85
  Q 7.39 183.84 6.14 185.09
  A 0.27 0.27 0.0 0 0 6.50 185.49"
/>
<path stroke="#808080" vector-effect="non-scaling-stroke" d="
  M 20.69 192.31
  Q 39.47 215.59 59.01 238.22
  Q 59.09 238.31 59.20 238.27
  Q 59.34 238.22 59.49 238.17
  Q 59.75 238.09 59.57 237.88
  Q 38.65 213.72 18.68 188.78
  C 18.14 188.11 17.29 187.63 16.62 187.03
  Q 16.26 186.71 16.08 187.15
  Q 15.82 187.77 16.34 188.18
  Q 19.24 190.50 20.69 192.31"
/>
<path stroke="#808080" vector-effect="non-scaling-stroke" d="
  M 63.31 242.19
  Q 61.97 240.76 61.21 239.85
  A 0.98 0.98 0.0 0 0 59.48 240.59
  C 60.29 247.46 56.66 249.79 50.93 251.91
  Q 50.05 252.24 50.92 252.58
  L 59.46 255.86
  A 0.98 0.97 -55.3 0 0 60.47 255.67
  Q 61.43 254.79 62.77 255.02
  A 0.66 0.66 0.0 0 0 63.53 254.47
  Q 64.26 249.63 63.40 244.78
  A 1.19 1.18 -32.8 0 1 63.60 243.88
  Q 64.16 243.09 63.31 242.19"
/>
<path stroke="#808080" vector-effect="non-scaling-stroke" d="
  M 29.56 243.55
  L 32.44 245.35
  A 0.31 0.31 0.0 0 0 32.83 244.88
  Q 31.61 243.56 29.75 243.09
  Q 28.20 242.70 29.56 243.55"
/>
<path stroke="#808080" vector-effect="non-scaling-stroke" d="
  M 47.38 250.50
  C 43.08 248.38 38.50 247.31 34.55 245.27
  Q 34.16 245.06 34.37 245.45
  Q 34.78 246.17 35.75 246.53
  Q 40.94 248.43 43.50 249.28
  C 44.74 249.69 46.06 251.05 47.29 250.97
  Q 48.20 250.90 47.38 250.50"
/>
<path stroke="#808080" vector-effect="non-scaling-stroke" d="
  M 65.53 245.86
  Q 65.91 247.19 66.77 248.28
  A 0.34 0.34 0.0 0 0 67.36 247.94
  Q 66.86 246.65 65.88 245.66
  Q 65.29 245.05 65.53 245.86"
/>
<path stroke="#808080" vector-effect="non-scaling-stroke" d="
  M 66.81 256.59
  Q 65.97 257.22 65.99 258.25
  A 0.46 0.46 0.0 0 0 66.79 258.56
  Q 69.05 256.15 67.93 253.13
  A 0.33 0.32 36.7 0 0 67.30 253.22
  L 67.14 256.00
  A 0.81 0.81 0.0 0 1 66.81 256.59"
/>
<path stroke="#808080" vector-effect="non-scaling-stroke" d="
  M 56.57 281.36
  L 50.05 275.69
  Q 49.69 275.38 49.22 275.36
  L 35.41 274.74
  A 1.04 1.03 -11.6 0 0 34.43 276.22
  Q 34.76 276.91 35.34 276.72
  A 0.81 0.81 0.0 0 1 36.11 276.89
  L 45.69 285.41
  Q 46.07 285.75 46.55 285.61
  L 57.84 282.31
  A 0.41 0.41 0.0 0 0 57.99 281.61
  Q 57.74 281.41 57.40 281.52
  Q 56.94 281.69 56.57 281.36"
/>
<path stroke="#808080" vector-effect="non-scaling-stroke" d="
  M 54.29 275.83
  A 0.37 0.36 32.8 0 0 54.43 276.47
  Q 54.88 276.59 55.41 276.37
  Q 55.94 276.14 55.67 275.44
  A 0.42 0.42 0.0 0 0 55.02 275.26
  L 54.29 275.83"
/>
<path stroke="#808080" vector-effect="non-scaling-stroke" d="
  M 58.07 276.18
  Q 61.15 277.24 62.66 280.13
  Q 62.95 280.70 63.56 280.52
  L 65.01 280.09
  A 2.00 2.00 0.0 0 0 65.32 276.38
  Q 62.53 275.01 58.45 275.57
  Q 58.13 275.61 57.99 276.01
  A 0.13 0.13 0.0 0 0 58.07 276.18"
/>
<path stroke="#808080" vector-effect="non-scaling-stroke" d="
  M 43.2740 285.4027
  A 0.27 0.27 0.0 0 0 43.2733 285.0208
  L 35.5949 277.3692
  A 0.27 0.27 0.0 0 0 35.2131 277.3698
  L 35.0860 277.4973
  A 0.27 0.27 0.0 0 0 35.0867 277.8792
  L 42.7651 285.5308
  A 0.27 0.27 0.0 0 0 43.1469 285.5302
  L 43.2740 285.4027"
/>
<path stroke="#808080" vector-effect="non-scaling-stroke" d="
  M 61.4771 280.8727
  A 1.14 0.60 -11.5 0 0 60.2404 280.5120
  A 1.14 0.60 -11.5 0 0 59.2429 281.3273
  A 1.14 0.60 -11.5 0 0 60.4796 281.6880
  A 1.14 0.60 -11.5 0 0 61.4771 280.8727"
/>
<path stroke="#808080" vector-effect="non-scaling-stroke" d="
  M 1226.79 480.33
  Q 1232.85 485.78 1240.07 489.59
  Q 1240.46 489.80 1240.67 489.41
  C 1243.09 484.88 1248.62 477.96 1254.13 477.24
  Q 1255.12 477.11 1254.43 476.38
  Q 1247.60 469.14 1240.69 463.32
  C 1233.81 457.52 1224.92 465.23 1222.56 471.59
  C 1220.89 476.13 1223.95 477.77 1226.79 480.33"
/>
<path stroke="#808080" vector-effect="non-scaling-stroke" d="
  M 1241.55 492.01
  L 1237.83 489.25
  A 0.24 0.24 0.0 0 0 1237.52 489.62
  C 1240.02 491.98 1242.31 494.40 1245.49 492.25
  Q 1253.48 486.85 1255.89 478.80
  A 0.28 0.28 0.0 0 0 1255.50 478.47
  Q 1254.79 478.81 1254.80 480.03
  C 1254.85 483.96 1247.68 490.37 1244.63 492.17
  A 2.80 2.78 -41.8 0 1 1241.55 492.01"
/>
<path stroke="#808080" vector-effect="non-scaling-stroke" d="
  M 1249.1444 484.3760
  A 1.14 0.72 -37.5 0 0 1247.8017 484.4988
  A 1.14 0.72 -37.5 0 0 1247.3356 485.7640
  A 1.14 0.72 -37.5 0 0 1248.6783 485.6412
  A 1.14 0.72 -37.5 0 0 1249.1444 484.3760"
/>
<path stroke="#808080" vector-effect="non-scaling-stroke" d="
  M 1190.12 506.05
  Q 1221.26 541.07 1252.49 576.01
  C 1254.32 578.05 1258.85 581.13 1261.32 579.32
  Q 1261.55 579.15 1261.63 578.99
  A 0.35 0.34 89.1 0 0 1261.17 578.54
  C 1257.50 580.21 1255.12 577.90 1252.88 575.38
  Q 1217.15 535.36 1181.25 495.50
  Q 1180.51 494.69 1180.98 493.05
  Q 1181.13 492.51 1180.73 492.89
  Q 1179.61 493.96 1180.37 495.12
  C 1182.75 498.75 1187.46 503.06 1190.12 506.05"
/>
<path stroke="#808080" vector-effect="non-scaling-stroke" d="
  M 1269.95 509.16
  L 1271.67 506.60
  A 1.27 1.27 0.0 0 0 1271.33 504.84
  L 1267.48 502.24
  A 2.67 2.64 34.0 0 0 1263.79 502.94
  L 1263.60 503.22
  A 2.67 2.64 34.0 0 0 1264.34 506.90
  L 1268.18 509.50
  A 1.27 1.27 0.0 0 0 1269.95 509.16"
/>
<path stroke="#808080" vector-effect="non-scaling-stroke" d="
  M 36.9722 508.8224
  A 1.15 0.65 83.4 0 0 37.4857 507.6053
  A 1.15 0.65 83.4 0 0 36.7078 506.5376
  A 1.15 0.65 83.4 0 0 36.1943 507.7547
  A 1.15 0.65 83.4 0 0 36.9722 508.8224"
/>
<path stroke="#808080" vector-effect="non-scaling-stroke" d="
  M 28.57 510.45
  L 46.23 529.10
  A 0.95 0.94 -25.9 0 1 45.68 530.68
  Q 35.21 532.23 24.68 532.30
  Q 24.15 532.30 24.04 532.82
  Q 23.91 533.50 24.41 533.94
  Q 24.81 534.29 25.70 534.29
  Q 35.18 534.28 44.54 532.70
  Q 47.59 532.19 50.24 532.25
  A 0.68 0.67 69.5 0 0 50.75 531.12
  C 43.74 523.37 36.67 515.41 28.63 508.80
  Q 28.27 508.50 27.81 508.49
  Q 25.50 508.46 24.37 510.49
  Q 23.86 511.39 24.85 511.10
  L 27.77 510.24
  Q 28.24 510.10 28.57 510.45"
/>
<path stroke="#808080" vector-effect="non-scaling-stroke" d="
  M 20.7817 534.2277
  A 11.11 1.11 95.0 0 0 22.8558 523.2567
  A 11.11 1.11 95.0 0 0 22.7183 512.0923
  A 11.11 1.11 95.0 0 0 20.6442 523.0633
  A 11.11 1.11 95.0 0 0 20.7817 534.2277"
/>
<path stroke="#808080" vector-effect="non-scaling-stroke" d="
  M 1135.05 658.73
  C 1133.74 662.43 1134.78 672.60 1134.79 677.26
  Q 1134.80 678.69 1133.67 677.81
  L 1121.50 668.22
  A 0.45 0.44 45.5 0 0 1120.96 668.21
  Q 1120.22 668.76 1121.42 669.84
  Q 1128.39 676.14 1136.09 681.15
  Q 1136.88 681.66 1136.85 680.72
  L 1136.32 660.15
  Q 1136.31 659.65 1136.02 659.25
  Q 1135.40 658.42 1135.51 657.34
  Q 1135.55 656.86 1135.15 656.59
  Q 1134.26 656.00 1133.07 656.31
  Q 1131.93 656.60 1132.96 657.17
  L 1134.85 658.21
  Q 1135.17 658.38 1135.05 658.73"
/>
<path stroke="#808080" vector-effect="non-scaling-stroke" d="
  M 1130.9353 656.3744
  A 8.23 0.79 -41.8 0 0 1124.2734 661.2711
  A 8.23 0.79 -41.8 0 0 1118.6647 667.3456
  A 8.23 0.79 -41.8 0 0 1125.3266 662.4489
  A 8.23 0.79 -41.8 0 0 1130.9353 656.3744"
/>
<path stroke="#808080" vector-effect="non-scaling-stroke" d="
  M 1141.41 661.37
  Q 1141.63 660.60 1140.80 660.33
  A 0.43 0.43 0.0 0 0 1140.24 660.78
  L 1140.29 661.47
  A 0.37 0.37 0.0 0 0 1140.81 661.78
  L 1141.22 661.59
  A 0.32 0.32 0.0 0 0 1141.41 661.37"
/>
<path stroke="#808080" vector-effect="non-scaling-stroke" d="
  M 975.54 668.69
  A 0.71 0.71 0.0 0 1 975.95 667.50
  Q 986.58 665.81 997.35 665.71
  Q 998.00 665.70 998.00 665.05
  L 998.00 664.53
  A 0.64 0.64 0.0 0 0 997.40 663.89
  C 989.00 663.35 979.99 665.00 971.80 666.10
  Q 970.60 666.26 971.42 667.15
  Q 980.72 677.22 990.00 686.67
  C 991.68 688.39 995.78 691.44 997.52 687.86
  A 0.51 0.51 0.0 0 0 996.94 687.14
  L 993.98 687.86
  Q 993.65 687.94 993.42 687.69
  L 975.54 668.69"
/>
<path stroke="#808080" vector-effect="non-scaling-stroke" d="
  M 1002.1037 665.1017
  A 0.90 0.90 0.0 0 0 1001.2873 664.1253
  L 1001.2275 664.1200
  A 0.90 0.90 0.0 0 0 1000.2511 664.9364
  L 998.4963 684.5983
  A 0.90 0.90 0.0 0 0 999.3127 685.5747
  L 999.3725 685.5800
  A 0.90 0.90 0.0 0 0 1000.3489 684.7636
  L 1002.1037 665.1017"
/>
<path stroke="#808080" vector-effect="non-scaling-stroke" d="
  M 336.78 683.33
  L 346.58 678.16
  A 1.49 1.48 -11.4 0 1 348.75 679.60
  C 348.51 682.49 342.35 685.54 340.33 687.33
  Q 340.04 687.60 340.33 687.82
  Q 340.60 688.02 340.88 687.83
  Q 344.53 685.25 348.19 682.69
  C 351.11 680.65 349.88 676.16 345.93 677.67
  Q 341.42 679.39 337.90 682.05
  A 1.08 1.07 57.0 0 1 336.31 681.71
  C 332.18 674.21 325.22 666.84 315.62 669.16
  Q 314.22 669.50 312.78 669.56
  Q 312.50 669.57 312.39 669.68
  Q 312.24 669.84 312.24 670.12
  Q 312.25 670.67 312.77 670.51
  C 324.24 666.99 331.44 674.09 336.45 683.24
  A 0.24 0.24 0.0 0 0 336.78 683.33"
/>
<path stroke="#808080" vector-effect="non-scaling-stroke" d="
  M 331.0461 684.2791
  A 3.29 0.58 24.4 0 0 328.2896 682.3918
  A 3.29 0.58 24.4 0 0 325.0539 681.5609
  A 3.29 0.58 24.4 0 0 327.8104 683.4482
  A 3.29 0.58 24.4 0 0 331.0461 684.2791"
/>
<path stroke="#808080" vector-effect="non-scaling-stroke" d="
  M 985.67 691.40
  Q 986.58 689.96 985.07 689.44
  A 0.51 0.51 0.0 0 0 984.43 690.11
  L 984.92 691.33
  A 0.42 0.42 0.0 0 0 985.67 691.40"
/>
<path stroke="#808080" vector-effect="non-scaling-stroke" d="
  M 1247.32 0.00
  C 1242.42 0.03 1236.74 1.64 1233.33 2.14
  Q 1218.11 4.38 1203.11 6.48
  A 2.47 2.46 -87.4 0 0 1201.04 8.38
  L 1194.30 38.53
  A 0.53 0.53 0.0 0 0 1195.27 38.92
  C 1196.09 37.56 1198.17 37.26 1199.83 37.28
  C 1218.78 37.48 1238.22 34.96 1257.00 32.51
  Q 1259.83 32.14 1264.69 33.05
  A 1.19 1.16 32.6 0 0 1265.60 32.86
  L 1280.00 22.69"
/>
<path stroke="#808080" vector-effect="non-scaling-stroke" d="
  M 22.34 380.51
  C 35.74 380.44 49.71 381.34 63.41 381.27
  C 66.52 381.25 68.92 379.99 70.76 377.74
  Q 71.54 376.77 70.73 375.83
  C 66.03 370.39 60.77 362.97 57.71 359.07
  Q 44.41 342.11 31.16 325.11
  Q 30.00 323.62 28.67 322.67
  A 0.35 0.34 -66.5 0 0 28.13 322.89
  Q 26.13 332.27 25.19 341.61
  C 23.81 355.30 22.10 367.12 21.83 379.99
  Q 21.82 380.51 22.34 380.51"
/>
<path stroke="#808080" vector-effect="non-scaling-stroke" d="
  M 57.26 378.79
  Q 63.04 381.04 67.33 376.96
  A 1.31 1.30 -36.7 0 0 67.57 375.36
  Q 65.64 371.93 62.67 369.35
  Q 62.13 368.88 61.75 369.49
  L 56.83 377.49
  A 0.89 0.89 0.0 0 0 57.26 378.79"
/>
<path stroke="#808080" vector-effect="non-scaling-stroke" d="
  M 1261.08 558.28
  Q 1260.28 557.82 1259.66 558.45
  A 0.51 0.50 8.4 0 0 1260.26 559.25
  L 1261.07 558.83
  Q 1261.59 558.56 1261.08 558.28"
/>
<path stroke="#808080" vector-effect="non-scaling-stroke" d="
  M 1189.68 571.07
  C 1186.16 567.45 1186.28 568.32 1181.66 566.96
  A 1.63 1.62 -79.9 0 0 1179.58 568.42
  C 1179.38 571.54 1179.71 574.27 1178.92 577.44
  Q 1178.20 580.30 1177.70 583.99
  Q 1174.11 610.45 1170.88 636.70
  A 0.55 0.55 0.0 0 0 1171.70 637.24
  C 1177.41 633.88 1182.18 630.57 1187.67 626.03
  C 1197.55 617.86 1207.94 610.33 1217.38 601.61
  A 1.09 1.08 47.0 0 0 1217.43 600.07
  Q 1203.62 585.40 1189.68 571.07"
/>
<path stroke="#808080" vector-effect="non-scaling-stroke" d="
  M 1191.57 576.51
  C 1190.63 573.42 1186.36 569.66 1182.57 570.64
  A 1.11 1.11 0.0 0 0 1181.82 571.30
  Q 1180.26 575.05 1180.83 579.13
  Q 1180.93 579.83 1181.63 579.67
  L 1191.05 577.43
  A 0.73 0.72 74.6 0 0 1191.57 576.51"
/>
<path stroke="#808080" vector-effect="non-scaling-stroke" d="
  M 32.68 720.00
  C 35.18 719.59 37.69 719.89 40.07 719.40
  C 53.03 716.74 66.23 715.25 79.32 713.26
  Q 79.92 713.16 80.05 712.57
  L 87.12 681.02
  A 0.36 0.36 0.0 0 0 86.45 680.77
  Q 85.43 682.67 82.94 682.71
  C 63.23 683.07 44.03 684.91 24.50 687.50
  C 20.13 688.08 17.83 685.79 13.49 688.73
  Q 6.66 693.34 0.00 698.16"
/>
<path stroke="#808080" vector-effect="non-scaling-stroke" d="
  M 244.70 720.00
  C 235.40 710.00 224.51 700.89 215.94 691.37
  A 0.38 0.38 0.0 0 0 215.27 691.64
  Q 215.96 706.02 219.83 720.00"
/>
</g>
<path fill="#ffffff" d="
  M 0.00 0.00
  L 9.08 0.00
  Q 14.47 4.54 22.65 9.87
  C 52.91 29.60 83.99 48.61 113.42 69.53
  A 1.11 1.11 0.0 0 0 114.85 69.40
  L 118.47 65.70
  A 0.55 0.55 0.0 0 1 119.29 66.42
  Q 107.85 80.85 96.04 94.95
  C 81.05 112.85 67.21 131.75 51.21 148.76
  C 47.86 152.32 46.24 159.59 39.77 154.48
  Q 20.05 138.92 0.00 122.75
  L 0.00 120.47
  Q 20.24 137.05 40.98 153.53
  C 43.95 155.88 45.22 154.64 46.96 151.88
  Q 49.57 147.74 53.26 144.49
  A 0.75 0.74 -51.2 0 0 53.13 143.28
  C 41.15 136.63 31.96 129.96 20.68 119.94
  Q 10.77 111.13 0.00 103.14
  L 0.00 0.00
  Z"
/>
<path fill="#000000" d="
  M 9.08 0.00
  L 100.32 0.00
  Q 115.94 23.66 131.15 47.88
  Q 131.75 48.84 132.39 49.18
  A 0.77 0.76 84.9 0 0 133.35 48.03
  Q 131.13 45.24 129.23 42.28
  Q 115.86 21.37 102.80 0.00
  L 1201.34 0.00
  L 1184.27 78.58
  A 1.21 1.19 -58.4 0 0 1184.49 79.55
  C 1186.85 82.63 1199.01 78.36 1201.19 77.20
  C 1206.75 74.23 1213.78 68.55 1220.43 64.50
  C 1230.26 58.52 1240.63 50.77 1248.99 45.31
  Q 1264.49 35.20 1280.00 24.58
  L 1280.00 94.98
  Q 1272.96 82.88 1266.83 71.43
  C 1265.64 69.21 1262.83 67.17 1260.15 68.91
  A 0.47 0.47 0.0 0 0 1260.36 69.77
  L 1263.64 70.07
  Q 1263.91 70.09 1264.04 70.34
  L 1276.28 92.85
  A 0.97 0.97 0.0 0 1 1275.32 94.27
  Q 1264.85 93.08 1254.73 90.37
  A 1.00 0.96 88.0 0 0 1253.59 91.65
  Q 1253.68 91.95 1254.14 92.34
  Q 1254.44 92.59 1254.90 92.71
  Q 1266.16 95.59 1277.76 96.41
  Q 1279.02 96.49 1280.00 97.81
  L 1280.00 522.81
  Q 1279.79 522.78 1279.73 523.23
  Q 1279.68 523.65 1279.37 523.35
  C 1271.79 515.98 1263.09 506.80 1253.78 501.75
  Q 1234.80 491.44 1215.97 480.84
  C 1213.40 479.39 1211.07 479.87 1208.51 480.76
  Q 1195.90 485.16 1183.00 489.80
  A 1.45 1.44 -31.6 0 0 1182.44 492.15
  L 1261.73 576.59
  A 1.83 1.82 44.4 0 0 1264.41 576.57
  L 1280.00 559.39
  L 1280.00 720.00
  L 1275.55 720.00
  L 1277.32 702.96
  Q 1277.35 702.72 1277.18 702.56
  L 1276.94 702.32
  A 0.23 0.23 0.0 0 0 1276.55 702.45
  Q 1275.15 711.57 1271.30 720.00
  L 1244.93 720.00
  Q 1252.28 708.64 1259.61 697.61
  C 1265.84 688.21 1270.45 678.96 1275.13 669.10
  C 1276.72 665.76 1278.10 662.33 1275.19 659.31
  C 1251.80 635.12 1220.38 601.24 1187.38 567.06
  Q 1187.04 566.70 1186.54 566.63
  C 1182.50 565.99 1178.39 564.27 1178.33 570.37
  C 1178.26 576.41 1176.53 583.63 1175.98 587.96
  Q 1167.53 654.03 1158.50 720.00
  L 352.19 720.00
  Q 348.09 719.26 343.64 720.00
  L 342.46 720.00
  Q 342.27 719.71 341.96 719.54
  A 0.53 0.53 0.0 0 1 342.33 718.55
  C 344.02 718.92 353.13 720.55 351.72 716.52
  Q 347.78 705.27 339.49 687.76
  C 339.10 686.95 338.99 685.45 338.12 684.78
  A 0.31 0.31 0.0 0 0 337.65 685.15
  L 341.68 694.50
  A 0.26 0.26 0.0 0 1 341.29 694.82
  Q 336.71 691.58 332.07 688.39
  C 324.88 683.44 317.34 677.34 309.16 672.65
  Q 308.70 672.38 308.28 672.71
  C 301.74 677.83 304.25 684.91 305.34 691.77
  C 305.57 693.21 306.86 693.72 307.46 694.95
  Q 311.67 703.50 316.18 711.93
  Q 316.40 712.34 315.95 712.48
  L 315.00 712.78
  Q 314.44 712.96 314.29 713.52
  Q 313.84 715.29 315.11 716.25
  A 1.13 1.11 -35.9 0 0 316.14 716.41
  L 317.12 716.08
  A 0.65 0.64 73.8 0 1 317.95 716.54
  C 318.37 718.21 319.50 718.03 319.94 719.11
  Q 320.14 719.59 319.68 720.00
  L 297.60 720.00
  C 298.30 715.41 297.56 713.00 293.36 710.59
  Q 261.54 692.34 226.85 680.42
  C 218.90 677.69 215.17 682.73 214.50 689.87
  C 213.55 699.97 216.41 710.12 218.25 720.00
  L 79.78 720.00
  L 96.96 641.43
  Q 97.08 640.88 96.74 640.44
  C 94.60 637.68 85.45 640.71 82.86 641.67
  Q 79.98 642.74 76.05 645.49
  C 65.72 652.72 54.72 659.18 44.66 666.31
  C 33.75 674.04 22.45 681.00 11.42 688.66
  Q 5.87 692.51 0.00 696.04
  L 0.00 381.46
  Q 17.38 381.39 34.75 381.99
  Q 38.22 382.11 42.93 381.95
  C 49.93 381.72 56.86 382.35 63.82 382.45
  C 67.38 382.51 69.87 380.78 71.90 378.18
  A 1.91 1.91 0.0 0 0 71.90 375.84
  L 0.00 283.73
  L 0.00 232.16
  L 19.10 239.78
  Q 19.69 240.02 19.64 239.38
  C 19.36 235.69 17.98 231.84 17.66 228.66
  Q 15.54 207.66 12.77 186.66
  A 1.06 1.06 0.0 0 0 11.13 185.92
  L 0.00 193.48
  L 0.00 190.43
  L 4.86 186.57
  Q 5.01 186.46 4.89 186.31
  Q 4.80 186.22 4.66 186.21
  Q 4.51 186.20 4.32 186.34
  Q 2.22 187.96 0.00 188.94
  L 0.00 122.75
  Q 20.05 138.92 39.77 154.48
  C 46.24 159.59 47.86 152.32 51.21 148.76
  C 67.21 131.75 81.05 112.85 96.04 94.95
  Q 107.85 80.85 119.29 66.42
  A 0.55 0.55 0.0 0 0 118.47 65.70
  L 114.85 69.40
  A 1.11 1.11 0.0 0 1 113.42 69.53
  C 83.99 48.61 52.91 29.60 22.65 9.87
  Q 14.47 4.54 9.08 0.00
  Z
  M 302.3913 2.5327
  A 0.95 0.84 68.3 0 0 302.8205 1.3394
  A 0.95 0.84 68.3 0 0 301.6887 0.7673
  A 0.95 0.84 68.3 0 0 301.2595 1.9606
  A 0.95 0.84 68.3 0 0 302.3913 2.5327
  Z
  M 293.9790 2.8409
  A 2.19 1.04 -21.4 0 0 291.5605 2.6717
  A 2.19 1.04 -21.4 0 0 289.9010 4.4391
  A 2.19 1.04 -21.4 0 0 292.3195 4.6083
  A 2.19 1.04 -21.4 0 0 293.9790 2.8409
  Z
  M 310.96 24.45
  Q 301.84 26.26 291.60 26.20
  Q 291.30 26.20 290.57 25.98
  Q 289.88 25.78 289.47 26.25
  A 1.25 1.25 0.0 0 0 290.43 28.31
  Q 300.82 28.22 310.98 26.36
  Q 313.40 25.92 315.42 26.01
  A 0.72 0.72 0.0 0 0 315.98 24.79
  L 296.12 3.89
  A 0.78 0.78 0.0 0 0 294.78 4.46
  Q 294.81 5.45 295.77 6.48
  Q 303.52 14.74 311.51 22.62
  Q 312.95 24.05 310.96 24.45
  Z
  M 288.7712 7.6234
  A 0.88 0.88 0.0 0 0 287.9696 6.6715
  L 287.9098 6.6664
  A 0.88 0.88 0.0 0 0 286.9578 7.4680
  L 285.2888 26.9366
  A 0.88 0.88 0.0 0 0 286.0904 27.8885
  L 286.1502 27.8936
  A 0.88 0.88 0.0 0 0 287.1022 27.0920
  L 288.7712 7.6234
  Z
  M 165.71 21.79
  C 161.32 17.96 156.55 14.38 151.75 11.08
  Q 150.51 10.23 150.50 11.73
  Q 150.46 21.10 150.84 29.69
  C 150.94 31.76 151.22 37.01 154.38 35.65
  A 0.52 0.52 0.0 0 0 154.38 34.70
  L 152.96 34.07
  Q 152.50 33.87 152.50 33.36
  L 152.50 14.70
  A 0.75 0.74 19.3 0 1 153.71 14.12
  L 165.79 23.71
  A 0.55 0.55 0.0 0 0 166.67 23.14
  Q 166.49 22.47 165.71 21.79
  Z
  M 168.8435 24.5064
  A 8.24 0.84 -42.0 0 0 162.1579 29.3958
  A 8.24 0.84 -42.0 0 0 156.5965 35.5336
  A 8.24 0.84 -42.0 0 0 163.2821 30.6442
  A 8.24 0.84 -42.0 0 0 168.8435 24.5064
  Z
  M 146.81 31.69
  Q 146.94 31.73 147.08 31.77
  Q 147.21 31.82 147.22 31.68
  L 147.26 30.77
  A 0.46 0.46 0.0 0 0 146.61 30.33
  Q 146.08 30.57 146.27 31.25
  Q 146.31 31.42 146.44 31.50
  A 0.90 0.10 33.2 0 0 146.81 31.69
  Z
  M 1125.61 43.33
  Q 1130.95 49.12 1134.51 54.98
  Q 1135.07 55.89 1136.09 55.72
  A 0.61 0.61 0.0 0 0 1136.47 54.75
  L 1124.74 39.64
  Q 1124.09 38.80 1123.83 39.84
  L 1118.63 60.96
  A 0.58 0.58 0.0 0 0 1119.54 61.56
  C 1119.97 61.23 1120.56 60.63 1120.68 60.04
  Q 1122.42 51.67 1124.87 43.50
  Q 1125.09 42.77 1125.61 43.33
  Z
  M 129.23 52.93
  Q 126.21 55.18 125.15 58.78
  Q 124.97 59.41 125.57 59.14
  Q 126.67 58.65 127.10 57.82
  Q 128.96 54.26 131.39 51.07
  Q 131.69 50.67 131.20 50.60
  L 130.66 50.52
  A 0.44 0.43 -75.7 0 0 130.18 50.81
  L 129.71 52.27
  Q 129.57 52.67 129.23 52.93
  Z
  M 1114.33 57.61
  L 1114.27 58.24
  A 0.56 0.56 0.0 0 0 1115.26 58.65
  Q 1115.81 57.98 1115.24 57.32
  A 0.52 0.52 0.0 0 0 1114.33 57.61
  Z
  M 1137.9362 57.5129
  A 8.05 0.87 -27.1 0 0 1130.3737 60.4055
  A 8.05 0.87 -27.1 0 0 1123.6038 64.8471
  A 8.05 0.87 -27.1 0 0 1131.1663 61.9545
  A 8.05 0.87 -27.1 0 0 1137.9362 57.5129
  Z
  M 1121.4281 64.5501
  A 1.79 0.82 42.1 0 0 1120.6497 62.7416
  A 1.79 0.82 42.1 0 0 1118.7719 62.1499
  A 1.79 0.82 42.1 0 0 1119.5503 63.9584
  A 1.79 0.82 42.1 0 0 1121.4281 64.5501
  Z
  M 1272.5874 70.8079
  A 1.10 0.77 98.5 0 0 1273.5115 69.8338
  A 1.10 0.77 98.5 0 0 1272.9126 68.6321
  A 1.10 0.77 98.5 0 0 1271.9885 69.6062
  A 1.10 0.77 98.5 0 0 1272.5874 70.8079
  Z
  M 1258.3351 71.9955
  A 0.88 0.88 0.0 0 0 1257.8092 70.8676
  L 1257.7716 70.8539
  A 0.88 0.88 0.0 0 0 1256.6437 71.3798
  L 1249.8649 90.0045
  A 0.88 0.88 0.0 0 0 1250.3908 91.1324
  L 1250.4284 91.1461
  A 0.88 0.88 0.0 0 0 1251.5563 90.6202
  L 1258.3351 71.9955
  Z
  M 11.47 182.69
  C 13.03 184.05 14.33 184.77 15.91 186.48
  A 0.09 0.09 0.0 0 0 16.06 186.38
  Q 14.62 183.47 11.85 182.12
  A 0.35 0.34 -11.5 0 0 11.47 182.69
  Z
  M 6.50 185.49
  L 9.18 183.27
  A 0.27 0.26 7.9 0 0 8.86 182.85
  Q 7.39 183.84 6.14 185.09
  A 0.27 0.27 0.0 0 0 6.50 185.49
  Z
  M 20.69 192.31
  Q 39.47 215.59 59.01 238.22
  Q 59.09 238.31 59.20 238.27
  Q 59.34 238.22 59.49 238.17
  Q 59.75 238.09 59.57 237.88
  Q 38.65 213.72 18.68 188.78
  C 18.14 188.11 17.29 187.63 16.62 187.03
  Q 16.26 186.71 16.08 187.15
  Q 15.82 187.77 16.34 188.18
  Q 19.24 190.50 20.69 192.31
  Z
  M 63.31 242.19
  Q 61.97 240.76 61.21 239.85
  A 0.98 0.98 0.0 0 0 59.48 240.59
  C 60.29 247.46 56.66 249.79 50.93 251.91
  Q 50.05 252.24 50.92 252.58
  L 59.46 255.86
  A 0.98 0.97 -55.3 0 0 60.47 255.67
  Q 61.43 254.79 62.77 255.02
  A 0.66 0.66 0.0 0 0 63.53 254.47
  Q 64.26 249.63 63.40 244.78
  A 1.19 1.18 -32.8 0 1 63.60 243.88
  Q 64.16 243.09 63.31 242.19
  Z
  M 29.56 243.55
  L 32.44 245.35
  A 0.31 0.31 0.0 0 0 32.83 244.88
  Q 31.61 243.56 29.75 243.09
  Q 28.20 242.70 29.56 243.55
  Z
  M 47.38 250.50
  C 43.08 248.38 38.50 247.31 34.55 245.27
  Q 34.16 245.06 34.37 245.45
  Q 34.78 246.17 35.75 246.53
  Q 40.94 248.43 43.50 249.28
  C 44.74 249.69 46.06 251.05 47.29 250.97
  Q 48.20 250.90 47.38 250.50
  Z
  M 65.53 245.86
  Q 65.91 247.19 66.77 248.28
  A 0.34 0.34 0.0 0 0 67.36 247.94
  Q 66.86 246.65 65.88 245.66
  Q 65.29 245.05 65.53 245.86
  Z
  M 66.81 256.59
  Q 65.97 257.22 65.99 258.25
  A 0.46 0.46 0.0 0 0 66.79 258.56
  Q 69.05 256.15 67.93 253.13
  A 0.33 0.32 36.7 0 0 67.30 253.22
  L 67.14 256.00
  A 0.81 0.81 0.0 0 1 66.81 256.59
  Z
  M 56.57 281.36
  L 50.05 275.69
  Q 49.69 275.38 49.22 275.36
  L 35.41 274.74
  A 1.04 1.03 -11.6 0 0 34.43 276.22
  Q 34.76 276.91 35.34 276.72
  A 0.81 0.81 0.0 0 1 36.11 276.89
  L 45.69 285.41
  Q 46.07 285.75 46.55 285.61
  L 57.84 282.31
  A 0.41 0.41 0.0 0 0 57.99 281.61
  Q 57.74 281.41 57.40 281.52
  Q 56.94 281.69 56.57 281.36
  Z
  M 54.29 275.83
  A 0.37 0.36 32.8 0 0 54.43 276.47
  Q 54.88 276.59 55.41 276.37
  Q 55.94 276.14 55.67 275.44
  A 0.42 0.42 0.0 0 0 55.02 275.26
  L 54.29 275.83
  Z
  M 58.07 276.18
  Q 61.15 277.24 62.66 280.13
  Q 62.95 280.70 63.56 280.52
  L 65.01 280.09
  A 2.00 2.00 0.0 0 0 65.32 276.38
  Q 62.53 275.01 58.45 275.57
  Q 58.13 275.61 57.99 276.01
  A 0.13 0.13 0.0 0 0 58.07 276.18
  Z
  M 43.2740 285.4027
  A 0.27 0.27 0.0 0 0 43.2733 285.0208
  L 35.5949 277.3692
  A 0.27 0.27 0.0 0 0 35.2131 277.3698
  L 35.0860 277.4973
  A 0.27 0.27 0.0 0 0 35.0867 277.8792
  L 42.7651 285.5308
  A 0.27 0.27 0.0 0 0 43.1469 285.5302
  L 43.2740 285.4027
  Z
  M 61.4771 280.8727
  A 1.14 0.60 -11.5 0 0 60.2404 280.5120
  A 1.14 0.60 -11.5 0 0 59.2429 281.3273
  A 1.14 0.60 -11.5 0 0 60.4796 281.6880
  A 1.14 0.60 -11.5 0 0 61.4771 280.8727
  Z
  M 1226.79 480.33
  Q 1232.85 485.78 1240.07 489.59
  Q 1240.46 489.80 1240.67 489.41
  C 1243.09 484.88 1248.62 477.96 1254.13 477.24
  Q 1255.12 477.11 1254.43 476.38
  Q 1247.60 469.14 1240.69 463.32
  C 1233.81 457.52 1224.92 465.23 1222.56 471.59
  C 1220.89 476.13 1223.95 477.77 1226.79 480.33
  Z
  M 1241.55 492.01
  L 1237.83 489.25
  A 0.24 0.24 0.0 0 0 1237.52 489.62
  C 1240.02 491.98 1242.31 494.40 1245.49 492.25
  Q 1253.48 486.85 1255.89 478.80
  A 0.28 0.28 0.0 0 0 1255.50 478.47
  Q 1254.79 478.81 1254.80 480.03
  C 1254.85 483.96 1247.68 490.37 1244.63 492.17
  A 2.80 2.78 -41.8 0 1 1241.55 492.01
  Z
  M 1249.1444 484.3760
  A 1.14 0.72 -37.5 0 0 1247.8017 484.4988
  A 1.14 0.72 -37.5 0 0 1247.3356 485.7640
  A 1.14 0.72 -37.5 0 0 1248.6783 485.6412
  A 1.14 0.72 -37.5 0 0 1249.1444 484.3760
  Z
  M 1190.12 506.05
  Q 1221.26 541.07 1252.49 576.01
  C 1254.32 578.05 1258.85 581.13 1261.32 579.32
  Q 1261.55 579.15 1261.63 578.99
  A 0.35 0.34 89.1 0 0 1261.17 578.54
  C 1257.50 580.21 1255.12 577.90 1252.88 575.38
  Q 1217.15 535.36 1181.25 495.50
  Q 1180.51 494.69 1180.98 493.05
  Q 1181.13 492.51 1180.73 492.89
  Q 1179.61 493.96 1180.37 495.12
  C 1182.75 498.75 1187.46 503.06 1190.12 506.05
  Z
  M 1269.95 509.16
  L 1271.67 506.60
  A 1.27 1.27 0.0 0 0 1271.33 504.84
  L 1267.48 502.24
  A 2.67 2.64 34.0 0 0 1263.79 502.94
  L 1263.60 503.22
  A 2.67 2.64 34.0 0 0 1264.34 506.90
  L 1268.18 509.50
  A 1.27 1.27 0.0 0 0 1269.95 509.16
  Z
  M 36.9722 508.8224
  A 1.15 0.65 83.4 0 0 37.4857 507.6053
  A 1.15 0.65 83.4 0 0 36.7078 506.5376
  A 1.15 0.65 83.4 0 0 36.1943 507.7547
  A 1.15 0.65 83.4 0 0 36.9722 508.8224
  Z
  M 28.57 510.45
  L 46.23 529.10
  A 0.95 0.94 -25.9 0 1 45.68 530.68
  Q 35.21 532.23 24.68 532.30
  Q 24.15 532.30 24.04 532.82
  Q 23.91 533.50 24.41 533.94
  Q 24.81 534.29 25.70 534.29
  Q 35.18 534.28 44.54 532.70
  Q 47.59 532.19 50.24 532.25
  A 0.68 0.67 69.5 0 0 50.75 531.12
  C 43.74 523.37 36.67 515.41 28.63 508.80
  Q 28.27 508.50 27.81 508.49
  Q 25.50 508.46 24.37 510.49
  Q 23.86 511.39 24.85 511.10
  L 27.77 510.24
  Q 28.24 510.10 28.57 510.45
  Z
  M 20.7817 534.2277
  A 11.11 1.11 95.0 0 0 22.8558 523.2567
  A 11.11 1.11 95.0 0 0 22.7183 512.0923
  A 11.11 1.11 95.0 0 0 20.6442 523.0633
  A 11.11 1.11 95.0 0 0 20.7817 534.2277
  Z
  M 1135.05 658.73
  C 1133.74 662.43 1134.78 672.60 1134.79 677.26
  Q 1134.80 678.69 1133.67 677.81
  L 1121.50 668.22
  A 0.45 0.44 45.5 0 0 1120.96 668.21
  Q 1120.22 668.76 1121.42 669.84
  Q 1128.39 676.14 1136.09 681.15
  Q 1136.88 681.66 1136.85 680.72
  L 1136.32 660.15
  Q 1136.31 659.65 1136.02 659.25
  Q 1135.40 658.42 1135.51 657.34
  Q 1135.55 656.86 1135.15 656.59
  Q 1134.26 656.00 1133.07 656.31
  Q 1131.93 656.60 1132.96 657.17
  L 1134.85 658.21
  Q 1135.17 658.38 1135.05 658.73
  Z
  M 1130.9353 656.3744
  A 8.23 0.79 -41.8 0 0 1124.2734 661.2711
  A 8.23 0.79 -41.8 0 0 1118.6647 667.3456
  A 8.23 0.79 -41.8 0 0 1125.3266 662.4489
  A 8.23 0.79 -41.8 0 0 1130.9353 656.3744
  Z
  M 1141.41 661.37
  Q 1141.63 660.60 1140.80 660.33
  A 0.43 0.43 0.0 0 0 1140.24 660.78
  L 1140.29 661.47
  A 0.37 0.37 0.0 0 0 1140.81 661.78
  L 1141.22 661.59
  A 0.32 0.32 0.0 0 0 1141.41 661.37
  Z
  M 975.54 668.69
  A 0.71 0.71 0.0 0 1 975.95 667.50
  Q 986.58 665.81 997.35 665.71
  Q 998.00 665.70 998.00 665.05
  L 998.00 664.53
  A 0.64 0.64 0.0 0 0 997.40 663.89
  C 989.00 663.35 979.99 665.00 971.80 666.10
  Q 970.60 666.26 971.42 667.15
  Q 980.72 677.22 990.00 686.67
  C 991.68 688.39 995.78 691.44 997.52 687.86
  A 0.51 0.51 0.0 0 0 996.94 687.14
  L 993.98 687.86
  Q 993.65 687.94 993.42 687.69
  L 975.54 668.69
  Z
  M 1002.1037 665.1017
  A 0.90 0.90 0.0 0 0 1001.2873 664.1253
  L 1001.2275 664.1200
  A 0.90 0.90 0.0 0 0 1000.2511 664.9364
  L 998.4963 684.5983
  A 0.90 0.90 0.0 0 0 999.3127 685.5747
  L 999.3725 685.5800
  A 0.90 0.90 0.0 0 0 1000.3489 684.7636
  L 1002.1037 665.1017
  Z
  M 336.78 683.33
  L 346.58 678.16
  A 1.49 1.48 -11.4 0 1 348.75 679.60
  C 348.51 682.49 342.35 685.54 340.33 687.33
  Q 340.04 687.60 340.33 687.82
  Q 340.60 688.02 340.88 687.83
  Q 344.53 685.25 348.19 682.69
  C 351.11 680.65 349.88 676.16 345.93 677.67
  Q 341.42 679.39 337.90 682.05
  A 1.08 1.07 57.0 0 1 336.31 681.71
  C 332.18 674.21 325.22 666.84 315.62 669.16
  Q 314.22 669.50 312.78 669.56
  Q 312.50 669.57 312.39 669.68
  Q 312.24 669.84 312.24 670.12
  Q 312.25 670.67 312.77 670.51
  C 324.24 666.99 331.44 674.09 336.45 683.24
  A 0.24 0.24 0.0 0 0 336.78 683.33
  Z
  M 331.0461 684.2791
  A 3.29 0.58 24.4 0 0 328.2896 682.3918
  A 3.29 0.58 24.4 0 0 325.0539 681.5609
  A 3.29 0.58 24.4 0 0 327.8104 683.4482
  A 3.29 0.58 24.4 0 0 331.0461 684.2791
  Z
  M 985.67 691.40
  Q 986.58 689.96 985.07 689.44
  A 0.51 0.51 0.0 0 0 984.43 690.11
  L 984.92 691.33
  A 0.42 0.42 0.0 0 0 985.67 691.40
  Z"
/>
<path fill="#ffffff" d="
  M 100.32 0.00
  L 102.80 0.00
  Q 115.86 21.37 129.23 42.28
  Q 131.13 45.24 133.35 48.03
  A 0.77 0.76 84.9 0 1 132.39 49.18
  Q 131.75 48.84 131.15 47.88
  Q 115.94 23.66 100.32 0.00
  Z"
/>
<path fill="#ffffff" d="
  M 1201.34 0.00
  L 1247.32 0.00
  C 1242.42 0.03 1236.74 1.64 1233.33 2.14
  Q 1218.11 4.38 1203.11 6.48
  A 2.47 2.46 -87.4 0 0 1201.04 8.38
  L 1194.30 38.53
  A 0.53 0.53 0.0 0 0 1195.27 38.92
  C 1196.09 37.56 1198.17 37.26 1199.83 37.28
  C 1218.78 37.48 1238.22 34.96 1257.00 32.51
  Q 1259.83 32.14 1264.69 33.05
  A 1.19 1.16 32.6 0 0 1265.60 32.86
  L 1280.00 22.69
  L 1280.00 24.58
  Q 1264.49 35.20 1248.99 45.31
  C 1240.63 50.77 1230.26 58.52 1220.43 64.50
  C 1213.78 68.55 1206.75 74.23 1201.19 77.20
  C 1199.01 78.36 1186.85 82.63 1184.49 79.55
  A 1.21 1.19 -58.4 0 1 1184.27 78.58
  L 1201.34 0.00
  Z"
/>
<path fill="#000000" d="
  M 1247.32 0.00
  L 1280.00 0.00
  L 1280.00 22.69
  L 1265.60 32.86
  A 1.19 1.16 32.6 0 1 1264.69 33.05
  Q 1259.83 32.14 1257.00 32.51
  C 1238.22 34.96 1218.78 37.48 1199.83 37.28
  C 1198.17 37.26 1196.09 37.56 1195.27 38.92
  A 0.53 0.53 0.0 0 1 1194.30 38.53
  L 1201.04 8.38
  A 2.47 2.46 -87.4 0 1 1203.11 6.48
  Q 1218.11 4.38 1233.33 2.14
  C 1236.74 1.64 1242.42 0.03 1247.32 0.00
  Z"
/>
<ellipse fill="#ffffff" cx="0.00" cy="0.00" transform="translate(302.04,1.65) rotate(68.3)" rx="0.95" ry="0.84"/>
<ellipse fill="#ffffff" cx="0.00" cy="0.00" transform="translate(291.94,3.64) rotate(-21.4)" rx="2.19" ry="1.04"/>
<path fill="#ffffff" d="
  M 310.96 24.45
  Q 312.95 24.05 311.51 22.62
  Q 303.52 14.74 295.77 6.48
  Q 294.81 5.45 294.78 4.46
  A 0.78 0.78 0.0 0 1 296.12 3.89
  L 315.98 24.79
  A 0.72 0.72 0.0 0 1 315.42 26.01
  Q 313.40 25.92 310.98 26.36
  Q 300.82 28.22 290.43 28.31
  A 1.25 1.25 0.0 0 1 289.47 26.25
  Q 289.88 25.78 290.57 25.98
  Q 291.30 26.20 291.60 26.20
  Q 301.84 26.26 310.96 24.45
  Z"
/>
<rect fill="#ffffff" x="-0.91" y="-10.65" transform="translate(287.03,17.28) rotate(4.9)" width="1.82" height="21.30" rx="0.88"/>
<path fill="#ffffff" d="
  M 151.75 11.08
  C 156.55 14.38 161.32 17.96 165.71 21.79
  Q 166.49 22.47 166.67 23.14
  A 0.55 0.55 0.0 0 1 165.79 23.71
  L 153.71 14.12
  A 0.75 0.74 19.3 0 0 152.50 14.70
  L 152.50 33.36
  Q 152.50 33.87 152.96 34.07
  L 154.38 34.70
  A 0.52 0.52 0.0 0 1 154.38 35.65
  C 151.22 37.01 150.94 31.76 150.84 29.69
  Q 150.46 21.10 150.50 11.73
  Q 150.51 10.23 151.75 11.08
  Z"
/>
<ellipse fill="#ffffff" cx="0.00" cy="0.00" transform="translate(162.72,30.02) rotate(-42.0)" rx="8.24" ry="0.84"/>
<path fill="#ffffff" d="
  M 146.44 31.50
  Q 146.31 31.42 146.27 31.25
  Q 146.08 30.57 146.61 30.33
  A 0.46 0.46 0.0 0 1 147.26 30.77
  L 147.22 31.68
  Q 147.21 31.82 147.08 31.77
  Q 146.94 31.73 146.81 31.69
  A 0.90 0.10 33.2 0 1 146.44 31.50
  Z"
/>
<path fill="#ffffff" d="
  M 1124.87 43.50
  Q 1122.42 51.67 1120.68 60.04
  C 1120.56 60.63 1119.97 61.23 1119.54 61.56
  A 0.58 0.58 0.0 0 1 1118.63 60.96
  L 1123.83 39.84
  Q 1124.09 38.80 1124.74 39.64
  L 1136.47 54.75
  A 0.61 0.61 0.0 0 1 1136.09 55.72
  Q 1135.07 55.89 1134.51 54.98
  Q 1130.95 49.12 1125.61 43.33
  Q 1125.09 42.77 1124.87 43.50
  Z"
/>
<path fill="#ffffff" d="
  M 129.71 52.27
  L 130.18 50.81
  A 0.44 0.43 -75.7 0 1 130.66 50.52
  L 131.20 50.60
  Q 131.69 50.67 131.39 51.07
  Q 128.96 54.26 127.10 57.82
  Q 126.67 58.65 125.57 59.14
  Q 124.97 59.41 125.15 58.78
  Q 126.21 55.18 129.23 52.93
  Q 129.57 52.67 129.71 52.27
  Z"
/>
<path fill="#ffffff" d="
  M 1114.33 57.61
  A 0.52 0.52 0.0 0 1 1115.24 57.32
  Q 1115.81 57.98 1115.26 58.65
  A 0.56 0.56 0.0 0 1 1114.27 58.24
  L 1114.33 57.61
  Z"
/>
<ellipse fill="#ffffff" cx="0.00" cy="0.00" transform="translate(1130.77,61.18) rotate(-27.1)" rx="8.05" ry="0.87"/>
<ellipse fill="#ffffff" cx="0.00" cy="0.00" transform="translate(1120.10,63.35) rotate(42.1)" rx="1.79" ry="0.82"/>
<path fill="#ffffff" d="
  M 1280.00 94.98
  L 1280.00 97.81
  Q 1279.02 96.49 1277.76 96.41
  Q 1266.16 95.59 1254.90 92.71
  Q 1254.44 92.59 1254.14 92.34
  Q 1253.68 91.95 1253.59 91.65
  A 1.00 0.96 88.0 0 1 1254.73 90.37
  Q 1264.85 93.08 1275.32 94.27
  A 0.97 0.97 0.0 0 0 1276.28 92.85
  L 1264.04 70.34
  Q 1263.91 70.09 1263.64 70.07
  L 1260.36 69.77
  A 0.47 0.47 0.0 0 1 1260.15 68.91
  C 1262.83 67.17 1265.64 69.21 1266.83 71.43
  Q 1272.96 82.88 1280.00 94.98
  Z"
/>
<ellipse fill="#ffffff" cx="0.00" cy="0.00" transform="translate(1272.75,69.72) rotate(98.5)" rx="1.10" ry="0.77"/>
<rect fill="#ffffff" x="-0.90" y="-10.79" transform="translate(1254.10,81.00) rotate(20.0)" width="1.80" height="21.58" rx="0.88"/>
<path fill="#000000" d="
  M 0.00 103.14
  Q 10.77 111.13 20.68 119.94
  C 31.96 129.96 41.15 136.63 53.13 143.28
  A 0.75 0.74 -51.2 0 1 53.26 144.49
  Q 49.57 147.74 46.96 151.88
  C 45.22 154.64 43.95 155.88 40.98 153.53
  Q 20.24 137.05 0.00 120.47
  L 0.00 103.14
  Z"
/>
<path fill="#ffffff" d="
  M 15.91 186.48
  C 14.33 184.77 13.03 184.05 11.47 182.69
  A 0.35 0.34 -11.5 0 1 11.85 182.12
  Q 14.62 183.47 16.06 186.38
  A 0.09 0.09 0.0 0 1 15.91 186.48
  Z"
/>
<path fill="#ffffff" d="
  M 6.14 185.09
  Q 7.39 183.84 8.86 182.85
  A 0.27 0.26 7.9 0 1 9.18 183.27
  L 6.50 185.49
  A 0.27 0.27 0.0 0 1 6.14 185.09
  Z"
/>
<path fill="#ffffff" d="
  M 0.00 232.16
  L 0.00 193.48
  L 11.13 185.92
  A 1.06 1.06 0.0 0 1 12.77 186.66
  Q 15.54 207.66 17.66 228.66
  C 17.98 231.84 19.36 235.69 19.64 239.38
  Q 19.69 240.02 19.10 239.78
  L 0.00 232.16
  Z"
/>
<path fill="#ffffff" d="
  M 0.00 190.43
  L 0.00 188.94
  Q 2.22 187.96 4.32 186.34
  Q 4.51 186.20 4.66 186.21
  Q 4.80 186.22 4.89 186.31
  Q 5.01 186.46 4.86 186.57
  L 0.00 190.43
  Z"
/>
<path fill="#ffffff" d="
  M 20.69 192.31
  Q 19.24 190.50 16.34 188.18
  Q 15.82 187.77 16.08 187.15
  Q 16.26 186.71 16.62 187.03
  C 17.29 187.63 18.14 188.11 18.68 188.78
  Q 38.65 213.72 59.57 237.88
  Q 59.75 238.09 59.49 238.17
  Q 59.34 238.22 59.20 238.27
  Q 59.09 238.31 59.01 238.22
  Q 39.47 215.59 20.69 192.31
  Z"
/>
<path fill="#ffffff" d="
  M 63.31 242.19
  Q 64.16 243.09 63.60 243.88
  A 1.19 1.18 -32.8 0 0 63.40 244.78
  Q 64.26 249.63 63.53 254.47
  A 0.66 0.66 0.0 0 1 62.77 255.02
  Q 61.43 254.79 60.47 255.67
  A 0.98 0.97 -55.3 0 1 59.46 255.86
  L 50.92 252.58
  Q 50.05 252.24 50.93 251.91
  C 56.66 249.79 60.29 247.46 59.48 240.59
  A 0.98 0.98 0.0 0 1 61.21 239.85
  Q 61.97 240.76 63.31 242.19
  Z"
/>
<path fill="#ffffff" d="
  M 29.56 243.55
  Q 28.20 242.70 29.75 243.09
  Q 31.61 243.56 32.83 244.88
  A 0.31 0.31 0.0 0 1 32.44 245.35
  L 29.56 243.55
  Z"
/>
<path fill="#ffffff" d="
  M 47.38 250.50
  Q 48.20 250.90 47.29 250.97
  C 46.06 251.05 44.74 249.69 43.50 249.28
  Q 40.94 248.43 35.75 246.53
  Q 34.78 246.17 34.37 245.45
  Q 34.16 245.06 34.55 245.27
  C 38.50 247.31 43.08 248.38 47.38 250.50
  Z"
/>
<path fill="#ffffff" d="
  M 65.88 245.66
  Q 66.86 246.65 67.36 247.94
  A 0.34 0.34 0.0 0 1 66.77 248.28
  Q 65.91 247.19 65.53 245.86
  Q 65.29 245.05 65.88 245.66
  Z"
/>
<path fill="#ffffff" d="
  M 67.14 256.00
  L 67.30 253.22
  A 0.33 0.32 36.7 0 1 67.93 253.13
  Q 69.05 256.15 66.79 258.56
  A 0.46 0.46 0.0 0 1 65.99 258.25
  Q 65.97 257.22 66.81 256.59
  A 0.81 0.81 0.0 0 0 67.14 256.00
  Z"
/>
<path fill="#ffffff" d="
  M 57.40 281.52
  Q 57.74 281.41 57.99 281.61
  A 0.41 0.41 0.0 0 1 57.84 282.31
  L 46.55 285.61
  Q 46.07 285.75 45.69 285.41
  L 36.11 276.89
  A 0.81 0.81 0.0 0 0 35.34 276.72
  Q 34.76 276.91 34.43 276.22
  A 1.04 1.03 -11.6 0 1 35.41 274.74
  L 49.22 275.36
  Q 49.69 275.38 50.05 275.69
  L 56.57 281.36
  Q 56.94 281.69 57.40 281.52
  Z"
/>
<path fill="#ffffff" d="
  M 54.29 275.83
  L 55.02 275.26
  A 0.42 0.42 0.0 0 1 55.67 275.44
  Q 55.94 276.14 55.41 276.37
  Q 54.88 276.59 54.43 276.47
  A 0.37 0.36 32.8 0 1 54.29 275.83
  Z"
/>
<path fill="#ffffff" d="
  M 58.07 276.18
  A 0.13 0.13 0.0 0 1 57.99 276.01
  Q 58.13 275.61 58.45 275.57
  Q 62.53 275.01 65.32 276.38
  A 2.00 2.00 0.0 0 1 65.01 280.09
  L 63.56 280.52
  Q 62.95 280.70 62.66 280.13
  Q 61.15 277.24 58.07 276.18
  Z"
/>
<rect fill="#ffffff" x="-5.69" y="-0.36" transform="translate(39.18,281.45) rotate(44.9)" width="11.38" height="0.72" rx="0.27"/>
<ellipse fill="#ffffff" cx="0.00" cy="0.00" transform="translate(60.36,281.10) rotate(-11.5)" rx="1.14" ry="0.60"/>
<path fill="#ffffff" d="
  M 0.00 283.73
  L 71.90 375.84
  A 1.91 1.91 0.0 0 1 71.90 378.18
  C 69.87 380.78 67.38 382.51 63.82 382.45
  C 56.86 382.35 49.93 381.72 42.93 381.95
  Q 38.22 382.11 34.75 381.99
  Q 17.38 381.39 0.00 381.46
  L 0.00 283.73
  Z
  M 22.34 380.51
  C 35.74 380.44 49.71 381.34 63.41 381.27
  C 66.52 381.25 68.92 379.99 70.76 377.74
  Q 71.54 376.77 70.73 375.83
  C 66.03 370.39 60.77 362.97 57.71 359.07
  Q 44.41 342.11 31.16 325.11
  Q 30.00 323.62 28.67 322.67
  A 0.35 0.34 -66.5 0 0 28.13 322.89
  Q 26.13 332.27 25.19 341.61
  C 23.81 355.30 22.10 367.12 21.83 379.99
  Q 21.82 380.51 22.34 380.51
  Z"
/>
<path fill="#000000" d="
  M 63.41 381.27
  C 49.71 381.34 35.74 380.44 22.34 380.51
  Q 21.82 380.51 21.83 379.99
  C 22.10 367.12 23.81 355.30 25.19 341.61
  Q 26.13 332.27 28.13 322.89
  A 0.35 0.34 -66.5 0 1 28.67 322.67
  Q 30.00 323.62 31.16 325.11
  Q 44.41 342.11 57.71 359.07
  C 60.77 362.97 66.03 370.39 70.73 375.83
  Q 71.54 376.77 70.76 377.74
  C 68.92 379.99 66.52 381.25 63.41 381.27
  Z
  M 57.26 378.79
  Q 63.04 381.04 67.33 376.96
  A 1.31 1.30 -36.7 0 0 67.57 375.36
  Q 65.64 371.93 62.67 369.35
  Q 62.13 368.88 61.75 369.49
  L 56.83 377.49
  A 0.89 0.89 0.0 0 0 57.26 378.79
  Z"
/>
<path fill="#ffffff" d="
  M 57.26 378.79
  A 0.89 0.89 0.0 0 1 56.83 377.49
  L 61.75 369.49
  Q 62.13 368.88 62.67 369.35
  Q 65.64 371.93 67.57 375.36
  A 1.31 1.30 -36.7 0 1 67.33 376.96
  Q 63.04 381.04 57.26 378.79
  Z"
/>
<path fill="#ffffff" d="
  M 1226.79 480.33
  C 1223.95 477.77 1220.89 476.13 1222.56 471.59
  C 1224.92 465.23 1233.81 457.52 1240.69 463.32
  Q 1247.60 469.14 1254.43 476.38
  Q 1255.12 477.11 1254.13 477.24
  C 1248.62 477.96 1243.09 484.88 1240.67 489.41
  Q 1240.46 489.80 1240.07 489.59
  Q 1232.85 485.78 1226.79 480.33
  Z"
/>
<path fill="#ffffff" d="
  M 1241.55 492.01
  A 2.80 2.78 -41.8 0 0 1244.63 492.17
  C 1247.68 490.37 1254.85 483.96 1254.80 480.03
  Q 1254.79 478.81 1255.50 478.47
  A 0.28 0.28 0.0 0 1 1255.89 478.80
  Q 1253.48 486.85 1245.49 492.25
  C 1242.31 494.40 1240.02 491.98 1237.52 489.62
  A 0.24 0.24 0.0 0 1 1237.83 489.25
  L 1241.55 492.01
  Z"
/>
<path fill="#ffffff" d="
  M 1280.00 522.81
  L 1280.00 559.39
  L 1264.41 576.57
  A 1.83 1.82 44.4 0 1 1261.73 576.59
  L 1182.44 492.15
  A 1.45 1.44 -31.6 0 1 1183.00 489.80
  Q 1195.90 485.16 1208.51 480.76
  C 1211.07 479.87 1213.40 479.39 1215.97 480.84
  Q 1234.80 491.44 1253.78 501.75
  C 1263.09 506.80 1271.79 515.98 1279.37 523.35
  Q 1279.68 523.65 1279.73 523.23
  Q 1279.79 522.78 1280.00 522.81
  Z
  M 1261.08 558.28
  Q 1260.28 557.82 1259.66 558.45
  A 0.51 0.50 8.4 0 0 1260.26 559.25
  L 1261.07 558.83
  Q 1261.59 558.56 1261.08 558.28
  Z"
/>
<ellipse fill="#ffffff" cx="0.00" cy="0.00" transform="translate(1248.24,485.07) rotate(-37.5)" rx="1.14" ry="0.72"/>
<path fill="#ffffff" d="
  M 1190.12 506.05
  C 1187.46 503.06 1182.75 498.75 1180.37 495.12
  Q 1179.61 493.96 1180.73 492.89
  Q 1181.13 492.51 1180.98 493.05
  Q 1180.51 494.69 1181.25 495.50
  Q 1217.15 535.36 1252.88 575.38
  C 1255.12 577.90 1257.50 580.21 1261.17 578.54
  A 0.35 0.34 89.1 0 1 1261.63 578.99
  Q 1261.55 579.15 1261.32 579.32
  C 1258.85 581.13 1254.32 578.05 1252.49 576.01
  Q 1221.26 541.07 1190.12 506.05
  Z"
/>
<path fill="#ffffff" d="
  M 1269.95 509.16
  A 1.27 1.27 0.0 0 1 1268.18 509.50
  L 1264.34 506.90
  A 2.67 2.64 34.0 0 1 1263.60 503.22
  L 1263.79 502.94
  A 2.67 2.64 34.0 0 1 1267.48 502.24
  L 1271.33 504.84
  A 1.27 1.27 0.0 0 1 1271.67 506.60
  L 1269.95 509.16
  Z"
/>
<ellipse fill="#ffffff" cx="0.00" cy="0.00" transform="translate(36.84,507.68) rotate(83.4)" rx="1.15" ry="0.65"/>
<path fill="#ffffff" d="
  M 27.77 510.24
  L 24.85 511.10
  Q 23.86 511.39 24.37 510.49
  Q 25.50 508.46 27.81 508.49
  Q 28.27 508.50 28.63 508.80
  C 36.67 515.41 43.74 523.37 50.75 531.12
  A 0.68 0.67 69.5 0 1 50.24 532.25
  Q 47.59 532.19 44.54 532.70
  Q 35.18 534.28 25.70 534.29
  Q 24.81 534.29 24.41 533.94
  Q 23.91 533.50 24.04 532.82
  Q 24.15 532.30 24.68 532.30
  Q 35.21 532.23 45.68 530.68
  A 0.95 0.94 -25.9 0 0 46.23 529.10
  L 28.57 510.45
  Q 28.24 510.10 27.77 510.24
  Z"
/>
<ellipse fill="#ffffff" cx="0.00" cy="0.00" transform="translate(21.75,523.16) rotate(95.0)" rx="11.11" ry="1.11"/>
<path fill="#000000" d="
  M 1261.08 558.28
  Q 1261.59 558.56 1261.07 558.83
  L 1260.26 559.25
  A 0.51 0.50 8.4 0 1 1259.66 558.45
  Q 1260.28 557.82 1261.08 558.28
  Z"
/>
<path fill="#ffffff" d="
  M 1244.93 720.00
  L 1158.50 720.00
  Q 1167.53 654.03 1175.98 587.96
  C 1176.53 583.63 1178.26 576.41 1178.33 570.37
  C 1178.39 564.27 1182.50 565.99 1186.54 566.63
  Q 1187.04 566.70 1187.38 567.06
  C 1220.38 601.24 1251.80 635.12 1275.19 659.31
  C 1278.10 662.33 1276.72 665.76 1275.13 669.10
  C 1270.45 678.96 1265.84 688.21 1259.61 697.61
  Q 1252.28 708.64 1244.93 720.00
  Z
  M 1189.68 571.07
  C 1186.16 567.45 1186.28 568.32 1181.66 566.96
  A 1.63 1.62 -79.9 0 0 1179.58 568.42
  C 1179.38 571.54 1179.71 574.27 1178.92 577.44
  Q 1178.20 580.30 1177.70 583.99
  Q 1174.11 610.45 1170.88 636.70
  A 0.55 0.55 0.0 0 0 1171.70 637.24
  C 1177.41 633.88 1182.18 630.57 1187.67 626.03
  C 1197.55 617.86 1207.94 610.33 1217.38 601.61
  A 1.09 1.08 47.0 0 0 1217.43 600.07
  Q 1203.62 585.40 1189.68 571.07
  Z"
/>
<path fill="#000000" d="
  M 1189.68 571.07
  Q 1203.62 585.40 1217.43 600.07
  A 1.09 1.08 47.0 0 1 1217.38 601.61
  C 1207.94 610.33 1197.55 617.86 1187.67 626.03
  C 1182.18 630.57 1177.41 633.88 1171.70 637.24
  A 0.55 0.55 0.0 0 1 1170.88 636.70
  Q 1174.11 610.45 1177.70 583.99
  Q 1178.20 580.30 1178.92 577.44
  C 1179.71 574.27 1179.38 571.54 1179.58 568.42
  A 1.63 1.62 -79.9 0 1 1181.66 566.96
  C 1186.28 568.32 1186.16 567.45 1189.68 571.07
  Z
  M 1191.57 576.51
  C 1190.63 573.42 1186.36 569.66 1182.57 570.64
  A 1.11 1.11 0.0 0 0 1181.82 571.30
  Q 1180.26 575.05 1180.83 579.13
  Q 1180.93 579.83 1181.63 579.67
  L 1191.05 577.43
  A 0.73 0.72 74.6 0 0 1191.57 576.51
  Z"
/>
<path fill="#ffffff" d="
  M 1182.57 570.64
  C 1186.36 569.66 1190.63 573.42 1191.57 576.51
  A 0.73 0.72 74.6 0 1 1191.05 577.43
  L 1181.63 579.67
  Q 1180.93 579.83 1180.83 579.13
  Q 1180.26 575.05 1181.82 571.30
  A 1.11 1.11 0.0 0 1 1182.57 570.64
  Z"
/>
<path fill="#ffffff" d="
  M 79.78 720.00
  L 32.68 720.00
  C 35.18 719.59 37.69 719.89 40.07 719.40
  C 53.03 716.74 66.23 715.25 79.32 713.26
  Q 79.92 713.16 80.05 712.57
  L 87.12 681.02
  A 0.36 0.36 0.0 0 0 86.45 680.77
  Q 85.43 682.67 82.94 682.71
  C 63.23 683.07 44.03 684.91 24.50 687.50
  C 20.13 688.08 17.83 685.79 13.49 688.73
  Q 6.66 693.34 0.00 698.16
  L 0.00 696.04
  Q 5.87 692.51 11.42 688.66
  C 22.45 681.00 33.75 674.04 44.66 666.31
  C 54.72 659.18 65.72 652.72 76.05 645.49
  Q 79.98 642.74 82.86 641.67
  C 85.45 640.71 94.60 637.68 96.74 640.44
  Q 97.08 640.88 96.96 641.43
  L 79.78 720.00
  Z"
/>
<path fill="#ffffff" d="
  M 1134.85 658.21
  L 1132.96 657.17
  Q 1131.93 656.60 1133.07 656.31
  Q 1134.26 656.00 1135.15 656.59
  Q 1135.55 656.86 1135.51 657.34
  Q 1135.40 658.42 1136.02 659.25
  Q 1136.31 659.65 1136.32 660.15
  L 1136.85 680.72
  Q 1136.88 681.66 1136.09 681.15
  Q 1128.39 676.14 1121.42 669.84
  Q 1120.22 668.76 1120.96 668.21
  A 0.45 0.44 45.5 0 1 1121.50 668.22
  L 1133.67 677.81
  Q 1134.80 678.69 1134.79 677.26
  C 1134.78 672.60 1133.74 662.43 1135.05 658.73
  Q 1135.17 658.38 1134.85 658.21
  Z"
/>
<ellipse fill="#ffffff" cx="0.00" cy="0.00" transform="translate(1124.80,661.86) rotate(-41.8)" rx="8.23" ry="0.79"/>
<path fill="#ffffff" d="
  M 1141.22 661.59
  L 1140.81 661.78
  A 0.37 0.37 0.0 0 1 1140.29 661.47
  L 1140.24 660.78
  A 0.43 0.43 0.0 0 1 1140.80 660.33
  Q 1141.63 660.60 1141.41 661.37
  A 0.32 0.32 0.0 0 1 1141.22 661.59
  Z"
/>
<path fill="#ffffff" d="
  M 975.54 668.69
  L 993.42 687.69
  Q 993.65 687.94 993.98 687.86
  L 996.94 687.14
  A 0.51 0.51 0.0 0 1 997.52 687.86
  C 995.78 691.44 991.68 688.39 990.00 686.67
  Q 980.72 677.22 971.42 667.15
  Q 970.60 666.26 971.80 666.10
  C 979.99 665.00 989.00 663.35 997.40 663.89
  A 0.64 0.64 0.0 0 1 998.00 664.53
  L 998.00 665.05
  Q 998.00 665.70 997.35 665.71
  Q 986.58 665.81 975.95 667.50
  A 0.71 0.71 0.0 0 0 975.54 668.69
  Z"
/>
<rect fill="#ffffff" x="-0.93" y="-10.77" transform="translate(1000.30,674.85) rotate(5.1)" width="1.86" height="21.54" rx="0.90"/>
<path fill="#ffffff" d="
  M 336.78 683.33
  A 0.24 0.24 0.0 0 1 336.45 683.24
  C 331.44 674.09 324.24 666.99 312.77 670.51
  Q 312.25 670.67 312.24 670.12
  Q 312.24 669.84 312.39 669.68
  Q 312.50 669.57 312.78 669.56
  Q 314.22 669.50 315.62 669.16
  C 325.22 666.84 332.18 674.21 336.31 681.71
  A 1.08 1.07 57.0 0 0 337.90 682.05
  Q 341.42 679.39 345.93 677.67
  C 349.88 676.16 351.11 680.65 348.19 682.69
  Q 344.53 685.25 340.88 687.83
  Q 340.60 688.02 340.33 687.82
  Q 340.04 687.60 340.33 687.33
  C 342.35 685.54 348.51 682.49 348.75 679.60
  A 1.49 1.48 -11.4 0 0 346.58 678.16
  L 336.78 683.33
  Z"
/>
<path fill="#ffffff" d="
  M 342.46 720.00
  L 319.68 720.00
  Q 320.14 719.59 319.94 719.11
  C 319.50 718.03 318.37 718.21 317.95 716.54
  A 0.65 0.64 73.8 0 0 317.12 716.08
  L 316.14 716.41
  A 1.13 1.11 -35.9 0 1 315.11 716.25
  Q 313.84 715.29 314.29 713.52
  Q 314.44 712.96 315.00 712.78
  L 315.95 712.48
  Q 316.40 712.34 316.18 711.93
  Q 311.67 703.50 307.46 694.95
  C 306.86 693.72 305.57 693.21 305.34 691.77
  C 304.25 684.91 301.74 677.83 308.28 672.71
  Q 308.70 672.38 309.16 672.65
  C 317.34 677.34 324.88 683.44 332.07 688.39
  Q 336.71 691.58 341.29 694.82
  A 0.26 0.26 0.0 0 0 341.68 694.50
  L 337.65 685.15
  A 0.31 0.31 0.0 0 1 338.12 684.78
  C 338.99 685.45 339.10 686.95 339.49 687.76
  Q 347.78 705.27 351.72 716.52
  C 353.13 720.55 344.02 718.92 342.33 718.55
  A 0.53 0.53 0.0 0 0 341.96 719.54
  Q 342.27 719.71 342.46 720.00
  Z"
/>
<path fill="#ffffff" d="
  M 297.60 720.00
  L 244.70 720.00
  C 235.40 710.00 224.51 700.89 215.94 691.37
  A 0.38 0.38 0.0 0 0 215.27 691.64
  Q 215.96 706.02 219.83 720.00
  L 218.25 720.00
  C 216.41 710.12 213.55 699.97 214.50 689.87
  C 215.17 682.73 218.90 677.69 226.85 680.42
  Q 261.54 692.34 293.36 710.59
  C 297.56 713.00 298.30 715.41 297.60 720.00
  Z"
/>
<path fill="#000000" d="
  M 32.68 720.00
  L 0.00 720.00
  L 0.00 698.16
  Q 6.66 693.34 13.49 688.73
  C 17.83 685.79 20.13 688.08 24.50 687.50
  C 44.03 684.91 63.23 683.07 82.94 682.71
  Q 85.43 682.67 86.45 680.77
  A 0.36 0.36 0.0 0 1 87.12 681.02
  L 80.05 712.57
  Q 79.92 713.16 79.32 713.26
  C 66.23 715.25 53.03 716.74 40.07 719.40
  C 37.69 719.89 35.18 719.59 32.68 720.00
  Z"
/>
<ellipse fill="#ffffff" cx="0.00" cy="0.00" transform="translate(328.05,682.92) rotate(24.4)" rx="3.29" ry="0.58"/>
<path fill="#ffffff" d="
  M 985.67 691.40
  A 0.42 0.42 0.0 0 1 984.92 691.33
  L 984.43 690.11
  A 0.51 0.51 0.0 0 1 985.07 689.44
  Q 986.58 689.96 985.67 691.40
  Z"
/>
<path fill="#000000" d="
  M 244.70 720.00
  L 219.83 720.00
  Q 215.96 706.02 215.27 691.64
  A 0.38 0.38 0.0 0 1 215.94 691.37
  C 224.51 700.89 235.40 710.00 244.70 720.00
  Z"
/>
<path fill="#ffffff" d="
  M 1275.55 720.00
  L 1271.30 720.00
  Q 1275.15 711.57 1276.55 702.45
  A 0.23 0.23 0.0 0 1 1276.94 702.32
  L 1277.18 702.56
  Q 1277.35 702.72 1277.32 702.96
  L 1275.55 720.00
  Z"
/>
<path fill="#ffffff" d="
  M 352.19 720.00
  L 343.64 720.00
  Q 348.09 719.26 352.19 720.00
  Z"
/>
</svg>
