<?xml version="1.0" encoding="UTF-8" standalone="no"?>
<!DOCTYPE svg PUBLIC "-//W3C//DTD SVG 1.1//EN" "http://www.w3.org/Graphics/SVG/1.1/DTD/svg11.dtd">
<svg xmlns="http://www.w3.org/2000/svg" version="1.1" viewBox="0.00 0.00 300.00 300.00">
<g stroke-width="2.00" fill="none" stroke-linecap="butt">
<path stroke="#790428" vector-effect="non-scaling-stroke" d="
  M 83.48 162.18
  C 79.53 165.67 75.39 166.74 75.36 172.99
  Q 75.32 180.62 74.61 190.99
  C 74.14 197.88 72.00 205.79 66.15 210.13
  C 59.26 215.24 47.79 213.59 40.04 213.57
  Q 38.54 213.56 38.92 215.01
  L 46.71 244.32
  A 1.40 1.22 -5.9 0 0 48.00 245.23
  C 56.52 245.37 66.01 245.66 73.81 243.65
  C 90.02 239.48 103.43 227.53 107.28 210.85
  Q 109.33 201.92 109.62 194.25
  Q 110.01 183.58 109.17 151.76
  Q 108.31 119.31 100.69 88.36
  Q 100.46 87.42 101.25 86.86
  L 116.55 75.89
  A 0.84 0.83 58.5 0 0 116.80 74.82
  Q 116.26 73.79 115.37 74.37
  Q 115.04 74.59 114.78 74.29
  L 114.61 74.08
  Q 114.31 73.73 114.73 73.52
  L 116.02 72.90
  Q 116.56 72.64 116.40 72.06
  L 108.62 43.24
  A 0.88 0.88 0.0 0 0 107.26 42.75
  L 89.60 55.39
  A 0.78 0.78 0.0 0 1 88.46 55.14
  C 86.76 52.12 82.85 43.33 79.74 42.03
  Q 79.00 41.72 79.33 40.98
  L 79.52 40.57
  A 0.50 0.50 0.0 0 0 78.88 39.90
  L 48.27 52.58
  A 1.53 1.53 0.0 0 0 47.51 54.72
  Q 53.06 64.95 57.06 75.89
  A 1.50 1.50 0.0 0 1 56.51 77.63
  L 37.60 90.83
  Q 37.24 91.09 37.34 91.52
  L 44.01 118.24
  A 0.79 0.70 -77.1 0 0 44.18 118.55
  C 45.97 120.62 44.48 123.44 46.72 125.08
  A 0.74 0.73 -44.5 0 0 47.57 125.08
  Q 59.16 116.71 70.59 108.10
  Q 72.67 106.53 74.91 105.77
  A 0.51 0.51 0.0 0 1 75.36 106.67
  C 72.27 108.85 68.66 110.98 69.53 115.51
  Q 70.56 120.80 72.00 125.79
  A 2.01 2.00 -25.9 0 1 71.23 127.99
  L 33.53 154.87
  Q 33.21 155.09 33.31 155.47
  L 41.66 187.81
  A 0.97 0.97 0.0 0 0 43.15 188.36
  Q 50.17 183.42 57.55 178.67
  C 65.20 173.75 74.12 166.69 83.11 161.66
  A 0.32 0.32 0.0 0 1 83.48 162.18"
/>
<path stroke="#790428" vector-effect="non-scaling-stroke" d="
  M 135.58 206.55
  A 0.50 0.50 0.0 0 1 135.67 207.54
  L 114.64 211.45
  A 1.69 1.68 85.1 0 0 113.26 213.10
  L 113.15 244.26
  A 0.66 0.66 0.0 0 0 113.92 244.91
  Q 144.98 239.68 175.94 233.37
  C 177.55 233.04 179.54 233.14 181.26 232.90
  A 0.79 0.78 -4.3 0 0 181.93 232.13
  L 181.78 199.97
  A 0.87 0.87 0.0 0 0 180.74 199.12
  L 161.24 202.91
  Q 160.39 203.07 160.40 202.21
  L 160.70 163.09
  Q 160.71 162.38 161.41 162.38
  L 187.10 162.57
  Q 187.69 162.57 187.68 163.15
  Q 187.67 163.83 186.98 163.85
  C 182.23 164.02 173.21 164.47 176.40 172.10
  Q 181.37 184.02 187.94 193.08
  C 202.96 213.81 221.41 230.56 245.14 240.77
  A 0.74 0.74 0.0 0 0 246.02 240.54
  L 266.26 214.19
  Q 267.09 213.11 265.87 212.49
  Q 259.18 209.10 252.73 206.41
  C 249.95 205.25 248.09 203.19 245.69 201.47
  A 0.66 0.66 0.0 0 1 245.58 200.50
  L 258.48 185.60
  A 0.84 0.84 0.0 0 0 258.42 184.44
  L 235.59 163.13
  A 0.29 0.29 0.0 0 1 235.78 162.62
  L 261.77 162.21
  Q 262.24 162.20 262.27 161.74
  Q 262.52 158.24 262.55 154.75
  Q 262.74 130.93 262.77 107.11
  C 262.77 105.48 262.34 103.54 262.47 101.66
  Q 262.74 97.87 262.74 97.83
  C 262.77 87.02 263.12 76.01 262.41 65.23
  Q 262.22 62.35 262.54 59.55
  A 0.61 0.61 0.0 0 0 261.93 58.87
  L 216.72 58.84
  A 0.77 0.77 0.0 0 1 215.95 58.09
  L 215.64 41.72
  Q 215.62 40.57 214.47 40.58
  L 169.29 40.96
  A 0.51 0.50 -89.4 0 0 168.79 41.46
  L 168.53 57.86
  Q 168.52 58.68 167.69 58.69
  L 127.01 58.99
  A 0.69 0.69 0.0 0 0 126.32 59.66
  C 126.00 69.26 126.77 79.90 126.65 88.44
  C 126.42 104.71 126.03 120.84 126.22 137.25
  Q 126.60 169.62 126.46 201.98
  C 126.43 209.08 131.43 206.57 135.58 206.55"
/>
<path stroke="#790428" vector-effect="non-scaling-stroke" d="
  M 230.56 90.33
  Q 231.90 89.76 236.36 89.02
  A 0.41 0.39 -84.4 0 0 236.66 88.76
  Q 236.71 88.62 236.78 88.48
  A 0.41 0.41 0.0 0 0 236.41 87.89
  L 161.35 88.08
  Q 160.54 88.08 160.53 88.90
  L 160.44 100.33
  Q 160.44 100.83 160.94 100.85
  Q 194.47 101.83 228.01 101.07
  A 0.57 0.56 -2.9 0 0 228.56 100.47
  C 228.44 98.26 228.03 91.41 230.56 90.33"
/>
<path stroke="#790428" vector-effect="non-scaling-stroke" d="
  M 160.66 120.87
  L 160.82 132.56
  Q 160.82 133.02 161.29 133.04
  Q 184.90 133.80 208.50 133.14
  Q 217.69 132.89 227.32 133.19
  A 1.13 1.12 -88.0 0 0 228.48 132.10
  L 228.72 124.95
  Q 228.73 124.43 229.09 124.05
  Q 231.46 121.51 235.13 121.80
  Q 235.65 121.84 235.90 121.68
  Q 236.24 121.48 236.42 121.09
  Q 236.68 120.51 236.05 120.51
  L 161.13 120.40
  Q 160.66 120.40 160.66 120.87"
/>
<path stroke="#790428" vector-effect="non-scaling-stroke" d="
  M 210.15 162.86
  A 0.49 0.49 0.0 0 0 209.74 163.61
  L 218.96 177.93
  A 0.49 0.49 0.0 0 0 219.74 177.99
  L 232.55 163.62
  A 0.49 0.49 0.0 0 0 232.18 162.80
  L 210.15 162.86"
/>
<path stroke="#790428" vector-effect="non-scaling-stroke" d="
  M 263.4030 213.4403
  A 1.44 0.39 8.8 0 0 262.0397 212.8346
  A 1.44 0.39 8.8 0 0 260.5570 212.9997
  A 1.44 0.39 8.8 0 0 261.9203 213.6054
  A 1.44 0.39 8.8 0 0 263.4030 213.4403"
/>
</g>
<path fill="#080808" d="
  M 0.00 0.00
  L 300.00 0.00
  L 300.00 300.00
  L 0.00 300.00
  L 0.00 0.00
  Z
  M 83.48 162.18
  C 79.53 165.67 75.39 166.74 75.36 172.99
  Q 75.32 180.62 74.61 190.99
  C 74.14 197.88 72.00 205.79 66.15 210.13
  C 59.26 215.24 47.79 213.59 40.04 213.57
  Q 38.54 213.56 38.92 215.01
  L 46.71 244.32
  A 1.40 1.22 -5.9 0 0 48.00 245.23
  C 56.52 245.37 66.01 245.66 73.81 243.65
  C 90.02 239.48 103.43 227.53 107.28 210.85
  Q 109.33 201.92 109.62 194.25
  Q 110.01 183.58 109.17 151.76
  Q 108.31 119.31 100.69 88.36
  Q 100.46 87.42 101.25 86.86
  L 116.55 75.89
  A 0.84 0.83 58.5 0 0 116.80 74.82
  Q 116.26 73.79 115.37 74.37
  Q 115.04 74.59 114.78 74.29
  L 114.61 74.08
  Q 114.31 73.73 114.73 73.52
  L 116.02 72.90
  Q 116.56 72.64 116.40 72.06
  L 108.62 43.24
  A 0.88 0.88 0.0 0 0 107.26 42.75
  L 89.60 55.39
  A 0.78 0.78 0.0 0 1 88.46 55.14
  C 86.76 52.12 82.85 43.33 79.74 42.03
  Q 79.00 41.72 79.33 40.98
  L 79.52 40.57
  A 0.50 0.50 0.0 0 0 78.88 39.90
  L 48.27 52.58
  A 1.53 1.53 0.0 0 0 47.51 54.72
  Q 53.06 64.95 57.06 75.89
  A 1.50 1.50 0.0 0 1 56.51 77.63
  L 37.60 90.83
  Q 37.24 91.09 37.34 91.52
  L 44.01 118.24
  A 0.79 0.70 -77.1 0 0 44.18 118.55
  C 45.97 120.62 44.48 123.44 46.72 125.08
  A 0.74 0.73 -44.5 0 0 47.57 125.08
  Q 59.16 116.71 70.59 108.10
  Q 72.67 106.53 74.91 105.77
  A 0.51 0.51 0.0 0 1 75.36 106.67
  C 72.27 108.85 68.66 110.98 69.53 115.51
  Q 70.56 120.80 72.00 125.79
  A 2.01 2.00 -25.9 0 1 71.23 127.99
  L 33.53 154.87
  Q 33.21 155.09 33.31 155.47
  L 41.66 187.81
  A 0.97 0.97 0.0 0 0 43.15 188.36
  Q 50.17 183.42 57.55 178.67
  C 65.20 173.75 74.12 166.69 83.11 161.66
  A 0.32 0.32 0.0 0 1 83.48 162.18
  Z
  M 135.58 206.55
  A 0.50 0.50 0.0 0 1 135.67 207.54
  L 114.64 211.45
  A 1.69 1.68 85.1 0 0 113.26 213.10
  L 113.15 244.26
  A 0.66 0.66 0.0 0 0 113.92 244.91
  Q 144.98 239.68 175.94 233.37
  C 177.55 233.04 179.54 233.14 181.26 232.90
  A 0.79 0.78 -4.3 0 0 181.93 232.13
  L 181.78 199.97
  A 0.87 0.87 0.0 0 0 180.74 199.12
  L 161.24 202.91
  Q 160.39 203.07 160.40 202.21
  L 160.70 163.09
  Q 160.71 162.38 161.41 162.38
  L 187.10 162.57
  Q 187.69 162.57 187.68 163.15
  Q 187.67 163.83 186.98 163.85
  C 182.23 164.02 173.21 164.47 176.40 172.10
  Q 181.37 184.02 187.94 193.08
  C 202.96 213.81 221.41 230.56 245.14 240.77
  A 0.74 0.74 0.0 0 0 246.02 240.54
  L 266.26 214.19
  Q 267.09 213.11 265.87 212.49
  Q 259.18 209.10 252.73 206.41
  C 249.95 205.25 248.09 203.19 245.69 201.47
  A 0.66 0.66 0.0 0 1 245.58 200.50
  L 258.48 185.60
  A 0.84 0.84 0.0 0 0 258.42 184.44
  L 235.59 163.13
  A 0.29 0.29 0.0 0 1 235.78 162.62
  L 261.77 162.21
  Q 262.24 162.20 262.27 161.74
  Q 262.52 158.24 262.55 154.75
  Q 262.74 130.93 262.77 107.11
  C 262.77 105.48 262.34 103.54 262.47 101.66
  Q 262.74 97.87 262.74 97.83
  C 262.77 87.02 263.12 76.01 262.41 65.23
  Q 262.22 62.35 262.54 59.55
  A 0.61 0.61 0.0 0 0 261.93 58.87
  L 216.72 58.84
  A 0.77 0.77 0.0 0 1 215.95 58.09
  L 215.64 41.72
  Q 215.62 40.57 214.47 40.58
  L 169.29 40.96
  A 0.51 0.50 -89.4 0 0 168.79 41.46
  L 168.53 57.86
  Q 168.52 58.68 167.69 58.69
  L 127.01 58.99
  A 0.69 0.69 0.0 0 0 126.32 59.66
  C 126.00 69.26 126.77 79.90 126.65 88.44
  C 126.42 104.71 126.03 120.84 126.22 137.25
  Q 126.60 169.62 126.46 201.98
  C 126.43 209.08 131.43 206.57 135.58 206.55
  Z"
/>
<path fill="#e90047" d="
  M 83.11 161.66
  C 74.12 166.69 65.20 173.75 57.55 178.67
  Q 50.17 183.42 43.15 188.36
  A 0.97 0.97 0.0 0 1 41.66 187.81
  L 33.31 155.47
  Q 33.21 155.09 33.53 154.87
  L 71.23 127.99
  A 2.01 2.00 -25.9 0 0 72.00 125.79
  Q 70.56 120.80 69.53 115.51
  C 68.66 110.98 72.27 108.85 75.36 106.67
  A 0.51 0.51 0.0 0 0 74.91 105.77
  Q 72.67 106.53 70.59 108.10
  Q 59.16 116.71 47.57 125.08
  A 0.74 0.73 -44.5 0 1 46.72 125.08
  C 44.48 123.44 45.97 120.62 44.18 118.55
  A 0.79 0.70 -77.1 0 1 44.01 118.24
  L 37.34 91.52
  Q 37.24 91.09 37.60 90.83
  L 56.51 77.63
  A 1.50 1.50 0.0 0 0 57.06 75.89
  Q 53.06 64.95 47.51 54.72
  A 1.53 1.53 0.0 0 1 48.27 52.58
  L 78.88 39.90
  A 0.50 0.50 0.0 0 1 79.52 40.57
  L 79.33 40.98
  Q 79.00 41.72 79.74 42.03
  C 82.85 43.33 86.76 52.12 88.46 55.14
  A 0.78 0.78 0.0 0 0 89.60 55.39
  L 107.26 42.75
  A 0.88 0.88 0.0 0 1 108.62 43.24
  L 116.40 72.06
  Q 116.56 72.64 116.02 72.90
  L 114.73 73.52
  Q 114.31 73.73 114.61 74.08
  L 114.78 74.29
  Q 115.04 74.59 115.37 74.37
  Q 116.26 73.79 116.80 74.82
  A 0.84 0.83 58.5 0 1 116.55 75.89
  L 101.25 86.86
  Q 100.46 87.42 100.69 88.36
  Q 108.31 119.31 109.17 151.76
  Q 110.01 183.58 109.62 194.25
  Q 109.33 201.92 107.28 210.85
  C 103.43 227.53 90.02 239.48 73.81 243.65
  C 66.01 245.66 56.52 245.37 48.00 245.23
  A 1.40 1.22 -5.9 0 1 46.71 244.32
  L 38.92 215.01
  Q 38.54 213.56 40.04 213.57
  C 47.79 213.59 59.26 215.24 66.15 210.13
  C 72.00 205.79 74.14 197.88 74.61 190.99
  Q 75.32 180.62 75.36 172.99
  C 75.39 166.74 79.53 165.67 83.48 162.18
  A 0.32 0.32 0.0 0 0 83.11 161.66
  Z"
/>
<path fill="#e90047" d="
  M 135.58 206.55
  C 131.43 206.57 126.43 209.08 126.46 201.98
  Q 126.60 169.62 126.22 137.25
  C 126.03 120.84 126.42 104.71 126.65 88.44
  C 126.77 79.90 126.00 69.26 126.32 59.66
  A 0.69 0.69 0.0 0 1 127.01 58.99
  L 167.69 58.69
  Q 168.52 58.68 168.53 57.86
  L 168.79 41.46
  A 0.51 0.50 -89.4 0 1 169.29 40.96
  L 214.47 40.58
  Q 215.62 40.57 215.64 41.72
  L 215.95 58.09
  A 0.77 0.77 0.0 0 0 216.72 58.84
  L 261.93 58.87
  A 0.61 0.61 0.0 0 1 262.54 59.55
  Q 262.22 62.35 262.41 65.23
  C 263.12 76.01 262.77 87.02 262.74 97.83
  Q 262.74 97.87 262.47 101.66
  C 262.34 103.54 262.77 105.48 262.77 107.11
  Q 262.74 130.93 262.55 154.75
  Q 262.52 158.24 262.27 161.74
  Q 262.24 162.20 261.77 162.21
  L 235.78 162.62
  A 0.29 0.29 0.0 0 0 235.59 163.13
  L 258.42 184.44
  A 0.84 0.84 0.0 0 1 258.48 185.60
  L 245.58 200.50
  A 0.66 0.66 0.0 0 0 245.69 201.47
  C 248.09 203.19 249.95 205.25 252.73 206.41
  Q 259.18 209.10 265.87 212.49
  Q 267.09 213.11 266.26 214.19
  L 246.02 240.54
  A 0.74 0.74 0.0 0 1 245.14 240.77
  C 221.41 230.56 202.96 213.81 187.94 193.08
  Q 181.37 184.02 176.40 172.10
  C 173.21 164.47 182.23 164.02 186.98 163.85
  Q 187.67 163.83 187.68 163.15
  Q 187.69 162.57 187.10 162.57
  L 161.41 162.38
  Q 160.71 162.38 160.70 163.09
  L 160.40 202.21
  Q 160.39 203.07 161.24 202.91
  L 180.74 199.12
  A 0.87 0.87 0.0 0 1 181.78 199.97
  L 181.93 232.13
  A 0.79 0.78 -4.3 0 1 181.26 232.90
  C 179.54 233.14 177.55 233.04 175.94 233.37
  Q 144.98 239.68 113.92 244.91
  A 0.66 0.66 0.0 0 1 113.15 244.26
  L 113.26 213.10
  A 1.69 1.68 85.1 0 1 114.64 211.45
  L 135.67 207.54
  A 0.50 0.50 0.0 0 0 135.58 206.55
  Z
  M 230.56 90.33
  Q 231.90 89.76 236.36 89.02
  A 0.41 0.39 -84.4 0 0 236.66 88.76
  Q 236.71 88.62 236.78 88.48
  A 0.41 0.41 0.0 0 0 236.41 87.89
  L 161.35 88.08
  Q 160.54 88.08 160.53 88.90
  L 160.44 100.33
  Q 160.44 100.83 160.94 100.85
  Q 194.47 101.83 228.01 101.07
  A 0.57 0.56 -2.9 0 0 228.56 100.47
  C 228.44 98.26 228.03 91.41 230.56 90.33
  Z
  M 160.66 120.87
  L 160.82 132.56
  Q 160.82 133.02 161.29 133.04
  Q 184.90 133.80 208.50 133.14
  Q 217.69 132.89 227.32 133.19
  A 1.13 1.12 -88.0 0 0 228.48 132.10
  L 228.72 124.95
  Q 228.73 124.43 229.09 124.05
  Q 231.46 121.51 235.13 121.80
  Q 235.65 121.84 235.90 121.68
  Q 236.24 121.48 236.42 121.09
  Q 236.68 120.51 236.05 120.51
  L 161.13 120.40
  Q 160.66 120.40 160.66 120.87
  Z
  M 210.15 162.86
  A 0.49 0.49 0.0 0 0 209.74 163.61
  L 218.96 177.93
  A 0.49 0.49 0.0 0 0 219.74 177.99
  L 232.55 163.62
  A 0.49 0.49 0.0 0 0 232.18 162.80
  L 210.15 162.86
  Z
  M 263.4030 213.4403
  A 1.44 0.39 8.8 0 0 262.0397 212.8346
  A 1.44 0.39 8.8 0 0 260.5570 212.9997
  A 1.44 0.39 8.8 0 0 261.9203 213.6054
  A 1.44 0.39 8.8 0 0 263.4030 213.4403
  Z"
/>
<path fill="#080808" d="
  M 230.56 90.33
  C 228.03 91.41 228.44 98.26 228.56 100.47
  A 0.57 0.56 -2.9 0 1 228.01 101.07
  Q 194.47 101.83 160.94 100.85
  Q 160.44 100.83 160.44 100.33
  L 160.53 88.90
  Q 160.54 88.08 161.35 88.08
  L 236.41 87.89
  A 0.41 0.41 0.0 0 1 236.78 88.48
  Q 236.71 88.62 236.66 88.76
  A 0.41 0.39 -84.4 0 1 236.36 89.02
  Q 231.90 89.76 230.56 90.33
  Z"
/>
<path fill="#080808" d="
  M 160.66 120.87
  Q 160.66 120.40 161.13 120.40
  L 236.05 120.51
  Q 236.68 120.51 236.42 121.09
  Q 236.24 121.48 235.90 121.68
  Q 235.65 121.84 235.13 121.80
  Q 231.46 121.51 229.09 124.05
  Q 228.73 124.43 228.72 124.95
  L 228.48 132.10
  A 1.13 1.12 -88.0 0 1 227.32 133.19
  Q 217.69 132.89 208.50 133.14
  Q 184.90 133.80 161.29 133.04
  Q 160.82 133.02 160.82 132.56
  L 160.66 120.87
  Z"
/>
<path fill="#080808" d="
  M 210.15 162.86
  L 232.18 162.80
  A 0.49 0.49 0.0 0 1 232.55 163.62
  L 219.74 177.99
  A 0.49 0.49 0.0 0 1 218.96 177.93
  L 209.74 163.61
  A 0.49 0.49 0.0 0 1 210.15 162.86
  Z"
/>
<ellipse fill="#080808" cx="0.00" cy="0.00" transform="translate(261.98,213.22) rotate(8.8)" rx="1.44" ry="0.39"/>
</svg>
